<svg width="544" height="360" viewBox="0 0 544 360" fill="none" xmlns="http://www.w3.org/2000/svg">
<rect x="0.75" y="0.75" width="542.5" height="358.5" rx="11.25" fill="#645DD1" fill-opacity="0.1" stroke="#3F3D56" stroke-width="1.5"/>
<path d="M361.117 116.76H197.1C193.147 116.756 189.357 115.183 186.562 112.388C183.766 109.593 182.194 105.803 182.189 101.85V40.9106C182.194 36.9574 183.766 33.1675 186.562 30.3722C189.357 27.5769 193.147 26.0045 197.1 26H361.117C365.07 26.0045 368.86 27.5769 371.655 30.3722C374.45 33.1675 376.023 36.9574 376.027 40.9106V101.85C376.023 105.803 374.45 109.593 371.655 112.388C368.86 115.183 365.07 116.756 361.117 116.76Z" fill="white"/>
<path d="M361.117 116.76H197.1C193.147 116.756 189.357 115.183 186.562 112.388C183.766 109.593 182.194 105.803 182.189 101.85V40.9106C182.194 36.9574 183.766 33.1675 186.562 30.3722C189.357 27.5769 193.147 26.0045 197.1 26H361.117C365.07 26.0045 368.86 27.5769 371.655 30.3722C374.45 33.1675 376.023 36.9574 376.027 40.9106V101.85C376.023 105.803 374.45 109.593 371.655 112.388C368.86 115.183 365.07 116.756 361.117 116.76ZM197.1 27.2966C193.491 27.3006 190.03 28.7363 187.478 31.2885C184.926 33.8407 183.49 37.3012 183.486 40.9106V101.85C183.49 105.459 184.926 108.919 187.478 111.472C190.03 114.024 193.491 115.459 197.1 115.464H361.117C364.726 115.459 368.186 114.024 370.739 111.472C373.291 108.919 374.726 105.459 374.731 101.85V40.9106C374.727 37.3012 373.291 33.8407 370.739 31.2885C368.186 28.7363 364.726 27.3006 361.117 27.2966H197.1Z" fill="#3F3D56"/>
<path d="M508.462 125.053H421.222C420.671 125.047 420.123 124.977 419.589 124.846C417.993 124.463 416.573 123.552 415.558 122.261C414.544 120.971 413.995 119.376 414 117.734V88.0814C414.003 86.1417 414.775 84.2825 416.148 82.9116C417.52 81.5407 419.38 80.7701 421.319 80.7688H508.462C509.637 80.7657 510.794 81.0491 511.835 81.5944C512.249 81.8092 512.641 82.0649 513.004 82.3576C513.872 83.0372 514.574 83.9061 515.055 84.8981C515.536 85.89 515.785 86.9788 515.781 88.0814V117.734C515.779 119.675 515.007 121.535 513.635 122.907C512.263 124.279 510.402 125.051 508.462 125.053Z" fill="white"/>
<path d="M502.615 124.406C506.576 114.778 510.749 105.246 515.134 95.8096V111.809C512.144 116.358 508.685 120.58 504.813 124.406H502.615Z" fill="#E6E6E6"/>
<path d="M512.599 82.8631C504.762 96.9244 496.561 110.772 487.997 124.405H486.506C495.212 110.558 503.556 96.4793 511.536 82.1694C511.913 82.3647 512.269 82.5971 512.599 82.8631Z" fill="#E6E6E6"/>
<path d="M455.082 98.2142C449.96 107.27 444.308 116.015 438.156 124.405H429.268C435.089 117.313 440.915 110.22 446.745 103.128C448.418 101.086 450.233 98.9468 452.742 98.1169L455.082 98.2142Z" fill="#E6E6E6"/>
<path d="M443.27 96.7622C442.343 97.7281 441.454 98.733 440.618 99.7767C438.777 101.994 436.962 104.23 435.14 106.461C434.006 107.848 432.871 109.235 431.75 110.623C431.393 110.394 431.055 110.138 430.738 109.858C428.947 108.303 427.836 106.108 427.643 103.744C427.451 101.38 428.191 99.0344 429.707 97.21C431.223 95.3856 433.393 94.2275 435.753 93.9838C438.112 93.7401 440.473 94.4303 442.33 95.9064C442.664 96.1674 442.979 96.4535 443.27 96.7622Z" fill="#645DD1"/>
<path d="M493.402 103.063L476.366 96.8333L467.905 93.741C465.15 92.7361 462.401 91.5887 459.555 90.8626C457.08 90.1552 454.452 90.1891 451.996 90.9598C449.806 91.7703 447.802 93.0139 446.103 94.6162C445.351 95.3098 444.623 96.0251 443.919 96.762C442.992 97.7279 442.104 98.7328 441.267 99.7765C439.426 101.994 437.611 104.23 435.789 106.46C434.655 107.848 433.52 109.235 432.399 110.622C428.652 115.206 424.926 119.8 421.222 124.405C420.724 124.399 420.228 124.336 419.744 124.217C423.608 119.42 427.489 114.633 431.387 109.857C431.835 109.3 432.295 108.736 432.749 108.178C434.648 105.851 436.55 103.526 438.454 101.203C439.925 99.407 441.384 97.5983 442.979 95.9063C443.121 95.7507 443.264 95.6016 443.413 95.446C446.648 92.1008 450.687 89.1446 455.523 89.0668C458.369 89.0214 461.118 89.9226 463.763 90.8755C466.609 91.9063 469.448 92.9566 472.294 94.0003L489.448 100.276L493.74 101.845C494.498 102.117 494.174 103.349 493.402 103.063Z" fill="#E6E6E6"/>
<path d="M508.462 125.053H421.222C420.671 125.047 420.123 124.977 419.589 124.846C417.993 124.463 416.573 123.552 415.558 122.261C414.544 120.971 413.995 119.376 414 117.734V88.0814C414.003 86.1417 414.775 84.2825 416.148 82.9116C417.52 81.5407 419.38 80.7701 421.319 80.7688H508.462C509.637 80.7657 510.794 81.0491 511.835 81.5944C512.249 81.8092 512.641 82.0649 513.004 82.3576C513.872 83.0372 514.574 83.9061 515.055 84.8981C515.536 85.89 515.785 86.9788 515.781 88.0814V117.734C515.779 119.675 515.007 121.535 513.635 122.907C512.263 124.279 510.402 125.051 508.462 125.053ZM421.319 82.0654C419.723 82.0663 418.193 82.7003 417.064 83.8281C415.935 84.9559 415.299 86.4855 415.297 88.0814V117.734C415.293 119.085 415.745 120.398 416.579 121.46C417.414 122.522 418.583 123.272 419.896 123.587C420.333 123.694 420.78 123.751 421.23 123.757H508.462C510.059 123.755 511.589 123.12 512.718 121.991C513.847 120.862 514.483 119.331 514.484 117.734V88.0814C514.487 87.1741 514.283 86.2782 513.886 85.4621C513.49 84.646 512.912 83.9312 512.197 83.3724C511.899 83.1318 511.577 82.9216 511.237 82.745C510.381 82.2962 509.428 82.0629 508.462 82.0654H421.319Z" fill="#3F3D56"/>
<path d="M184.678 184.863H58.9106C54.9574 184.858 51.1674 183.286 48.3721 180.491C45.5768 177.696 44.0044 173.906 44 169.952V147.911C44.0045 143.957 45.5769 140.167 48.3722 137.372C51.1675 134.577 54.9574 133.004 58.9106 133H184.678C188.631 133.004 192.421 134.577 195.217 137.372C198.012 140.167 199.584 143.957 199.589 147.911V169.952C199.584 173.906 198.012 177.696 195.217 180.491C192.421 183.286 188.631 184.858 184.678 184.863Z" fill="white"/>
<path d="M184.678 184.863H58.9106C54.9574 184.858 51.1674 183.286 48.3721 180.491C45.5768 177.696 44.0044 173.906 44 169.952V147.911C44.0045 143.957 45.5769 140.167 48.3722 137.372C51.1675 134.577 54.9574 133.004 58.9106 133H184.678C188.631 133.004 192.421 134.577 195.217 137.372C198.012 140.167 199.584 143.957 199.589 147.911V169.952C199.584 173.906 198.012 177.696 195.217 180.491C192.421 183.286 188.631 184.858 184.678 184.863ZM58.9106 134.297C55.3012 134.301 51.8407 135.736 49.2885 138.288C46.7363 140.841 45.3006 144.301 45.2966 147.911V169.952C45.3007 173.562 46.7363 177.022 49.2886 179.574C51.8408 182.127 55.3012 183.562 58.9106 183.566H184.678C188.288 183.562 191.748 182.127 194.3 179.574C196.852 177.022 198.288 173.562 198.292 169.952V147.911C198.288 144.301 196.853 140.841 194.3 138.288C191.748 135.736 188.288 134.301 184.678 134.297H58.9106Z" fill="#3F3D56"/>
<path d="M95.8364 172.465H75.6174C74.5367 172.464 73.5005 172.034 72.7363 171.27C71.9721 170.506 71.5422 169.47 71.541 168.389V149.474C71.5422 148.394 71.9721 147.357 72.7363 146.593C73.5005 145.829 74.5367 145.399 75.6174 145.398H95.8364C96.9172 145.399 97.9533 145.829 98.7175 146.593C99.4818 147.357 99.9116 148.394 99.9128 149.474V168.389C99.9116 169.47 99.4818 170.506 98.7175 171.27C97.9533 172.034 96.9172 172.464 95.8364 172.465Z" fill="#645DD1"/>
<path d="M131.901 172.465H111.682C110.601 172.464 109.565 172.034 108.801 171.27C108.037 170.506 107.607 169.47 107.605 168.389V149.474C107.607 148.394 108.037 147.357 108.801 146.593C109.565 145.829 110.601 145.399 111.682 145.398H131.901C132.982 145.399 134.018 145.829 134.782 146.593C135.546 147.357 135.976 148.394 135.977 149.474V168.389C135.976 169.47 135.546 170.506 134.782 171.27C134.018 172.034 132.982 172.464 131.901 172.465Z" fill="#E6E6E6"/>
<path d="M167.967 172.465H147.748C146.668 172.464 145.631 172.034 144.867 171.27C144.103 170.506 143.673 169.47 143.672 168.389V149.474C143.673 148.394 144.103 147.357 144.867 146.593C145.631 145.829 146.668 145.399 147.748 145.398H167.967C169.048 145.399 170.084 145.829 170.848 146.593C171.613 147.357 172.042 148.394 172.044 149.474V168.389C172.042 169.47 171.613 170.506 170.848 171.27C170.084 172.034 169.048 172.464 167.967 172.465Z" fill="#E6E6E6"/>
<path d="M287.101 61.9724H261.169C260.482 61.9724 259.822 61.6992 259.336 61.2129C258.849 60.7266 258.576 60.067 258.576 59.3793C258.576 58.6915 258.849 58.032 259.336 57.5456C259.822 57.0593 260.482 56.7861 261.169 56.7861H287.101C287.789 56.7861 288.448 57.0593 288.934 57.5456C289.421 58.032 289.694 58.6915 289.694 59.3793C289.694 60.067 289.421 60.7266 288.934 61.2129C288.448 61.6992 287.789 61.9724 287.101 61.9724Z" fill="#CCCCCC"/>
<path d="M342.855 76.2346H260.523C259.835 76.2346 259.176 75.9614 258.689 75.4751C258.203 74.9888 257.93 74.3292 257.93 73.6415C257.93 72.9537 258.203 72.2942 258.689 71.8079C259.176 71.3215 259.835 71.0483 260.523 71.0483H342.855C343.543 71.0483 344.203 71.3215 344.689 71.8079C345.175 72.2942 345.448 72.9537 345.448 73.6415C345.448 74.3292 345.175 74.9888 344.689 75.4751C344.203 75.9614 343.543 76.2346 342.855 76.2346Z" fill="#CCCCCC"/>
<path d="M230.377 83.8965C239.979 83.8965 247.763 76.1123 247.763 66.5101C247.763 56.9079 239.979 49.1238 230.377 49.1238C220.774 49.1238 212.99 56.9079 212.99 66.5101C212.99 76.1123 220.774 83.8965 230.377 83.8965Z" fill="#645DD1"/>
<path d="M471.927 243.76H307.911C303.957 243.756 300.167 242.183 297.372 239.388C294.577 236.593 293.004 232.803 293 228.85V167.911C293.004 163.957 294.577 160.167 297.372 157.372C300.167 154.577 303.957 153.004 307.911 153H471.927C475.88 153.004 479.67 154.577 482.466 157.372C485.261 160.167 486.833 163.957 486.838 167.911V228.85C486.833 232.803 485.261 236.593 482.466 239.388C479.67 242.183 475.88 243.756 471.927 243.76Z" fill="white"/>
<path d="M471.927 243.76H307.911C303.957 243.756 300.167 242.183 297.372 239.388C294.577 236.593 293.004 232.803 293 228.85V167.911C293.004 163.957 294.577 160.167 297.372 157.372C300.167 154.577 303.957 153.004 307.911 153H471.927C475.88 153.004 479.67 154.577 482.466 157.372C485.261 160.167 486.833 163.957 486.838 167.911V228.85C486.833 232.803 485.261 236.593 482.466 239.388C479.67 242.183 475.88 243.756 471.927 243.76ZM307.911 154.297C304.301 154.301 300.841 155.736 298.288 158.288C295.736 160.841 294.301 164.301 294.297 167.911V228.85C294.301 232.459 295.736 235.919 298.289 238.472C300.841 241.024 304.301 242.459 307.911 242.464H471.927C475.537 242.459 478.997 241.024 481.549 238.472C484.101 235.919 485.537 232.459 485.541 228.85V167.911C485.537 164.301 484.101 160.841 481.549 158.288C478.997 155.736 475.537 154.301 471.927 154.297H307.911Z" fill="#3F3D56"/>
<path d="M371.794 177.144H344.244C343.899 177.144 343.556 177.077 343.236 176.945C342.917 176.813 342.626 176.619 342.381 176.375C342.137 176.13 341.943 175.84 341.81 175.521C341.678 175.201 341.609 174.859 341.609 174.513C341.609 174.167 341.678 173.825 341.81 173.505C341.943 173.186 342.137 172.896 342.381 172.651C342.626 172.407 342.917 172.213 343.236 172.081C343.556 171.949 343.899 171.882 344.244 171.882H371.794C372.491 171.883 373.16 172.161 373.652 172.654C374.145 173.147 374.421 173.816 374.421 174.513C374.421 175.21 374.145 175.879 373.652 176.372C373.16 176.865 372.491 177.143 371.794 177.144Z" fill="#645DD1"/>
<path d="M433.55 187.904H344.242C343.544 187.904 342.875 187.627 342.382 187.134C341.888 186.64 341.611 185.971 341.611 185.273C341.611 184.576 341.888 183.907 342.382 183.413C342.875 182.92 343.544 182.643 344.242 182.643H433.55C434.248 182.643 434.917 182.92 435.411 183.413C435.904 183.907 436.181 184.576 436.181 185.273C436.181 185.971 435.904 186.64 435.411 187.134C434.917 187.627 434.248 187.904 433.55 187.904Z" fill="#E6E6E6"/>
<path d="M433.55 200.256H344.242C343.897 200.256 343.555 200.188 343.235 200.056C342.916 199.923 342.626 199.73 342.382 199.485C342.138 199.241 341.944 198.951 341.812 198.632C341.679 198.313 341.611 197.971 341.611 197.625C341.611 197.28 341.679 196.937 341.812 196.618C341.944 196.299 342.138 196.009 342.382 195.765C342.626 195.52 342.916 195.327 343.235 195.194C343.555 195.062 343.897 194.994 344.242 194.994H433.55C434.248 194.994 434.917 195.271 435.411 195.765C435.904 196.258 436.181 196.927 436.181 197.625C436.181 198.323 435.904 198.992 435.411 199.485C434.917 199.979 434.248 200.256 433.55 200.256Z" fill="#E6E6E6"/>
<path d="M433.552 212.608H344.244C343.899 212.609 343.556 212.541 343.236 212.409C342.917 212.277 342.626 212.083 342.381 211.839C342.137 211.595 341.943 211.304 341.81 210.985C341.678 210.665 341.609 210.323 341.609 209.977C341.609 209.631 341.678 209.289 341.81 208.969C341.943 208.65 342.137 208.36 342.381 208.115C342.626 207.871 342.917 207.677 343.236 207.545C343.556 207.413 343.899 207.346 344.244 207.346H433.552C434.249 207.347 434.918 207.625 435.41 208.118C435.903 208.612 436.179 209.28 436.179 209.977C436.179 210.674 435.903 211.343 435.41 211.836C434.918 212.329 434.249 212.607 433.552 212.608Z" fill="#E6E6E6"/>
<path d="M433.55 224.959H344.242C343.544 224.959 342.875 224.682 342.382 224.189C341.888 223.695 341.611 223.026 341.611 222.328C341.611 221.631 341.888 220.961 342.382 220.468C342.875 219.975 343.544 219.698 344.242 219.698H433.55C434.248 219.698 434.917 219.975 435.411 220.468C435.904 220.961 436.181 221.631 436.181 222.328C436.181 223.026 435.904 223.695 435.411 224.189C434.917 224.682 434.248 224.959 433.55 224.959Z" fill="#E6E6E6"/>
<path d="M254.027 334H78.0264C73.0492 334 69 329.95 69 324.974V231.482C69 226.506 73.0492 222.456 78.0264 222.456H254.027C259.004 222.456 263.053 226.506 263.053 231.482V324.974C263.053 329.95 259.004 334 254.027 334Z" fill="white"/>
<path d="M254.027 334H78.0264C73.0492 334 69 329.95 69 324.974V231.482C69 226.506 73.0492 222.456 78.0264 222.456H254.027C259.004 222.456 263.053 226.506 263.053 231.482V324.974C263.053 329.95 259.004 334 254.027 334ZM78.0264 223.963C73.8805 223.963 70.5073 227.337 70.5073 231.482V324.974C70.5073 329.119 73.8805 332.493 78.0264 332.493H254.027C258.173 332.493 261.546 329.119 261.546 324.974V231.482C261.546 227.337 258.173 223.963 254.027 223.963H78.0264Z" fill="#3F3D56"/>
<path d="M240.443 233.761C241.691 233.761 242.704 232.749 242.704 231.5C242.704 230.252 241.691 229.239 240.443 229.239C239.194 229.239 238.182 230.252 238.182 231.5C238.182 232.749 239.194 233.761 240.443 233.761Z" fill="#3F3D56"/>
<path d="M246.472 233.761C247.721 233.761 248.733 232.749 248.733 231.5C248.733 230.252 247.721 229.239 246.472 229.239C245.223 229.239 244.211 230.252 244.211 231.5C244.211 232.749 245.223 233.761 246.472 233.761Z" fill="#3F3D56"/>
<path d="M252.501 233.761C253.75 233.761 254.762 232.749 254.762 231.5C254.762 230.252 253.75 229.239 252.501 229.239C251.253 229.239 250.24 230.252 250.24 231.5C250.24 232.749 251.253 233.761 252.501 233.761Z" fill="#3F3D56"/>
<path d="M81.8122 268.053C81.1888 268.053 80.6816 268.561 80.6816 269.184C80.6816 269.488 80.799 269.769 81.0121 269.977C81.227 270.197 81.5085 270.314 81.8122 270.314H250.994C251.617 270.314 252.124 269.807 252.124 269.184C252.124 268.88 252.007 268.599 251.794 268.391C251.579 268.171 251.298 268.053 250.994 268.053H81.8122Z" fill="#E6E6E6"/>
<path d="M229.891 267.677V270.691H81.812C81.3975 270.691 81.0207 270.525 80.7494 270.247C80.4705 269.975 80.3047 269.598 80.3047 269.184C80.3047 268.355 80.983 267.677 81.812 267.677H229.891Z" fill="#645DD1"/>
<path d="M249.11 262.024H234.036C232.374 262.024 231.021 260.672 231.021 259.009C231.021 257.347 232.374 255.995 234.036 255.995H249.11C250.772 255.995 252.124 257.347 252.124 259.009C252.124 260.672 250.772 262.024 249.11 262.024Z" fill="#E6E6E6"/>
<path d="M150.38 246.197H82.9444C81.2821 246.197 79.9297 244.845 79.9297 243.182C79.9297 241.52 81.2821 240.167 82.9444 240.167H150.38C152.042 240.167 153.395 241.52 153.395 243.182C153.395 244.845 152.042 246.197 150.38 246.197Z" fill="#E6E6E6"/>
<path d="M81.8122 301.969C81.1888 301.969 80.6816 302.476 80.6816 303.099C80.6816 303.403 80.799 303.684 81.0121 303.892C81.227 304.112 81.5085 304.23 81.8122 304.23H250.994C251.617 304.23 252.124 303.723 252.124 303.099C252.124 302.795 252.007 302.514 251.794 302.307C251.579 302.087 251.298 301.969 250.994 301.969H81.8122Z" fill="#E6E6E6"/>
<path d="M171.858 301.592V304.607H81.812C81.3975 304.607 81.0207 304.441 80.7494 304.162C80.4705 303.89 80.3047 303.514 80.3047 303.099C80.3047 302.27 80.983 301.592 81.812 301.592H171.858Z" fill="#645DD1"/>
<path d="M249.11 295.939H234.036C232.374 295.939 231.021 294.587 231.021 292.925C231.021 291.262 232.374 289.91 234.036 289.91H249.11C250.772 289.91 252.124 291.262 252.124 292.925C252.124 294.587 250.772 295.939 249.11 295.939Z" fill="#E6E6E6"/>
</svg>
