<svg width="350" height="290" viewBox="0 0 350 290" fill="none" xmlns="http://www.w3.org/2000/svg">
<path d="M349.166 18.5277H0.832713C0.698629 18.5277 0.570036 18.4745 0.475224 18.3797C0.380413 18.2848 0.327148 18.1563 0.327148 18.0222C0.327148 17.8881 0.380413 17.7595 0.475224 17.6647C0.570036 17.5699 0.698629 17.5166 0.832713 17.5166H349.166C349.301 17.5166 349.429 17.5699 349.524 17.6647C349.619 17.7595 349.672 17.8881 349.672 18.0222C349.672 18.1563 349.619 18.2848 349.524 18.3797C349.429 18.4745 349.301 18.5277 349.166 18.5277Z" fill="#9A9A9A"/>
<path d="M12.2116 11.4496C15.283 11.4496 17.7728 8.95974 17.7728 5.88836C17.7728 2.81699 15.283 0.327148 12.2116 0.327148C9.14023 0.327148 6.65039 2.81699 6.65039 5.88836C6.65039 8.95974 9.14023 11.4496 12.2116 11.4496Z" fill="white"/>
<path d="M31.4235 11.4496C34.4949 11.4496 36.9847 8.95974 36.9847 5.88836C36.9847 2.81699 34.4949 0.327148 31.4235 0.327148C28.3521 0.327148 25.8623 2.81699 25.8623 5.88836C25.8623 8.95974 28.3521 11.4496 31.4235 11.4496Z" fill="white"/>
<path d="M50.6344 11.4496C53.7058 11.4496 56.1957 8.95974 56.1957 5.88836C56.1957 2.81699 53.7058 0.327148 50.6344 0.327148C47.5631 0.327148 45.0732 2.81699 45.0732 5.88836C45.0732 8.95974 47.5631 11.4496 50.6344 11.4496Z" fill="white"/>
<path d="M219.142 70.0013H130.857C129.754 70.0013 128.696 69.5632 127.916 68.7833C127.136 68.0035 126.698 66.9458 126.698 65.8429C126.698 64.7401 127.136 63.6824 127.916 62.9025C128.696 62.1227 129.754 61.6846 130.857 61.6846H219.142C220.245 61.6846 221.302 62.1227 222.082 62.9025C222.862 63.6824 223.3 64.7401 223.3 65.8429C223.3 66.9458 222.862 68.0035 222.082 68.7833C221.302 69.5632 220.245 70.0013 219.142 70.0013Z" fill="#888888"/>
<path d="M204.908 55.7669H145.091C143.989 55.7657 142.933 55.3271 142.154 54.5474C141.375 53.7676 140.937 52.7106 140.938 51.6086C140.937 50.5065 141.375 49.4495 142.154 48.6698C142.933 47.8901 143.989 47.4514 145.091 47.4502H204.908C206.011 47.4502 207.068 47.8883 207.848 48.6682C208.628 49.448 209.066 50.5057 209.066 51.6086C209.066 52.7114 208.628 53.7691 207.848 54.549C207.068 55.3288 206.011 55.7669 204.908 55.7669Z" fill="#888888"/>
<path d="M62.8818 187.502C83.2645 187.502 99.788 170.978 99.788 150.596C99.788 130.213 83.2645 113.689 62.8818 113.689C42.499 113.689 25.9756 130.213 25.9756 150.596C25.9756 170.978 42.499 187.502 62.8818 187.502Z" fill="white"/>
<path d="M301.508 187.502C321.89 187.502 338.414 170.978 338.414 150.596C338.414 130.213 321.89 113.689 301.508 113.689C281.125 113.689 264.602 130.213 264.602 150.596C264.602 170.978 281.125 187.502 301.508 187.502Z" fill="white"/>
<path d="M175.117 187.502C195.5 187.502 212.023 170.978 212.023 150.596C212.023 130.213 195.5 113.689 175.117 113.689C154.734 113.689 138.211 130.213 138.211 150.596C138.211 170.978 154.734 187.502 175.117 187.502Z" fill="white"/>
<path d="M319.445 166.591C316.537 165.059 313.501 163.781 310.372 162.773L309.973 158.359L293.792 156.616L291.736 162.258L285.929 164.437C285.721 164.515 285.523 164.618 285.339 164.744H285.333C284.382 164.824 283.467 165.141 282.669 165.664C282.128 166.01 281.647 166.441 281.245 166.941C282.031 167.537 282.847 168.089 283.688 168.617L283.725 168.635C283.964 168.783 284.21 168.93 284.455 169.071C284.897 169.335 285.352 169.587 285.806 169.826L286.094 169.974C286.757 170.317 287.433 170.643 288.126 170.943C288.267 171.005 288.421 171.066 288.562 171.128C288.574 171.134 288.58 171.134 288.592 171.14C288.918 171.275 289.243 171.404 289.575 171.527C290.664 171.942 291.774 172.299 292.902 172.595C295.779 173.362 298.745 173.75 301.723 173.749C302.809 173.749 303.884 173.7 304.946 173.595C307.372 173.371 309.768 172.888 312.091 172.153C312.097 172.153 312.103 172.147 312.109 172.147C313.577 171.679 315.011 171.111 316.4 170.446C316.406 170.44 316.418 170.44 316.425 170.434C316.738 170.287 317.038 170.127 317.345 169.974L317.493 169.9C317.738 169.771 317.984 169.642 318.23 169.507C318.843 169.169 319.445 168.813 320.04 168.433C320.206 168.335 320.366 168.23 320.531 168.12C320.764 167.966 320.998 167.807 321.225 167.641C320.654 167.273 320.059 166.923 319.445 166.591Z" fill="#6C63FF"/>
<path d="M301.247 153.825C307.684 153.825 312.901 148.607 312.901 142.171C312.901 135.735 307.684 130.518 301.247 130.518C294.811 130.518 289.594 135.735 289.594 142.171C289.594 148.607 294.811 153.825 301.247 153.825Z" fill="#A0616A"/>
<path d="M293.423 136.496C294.629 137.923 296.671 138.326 298.554 138.491C302.379 138.827 307.941 138.283 311.678 137.42C311.945 140.005 311.218 142.793 312.741 144.92C313.455 142.345 313.87 139.697 313.978 137.027C314.092 135.881 313.942 134.725 313.541 133.646C313.326 133.105 312.964 132.635 312.496 132.29C312.028 131.945 311.472 131.738 310.892 131.693C311.76 131.034 312.777 130.6 313.853 130.427L310.153 128.567L311.103 127.592L304.404 127.182L306.344 125.949C303.424 125.548 300.469 125.455 297.529 125.671C296.164 125.772 294.737 125.964 293.631 126.755C292.525 127.546 291.886 129.118 292.572 130.279C291.713 130.42 290.903 130.779 290.221 131.32C289.538 131.862 289.005 132.568 288.672 133.373C288.252 134.653 288.15 136.016 288.376 137.344C288.629 139.475 289.124 141.57 289.852 143.588L293.423 136.496Z" fill="#2F2E41"/>
<path d="M177.164 130.614C179.885 130.614 182.091 128.407 182.091 125.686C182.091 122.965 179.885 120.759 177.164 120.759C174.442 120.759 172.236 122.965 172.236 125.686C172.236 128.407 174.442 130.614 177.164 130.614Z" fill="#2F2E41"/>
<path d="M172.89 128.249C172.267 127.667 171.805 126.933 171.551 126.119C171.297 125.305 171.258 124.439 171.438 123.605C171.619 122.772 172.013 121.999 172.581 121.364C173.15 120.728 173.873 120.251 174.682 119.979C174.005 120.077 173.356 120.316 172.776 120.68C172.197 121.043 171.699 121.524 171.315 122.09C170.932 122.657 170.67 123.297 170.548 123.97C170.425 124.643 170.444 125.334 170.603 126C170.762 126.665 171.058 127.29 171.473 127.834C171.887 128.379 172.41 128.831 173.008 129.163C173.607 129.494 174.268 129.697 174.949 129.759C175.631 129.821 176.317 129.74 176.966 129.522C176.234 129.63 175.488 129.571 174.782 129.351C174.076 129.131 173.429 128.754 172.889 128.249L172.89 128.249Z" fill="#2F2E41"/>
<path d="M177.264 157.259C185.258 157.259 191.738 150.778 191.738 142.784C191.738 134.79 185.258 128.31 177.264 128.31C169.27 128.31 162.789 134.79 162.789 142.784C162.789 150.778 169.27 157.259 177.264 157.259Z" fill="#2F2E41"/>
<path d="M164.387 134.814C166.881 132.009 170.368 130.283 174.11 130C177.853 129.717 181.559 130.899 184.447 133.296C184.329 133.184 184.211 133.07 184.089 132.961C181.23 130.4 177.47 129.079 173.637 129.289C169.804 129.5 166.211 131.225 163.65 134.084C161.088 136.943 159.767 140.703 159.978 144.536C160.188 148.369 161.913 151.962 164.772 154.523C164.8 154.548 164.827 154.572 164.855 154.597C164.978 154.706 165.104 154.809 165.23 154.914C162.51 152.327 160.903 148.784 160.745 145.034C160.588 141.284 161.894 137.62 164.388 134.814H164.387Z" fill="#2F2E41"/>
<path d="M177.141 157.135C182.289 157.135 186.463 152.961 186.463 147.813C186.463 142.664 182.289 138.49 177.141 138.49C171.992 138.49 167.818 142.664 167.818 147.813C167.818 152.961 171.992 157.135 177.141 157.135Z" fill="#A0616A"/>
<path d="M193.823 172.103V175.231C193.25 175.597 192.672 175.939 192.082 176.264C191.846 176.394 191.61 176.517 191.374 176.641L191.232 176.712C190.937 176.86 190.648 177.013 190.347 177.155C190.341 177.161 190.329 177.161 190.323 177.167C188.987 177.806 187.609 178.352 186.198 178.801C186.192 178.801 186.186 178.807 186.18 178.807C183.946 179.514 181.643 179.979 179.31 180.194C178.289 180.295 177.257 180.342 176.212 180.342C173.349 180.343 170.498 179.97 167.732 179.232C166.32 178.861 164.936 178.394 163.588 177.834C163.577 177.828 163.571 177.828 163.559 177.822C163.423 177.763 163.276 177.704 163.14 177.645C162.473 177.355 161.824 177.043 161.186 176.712L160.909 176.571C160.23 176.211 159.563 175.833 158.908 175.426L158.873 175.408C157.864 174.779 156.891 174.096 155.957 173.36C155.479 172.994 155.019 172.611 154.57 172.209C154.334 172.009 154.098 171.796 153.874 171.59C153.012 170.793 152.194 169.95 151.425 169.064C151.527 168.449 151.677 167.843 151.873 167.252L151.879 167.246C151.915 167.145 151.956 167.047 152.003 166.951C152.036 166.866 152.073 166.783 152.115 166.703C153.172 164.726 155.084 164.236 157.456 164.13C158.796 164.071 160.277 164.136 161.842 164.118C162.668 164.112 163.523 164.083 164.379 164.006C169.779 163.516 168.8 160.329 169.042 158.612C169.284 156.947 170.783 158.387 170.883 158.482L170.889 158.488C173.945 159.918 177.326 160.51 180.686 160.205C181.264 160.134 181.842 160.093 182.421 160.075C183.943 160.058 183.613 160.494 183.088 160.854C182.833 161.022 182.567 161.172 182.291 161.303C182.291 161.303 182.049 162.778 181.801 164.985C181.565 167.098 189.007 167.83 190.465 168.29H190.471C191.303 168.596 192.045 169.105 192.631 169.771C193.216 170.437 193.626 171.239 193.823 172.103V172.103Z" fill="#6C63FF"/>
<path d="M167.696 147.2C168.102 147.2 168.432 146.596 168.432 145.851C168.432 145.106 168.102 144.502 167.696 144.502C167.289 144.502 166.96 145.106 166.96 145.851C166.96 146.596 167.289 147.2 167.696 147.2Z" fill="#A0616A"/>
<path d="M186.587 147.2C186.993 147.2 187.322 146.596 187.322 145.851C187.322 145.106 186.993 144.502 186.587 144.502C186.18 144.502 185.851 145.106 185.851 145.851C185.851 146.596 186.18 147.2 186.587 147.2Z" fill="#A0616A"/>
<path d="M51.0743 153.179L52.8453 159.314L75.4774 158.915L75.2791 147.674C75.1221 138.777 68.834 131.103 59.9368 131.26C51.0396 131.417 45.3824 138.939 45.5393 147.836L46.8318 159.42L50.5218 159.355L51.0743 153.179Z" fill="#2F2E41"/>
<path d="M60.9484 157.47C66.5565 157.47 71.1028 152.924 71.1028 147.316C71.1028 141.707 66.5565 137.161 60.9484 137.161C55.3402 137.161 50.7939 141.707 50.7939 147.316C50.7939 152.924 55.3402 157.47 60.9484 157.47Z" fill="#FFB6B6"/>
<path d="M72.0639 140.185C72.0504 139.407 71.8071 138.651 71.3645 138.012C71.3177 137.946 71.2708 137.885 71.2238 137.824C70.8475 137.344 70.3654 136.957 69.815 136.694C69.2645 136.431 68.6608 136.299 68.0508 136.308L60.7524 136.439L53.4586 136.566C52.4137 136.587 51.4196 137.021 50.6939 137.773C49.9682 138.525 49.57 139.534 49.5864 140.579L51.3231 144.076L52.3228 146.085L52.4871 145.991C58.7998 142.443 61.3813 142.396 69.736 145.695L69.9049 145.761L70.5667 144.067L72.0685 140.222L72.0639 140.185Z" fill="#2F2E41"/>
<path d="M81.1603 163.151C78.9822 160.978 71.6134 161.841 71.6134 161.841L52.1636 163.066C47.8499 163.385 43.9636 166.84 42.5557 168.239C42.7807 168.459 43.0109 168.675 43.2459 168.882C47.5682 172.723 53.0014 175.089 58.7582 175.636C64.5151 176.182 70.2965 174.882 75.2648 171.923C77.3488 170.679 80.0152 169.188 81.6861 167.447C82.348 166.761 82.8776 166.775 83.4643 166.024C83.0251 164.844 82.2172 163.836 81.1603 163.151V163.151Z" fill="#6C63FF"/>
<path d="M62.8818 289.12C83.2645 289.12 99.788 272.597 99.788 252.214C99.788 231.831 83.2645 215.308 62.8818 215.308C42.499 215.308 25.9756 231.831 25.9756 252.214C25.9756 272.597 42.499 289.12 62.8818 289.12Z" fill="white"/>
<path d="M301.508 289.12C321.89 289.12 338.414 272.597 338.414 252.214C338.414 231.831 321.89 215.308 301.508 215.308C281.125 215.308 264.602 231.831 264.602 252.214C264.602 272.597 281.125 289.12 301.508 289.12Z" fill="white"/>
<path d="M175.117 289.12C195.5 289.12 212.023 272.597 212.023 252.214C212.023 231.831 195.5 215.308 175.117 215.308C154.734 215.308 138.211 231.831 138.211 252.214C138.211 272.597 154.734 289.12 175.117 289.12Z" fill="white"/>
<path d="M62.2772 257.508C67.9122 257.508 72.4802 252.94 72.4802 247.305C72.4802 241.67 67.9122 237.102 62.2772 237.102C56.6423 237.102 52.0742 241.67 52.0742 247.305C52.0742 252.94 56.6423 257.508 62.2772 257.508Z" fill="#FFB8B8"/>
<path d="M52.6247 250.497C52.6247 250.497 53.4916 248.975 53.2901 243.889C53.0885 238.803 60.8329 241.679 67.3042 241.194C73.7754 240.709 72.4056 249.685 72.4056 249.685C72.4056 249.685 72.8725 249.152 73.872 244.819C74.8716 240.487 72.602 236.17 72.602 236.17C71.9336 231.618 68.3314 233.077 68.3314 233.077C70.0662 233.752 69.733 235.196 69.733 235.196C68.2646 232.622 64.6623 234.081 64.6623 234.081C59.858 231.066 54.9889 235.036 54.9889 235.036C49.185 236.353 52.5887 240.969 52.5887 240.969C46.752 243.919 52.6247 250.497 52.6247 250.497Z" fill="#2F2E41"/>
<path d="M79.3025 271.25C76.3942 269.718 73.3586 268.44 70.2296 267.432L69.8303 263.019L53.6494 261.275L51.593 266.917L45.7861 269.096C45.5782 269.175 45.3803 269.278 45.1965 269.403H45.1903C44.2396 269.483 43.324 269.8 42.5265 270.323C41.9855 270.669 41.5045 271.1 41.1025 271.6C41.8882 272.196 42.7042 272.748 43.5453 273.276L43.5823 273.295C43.8218 273.442 44.0674 273.589 44.3126 273.73C44.7548 273.994 45.209 274.246 45.6633 274.485L45.9518 274.633C46.6147 274.976 47.29 275.302 47.9837 275.603C48.1248 275.664 48.2785 275.725 48.4196 275.787C48.4316 275.793 48.4379 275.793 48.4499 275.799C48.7756 275.934 49.1007 276.063 49.4321 276.186C50.521 276.602 51.6317 276.958 52.7592 277.254C55.6368 278.021 58.6022 278.409 61.5802 278.408C62.6669 278.408 63.7411 278.359 64.8032 278.254C67.2297 278.03 69.6251 277.547 71.9483 276.812C71.9541 276.812 71.9608 276.806 71.9666 276.806C73.4343 276.338 74.868 275.77 76.2576 275.105C76.2634 275.099 76.2759 275.099 76.2822 275.093C76.5953 274.946 76.8959 274.786 77.2027 274.633L77.3501 274.559C77.5958 274.43 77.8415 274.301 78.0871 274.166C78.7008 273.829 79.3025 273.473 79.8974 273.092C80.0631 272.994 80.223 272.889 80.3887 272.779C80.6218 272.625 80.855 272.466 81.0823 272.3C80.5115 271.932 79.9162 271.582 79.3025 271.25Z" fill="#6C63FF"/>
<path d="M189.15 269.093L183.007 268.534L179.331 265.85C179.332 265.845 179.33 265.84 179.327 265.836L179.317 265.84L179.17 265.731L179.151 265.902L172.948 268.288L166.573 266.818L164.368 269.203L154.546 272.461C154.073 272.776 153.658 273.169 153.317 273.623L153.318 273.63C153.73 273.952 154.154 274.27 154.584 274.572C155.557 275.275 156.569 275.925 157.614 276.516C160.158 277.967 162.877 279.084 165.705 279.841C165.962 279.912 166.218 279.979 166.474 280.04C166.92 280.149 167.37 280.254 167.821 280.339C168.731 280.529 169.653 280.677 170.586 280.785C171.956 280.951 173.336 281.034 174.717 281.032C175.661 281.032 176.595 280.995 177.52 280.922C179.144 280.792 180.758 280.546 182.348 280.187C182.405 280.173 182.462 280.164 182.518 280.145C184.954 279.586 187.32 278.763 189.576 277.688C189.922 277.522 190.268 277.351 190.609 277.176C191.449 276.744 192.265 276.279 193.057 275.781C193.654 275.411 194.238 275.018 194.807 274.61C195.158 274.358 195.504 274.102 195.845 273.837L195.809 273.758C195.202 272.467 194.269 271.357 193.101 270.539C191.932 269.72 190.57 269.222 189.15 269.093Z" fill="#6C63FF"/>
<path d="M183.282 238.437C182.565 237.727 181.756 237.116 180.877 236.621C175.447 233.623 169.514 233.571 164.6 236.474C163.378 237.193 162.263 238.079 161.285 239.106C158.528 241.983 156.984 245.811 156.974 249.796V261.615H187.887V248.587C187.887 245.096 185.966 241.055 183.282 238.437Z" fill="#2F2E41"/>
<path d="M171.819 261.292C177.985 261.292 182.984 256.293 182.984 250.127C182.984 243.961 177.985 238.962 171.819 238.962C165.653 238.962 160.654 243.961 160.654 250.127C160.654 256.293 165.653 261.292 171.819 261.292Z" fill="#FFB8B8"/>
<path d="M183.272 239.992C183.249 239.754 183.165 239.526 183.028 239.331C182.891 239.136 182.706 238.979 182.49 238.877C175.504 235.614 168.418 235.699 161.441 239.133H161.314L161.271 239.309C159.895 249.904 160.09 250.136 160.175 250.231C160.31 250.384 160.477 250.506 160.664 250.587C160.836 250.663 161.021 250.701 161.209 250.701H177.135L177.173 250.52C177.358 249.572 177.596 248.635 177.885 247.713C178.519 248.639 179.104 249.598 179.635 250.587L179.701 250.701H182.798C182.857 250.701 182.916 250.696 182.974 250.686C183.293 250.648 183.588 250.495 183.804 250.255C183.889 250.165 184.088 249.947 183.272 239.992Z" fill="#2F2E41"/>
<path d="M309.857 267.66L309.455 263.194L293.064 261.429L290.989 267.142L285.104 269.347C284.891 269.426 284.688 269.53 284.499 269.656C283.324 269.763 282.207 270.217 281.291 270.96C281.425 271.071 281.559 271.177 281.693 271.283C281.721 271.311 281.753 271.334 281.781 271.357C282.155 271.649 282.539 271.935 282.927 272.208C283.029 272.282 283.131 272.356 283.237 272.425C284.089 273.029 284.972 273.589 285.881 274.103C286.75 274.598 287.642 275.054 288.557 275.471C290.238 276.24 291.981 276.866 293.767 277.343C294.016 277.413 294.266 277.477 294.516 277.537C294.95 277.644 295.389 277.745 295.828 277.829C296.716 278.014 297.614 278.158 298.523 278.263C299.859 278.425 301.203 278.505 302.549 278.503C303.469 278.503 304.38 278.468 305.281 278.397C306.864 278.27 308.437 278.03 309.986 277.681C310.042 277.667 310.097 277.658 310.153 277.639C312.526 277.095 314.833 276.292 317.031 275.245C317.368 275.083 317.706 274.917 318.038 274.746C318.857 274.325 319.652 273.872 320.423 273.387C320.701 273.216 320.974 273.04 321.246 272.855C317.054 270.035 310.966 268.015 309.857 267.66Z" fill="#6C63FF"/>
<path d="M300.618 258.601C307.137 258.601 312.421 253.317 312.421 246.798C312.421 240.28 307.137 234.995 300.618 234.995C294.1 234.995 288.815 240.28 288.815 246.798C288.815 253.317 294.1 258.601 300.618 258.601Z" fill="#A0616A"/>
<path d="M292.696 241.047C293.918 242.493 295.985 242.901 297.893 243.067C301.767 243.407 307.399 242.856 311.185 241.982C311.457 244.601 310.719 247.424 312.261 249.579C312.984 246.971 313.404 244.288 313.514 241.584C313.629 240.424 313.477 239.252 313.071 238.16C312.854 237.612 312.487 237.136 312.013 236.787C311.539 236.437 310.976 236.228 310.388 236.182C310.518 236.048 310.607 235.881 310.646 235.698C310.684 235.516 310.67 235.327 310.605 235.152C310.462 234.536 310.148 233.973 309.699 233.528C309.25 233.083 308.684 232.774 308.067 232.638L303.818 231.614C303.818 231.614 299.831 229.865 296.852 230.085C295.469 230.186 294.024 230.381 292.904 231.182C291.783 231.983 291.136 233.575 291.832 234.751C290.961 234.894 290.141 235.257 289.45 235.806C288.759 236.354 288.219 237.07 287.882 237.886C287.456 239.182 287.353 240.562 287.582 241.907C287.838 244.065 288.339 246.187 289.077 248.231L292.696 241.047Z" fill="#2F2E41"/>
<path d="M187.212 140.679C186.854 139.532 186.055 138.574 184.992 138.015C183.936 137.467 182.809 137.071 181.643 136.838C179.605 136.251 177.493 135.962 175.372 135.979C173.257 136.083 171.094 136.813 169.657 138.369C168.22 139.924 167.688 142.394 168.734 144.235L168.619 144.711C170.296 144.91 171.996 144.619 173.512 143.872C175.028 143.126 176.295 141.956 177.159 140.504C177.952 141.757 179.079 142.764 180.413 143.412C181.747 144.06 183.235 144.323 184.71 144.173C185.181 144.135 185.639 144.003 186.058 143.785C186.555 143.457 186.935 142.979 187.142 142.42C187.35 141.862 187.374 141.252 187.212 140.679V140.679Z" fill="#2F2E41"/>
<path d="M337.656 3.72929H324.005C323.737 3.72929 323.48 3.62276 323.29 3.43314C323.101 3.24352 322.994 2.98633 322.994 2.71816C322.994 2.44999 323.101 2.19281 323.29 2.00318C323.48 1.81356 323.737 1.70703 324.005 1.70703H337.656C337.924 1.70703 338.181 1.81356 338.37 2.00318C338.56 2.19281 338.667 2.44999 338.667 2.71816C338.667 2.98633 338.56 3.24352 338.37 3.43314C338.181 3.62276 337.924 3.72929 337.656 3.72929Z" fill="white"/>
<path d="M337.656 7.52031H324.005C323.737 7.52031 323.48 7.41378 323.29 7.22415C323.101 7.03453 322.994 6.77735 322.994 6.50918C322.994 6.24101 323.101 5.98382 323.29 5.7942C323.48 5.60458 323.737 5.49805 324.005 5.49805H337.656C337.924 5.49805 338.181 5.60458 338.37 5.7942C338.56 5.98382 338.667 6.24101 338.667 6.50918C338.667 6.77735 338.56 7.03453 338.37 7.22415C338.181 7.41378 337.924 7.52031 337.656 7.52031Z" fill="white"/>
<path d="M337.656 11.3123H324.005C323.737 11.3123 323.48 11.2058 323.29 11.0161C323.101 10.8265 322.994 10.5693 322.994 10.3012C322.994 10.033 323.101 9.77581 323.29 9.58619C323.48 9.39657 323.737 9.29004 324.005 9.29004H337.656C337.924 9.29004 338.181 9.39657 338.37 9.58619C338.56 9.77581 338.667 10.033 338.667 10.3012C338.667 10.5693 338.56 10.8265 338.37 11.0161C338.181 11.2058 337.924 11.3123 337.656 11.3123Z" fill="white"/>
</svg>
