<svg width="178" height="200" viewBox="0 0 178 200" fill="none" xmlns="http://www.w3.org/2000/svg">
<path d="M89.0009 183.546C131.555 183.546 166.053 149.049 166.053 106.494C166.053 63.9396 131.555 29.4424 89.0009 29.4424C46.4464 29.4424 11.9492 63.9396 11.9492 106.494C11.9492 149.049 46.4464 183.546 89.0009 183.546Z" fill="#E8E8E8"/>
<path d="M159.575 23.5975H18.4271C18.1244 23.5911 17.8843 23.3405 17.8908 23.0378C17.897 22.7442 18.1335 22.5077 18.4271 22.5015H159.575C159.878 22.5079 160.118 22.7585 160.111 23.0612C160.105 23.3548 159.869 23.5913 159.575 23.5975Z" fill="#CACACA"/>
<path d="M111.474 59.4219H72.455C69.5243 59.4219 67.1484 61.7977 67.1484 64.7285V64.7285C67.1484 67.6593 69.5243 70.0351 72.455 70.0351H111.474C114.405 70.0351 116.78 67.6593 116.78 64.7285C116.78 61.7977 114.405 59.4219 111.474 59.4219Z" fill="#7D7D7D"/>
<path d="M47.248 80.6484H136.68C139.61 80.6484 141.986 83.0243 141.986 85.9551C141.986 88.8858 139.61 91.2617 136.68 91.2617H47.248C44.3173 91.2617 41.9414 88.8858 41.9414 85.9551C41.9414 83.0243 44.3173 80.6484 47.248 80.6484Z" fill="#7D7D7D"/>
<path d="M47.248 101.875H136.68C139.61 101.875 141.986 104.251 141.986 107.182C141.986 110.112 139.61 112.488 136.68 112.488H47.248C44.3173 112.488 41.9414 110.112 41.9414 107.182C41.9414 104.251 44.3173 101.875 47.248 101.875Z" fill="#7D7D7D"/>
<path d="M36.1651 188.673L35.9546 188.652C28.8134 187.915 22.3579 184.075 18.3029 178.151C17.1923 176.5 16.2938 174.716 15.6289 172.841L15.565 172.662L15.7542 172.646C18.0133 172.465 20.334 172.081 21.365 171.899L14.7171 169.646L14.676 169.449C14.2818 167.598 15.054 165.692 16.6261 164.637C18.2024 163.532 20.2928 163.497 21.9056 164.548C22.6294 165.01 23.3865 165.468 24.1186 165.911C26.6343 167.433 29.2358 169.007 31.1862 171.16C34.1437 174.49 35.4401 178.977 34.7142 183.371L36.1651 188.673Z" fill="#F2F2F2"/>
<path d="M59.2939 72.1348C59.2328 72.1368 59.1716 72.1381 59.1104 72.1398C59.0843 72.2077 59.056 72.275 59.0234 72.3411L59.2939 72.1348V72.1348Z" fill="#4E4E4E"/>
<path d="M61.3711 64.7656C61.383 64.8403 61.4012 64.9138 61.4254 64.9854C61.4154 64.9104 61.3972 64.8367 61.3711 64.7656Z" fill="#4E4E4E"/>
<path d="M107.419 145.394C108.125 136.858 101.779 129.366 93.2432 128.66C84.7078 127.954 77.2159 134.3 76.5095 142.835C75.8031 151.371 82.1497 158.863 90.6851 159.569C99.2204 160.276 106.712 153.929 107.419 145.394Z" fill="white"/>
<path d="M96.0373 137.653L91.9638 141.726L87.8903 137.653C87.2309 136.993 86.1618 136.993 85.5024 137.653C84.843 138.312 84.843 139.381 85.5024 140.041L89.5759 144.114L85.5024 148.188C84.8436 148.848 84.8446 149.917 85.5046 150.576C86.1637 151.234 87.2311 151.234 87.8903 150.576L91.9638 146.502L96.0373 150.576C96.6973 151.234 97.7664 151.233 98.4252 150.573C99.0832 149.914 99.0832 148.847 98.4252 148.188L94.3517 144.114L98.4252 140.041C99.0846 139.381 99.0846 138.312 98.4252 137.653C97.7658 136.993 96.6967 136.993 96.0373 137.653Z" fill="#7D7D7D"/>
<path d="M25.5888 16.6557C27.0056 16.6557 28.1541 15.4815 28.1541 14.0332C28.1541 12.5848 27.0056 11.4106 25.5888 11.4106C24.172 11.4106 23.0234 12.5848 23.0234 14.0332C23.0234 15.4815 24.172 16.6557 25.5888 16.6557Z" fill="#7D7D7D"/>
<path d="M34.4521 16.6557C35.8689 16.6557 37.0174 15.4815 37.0174 14.0332C37.0174 12.5848 35.8689 11.4106 34.4521 11.4106C33.0353 11.4106 31.8867 12.5848 31.8867 14.0332C31.8867 15.4815 33.0353 16.6557 34.4521 16.6557Z" fill="#7D7D7D"/>
<path d="M43.3114 16.6557C44.7282 16.6557 45.8768 15.4815 45.8768 14.0332C45.8768 12.5848 44.7282 11.4106 43.3114 11.4106C41.8946 11.4106 40.7461 12.5848 40.7461 14.0332C40.7461 15.4815 41.8946 16.6557 43.3114 16.6557Z" fill="#7D7D7D"/>
<path d="M53.4172 16.1058C53.3383 16.1058 53.2597 16.0753 53.2003 16.0145L51.4694 14.2451C51.354 14.1272 51.354 13.9388 51.4694 13.8209L53.2003 12.0515C53.3178 11.9319 53.51 11.9299 53.6293 12.0468C53.7491 12.164 53.7512 12.3561 53.634 12.4758L52.1106 14.033L53.634 15.5903C53.7512 15.71 53.7491 15.9021 53.6293 16.0193C53.5703 16.077 53.4937 16.1058 53.4172 16.1058Z" fill="#7D7D7D"/>
<path d="M56.3268 16.106C56.2502 16.106 56.1737 16.0773 56.1147 16.0195C55.9949 15.9023 55.9928 15.7104 56.11 15.5905L57.6332 14.0332L56.11 12.476C55.9928 12.3563 55.9949 12.1642 56.1147 12.047C56.2342 11.9297 56.4265 11.9319 56.5437 12.0518L58.2745 13.8211C58.3898 13.939 58.3898 14.1274 58.2745 14.2453L56.5437 16.0148C56.4843 16.0755 56.4056 16.106 56.3268 16.106Z" fill="#7D7D7D"/>
<path d="M146.879 11.7144H143.66C143.293 11.7144 142.996 12.0116 142.996 12.3787V15.6003C142.996 15.9674 143.293 16.2647 143.66 16.2647H146.879C147.246 16.2647 147.546 15.9674 147.546 15.6003V12.3787C147.546 12.0116 147.246 11.7144 146.879 11.7144Z" fill="#7D7D7D"/>
<path d="M138.992 11.7144H135.774C135.407 11.7144 135.109 12.0116 135.109 12.3787V15.6003C135.109 15.9674 135.407 16.2647 135.774 16.2647H138.992C139.359 16.2647 139.66 15.9674 139.66 15.6003V12.3787C139.66 12.0116 139.359 11.7144 138.992 11.7144Z" fill="#7D7D7D"/>
<path d="M154.313 11.8657H151.094C150.727 11.8657 150.43 12.163 150.43 12.5301V15.7517C150.43 16.1187 150.727 16.416 151.094 16.416H154.313C154.68 16.416 154.98 16.1187 154.98 15.7517V12.5301C154.98 12.163 154.68 11.8657 154.313 11.8657Z" fill="#7D7D7D"/>
<path d="M105.799 13.0913H80.0717C79.6227 13.0913 79.2617 13.4553 79.2617 13.9013C79.2617 14.3472 79.6227 14.7112 80.0717 14.7112H105.799C106.245 14.7112 106.609 14.3472 106.609 13.9013C106.609 13.4554 106.245 13.0913 105.799 13.0913Z" fill="#7D7D7D"/>
</svg>
