<svg width="178" height="200" viewBox="0 0 178 200" fill="none" xmlns="http://www.w3.org/2000/svg">
<path d="M88.9989 183.504C131.553 183.504 166.051 149.007 166.051 106.452C166.051 63.8976 131.553 29.4004 88.9989 29.4004C46.4445 29.4004 11.9473 63.8976 11.9473 106.452C11.9473 149.007 46.4445 183.504 88.9989 183.504Z" fill="#F2F2F2"/>
<path d="M159.573 23.555H18.4251C18.1225 23.5486 17.8823 23.298 17.8888 22.9953C17.8951 22.7017 18.1316 22.4653 18.4251 22.459H159.573C159.876 22.4655 160.116 22.7161 160.109 23.0187C160.103 23.3123 159.867 23.5488 159.573 23.555Z" fill="#CACACA"/>
<path d="M111.472 59.3789H72.4531C69.5223 59.3789 67.1465 61.7548 67.1465 64.6855V64.6855C67.1465 67.6163 69.5223 69.9921 72.4531 69.9921H111.472C114.403 69.9921 116.779 67.6163 116.779 64.6855C116.779 61.7548 114.403 59.3789 111.472 59.3789Z" fill="white"/>
<path d="M47.2461 80.6055H136.678C139.608 80.6055 141.984 82.9813 141.984 85.9121C141.984 88.8428 139.608 91.2187 136.678 91.2187H47.2461C44.3153 91.2187 41.9395 88.8428 41.9395 85.9121C41.9395 82.9813 44.3153 80.6055 47.2461 80.6055Z" fill="white"/>
<path d="M47.2461 101.832H136.678C139.608 101.832 141.984 104.208 141.984 107.139C141.984 110.069 139.608 112.445 136.678 112.445H47.2461C44.3153 112.445 41.9395 110.069 41.9395 107.139C41.9395 104.208 44.3153 101.832 47.2461 101.832Z" fill="white"/>
<path d="M36.1631 188.632L35.9526 188.611C28.8115 187.874 22.3559 184.034 18.301 178.11C17.1903 176.459 16.2919 174.675 15.6269 172.8L15.563 172.621L15.7522 172.605C18.0113 172.424 20.3321 172.04 21.363 171.858L14.7151 169.605L14.674 169.408C14.2799 167.556 15.052 165.651 16.6241 164.596C18.2005 163.491 20.2908 163.456 21.9037 164.507C22.6275 164.969 23.3845 165.427 24.1166 165.87C26.6324 167.392 29.2338 168.966 31.1842 171.119C34.1418 174.449 35.4381 178.936 34.7122 183.33L36.1631 188.632Z" fill="#F2F2F2"/>
<path d="M59.292 72.0918C59.2309 72.0938 59.1696 72.0952 59.1085 72.0968C59.0823 72.1647 59.0541 72.2321 59.0215 72.2981L59.292 72.0918V72.0918Z" fill="#2F2E41"/>
<path d="M61.3691 64.7227C61.381 64.7973 61.3992 64.8708 61.4235 64.9424C61.4135 64.8674 61.3952 64.7937 61.3691 64.7227Z" fill="#2F2E41"/>
<path d="M107.417 145.351C108.123 136.815 101.777 129.323 93.2412 128.617C84.7059 127.911 77.214 134.257 76.5076 142.792C75.8012 151.328 82.1478 158.82 90.6831 159.526C99.2184 160.233 106.71 153.886 107.417 145.351Z" fill="#090909"/>
<path d="M96.0354 137.61L91.9618 141.683L87.8883 137.61C87.2289 136.95 86.1598 136.95 85.5004 137.61C84.841 138.269 84.841 139.338 85.5004 139.998L89.5739 144.071L85.5004 148.145C84.8416 148.805 84.8426 149.874 85.5027 150.533C86.1618 151.191 87.2292 151.191 87.8883 150.533L91.9618 146.459L96.0354 150.533C96.6954 151.191 97.7645 151.19 98.4233 150.53C99.0812 149.871 99.0812 148.804 98.4233 148.145L94.3498 144.071L98.4233 139.998C99.0827 139.338 99.0827 138.269 98.4233 137.61C97.7639 136.95 96.6948 136.95 96.0354 137.61Z" fill="white"/>
<path d="M25.5868 16.6142C27.0036 16.6142 28.1522 15.44 28.1522 13.9916C28.1522 12.5433 27.0036 11.3691 25.5868 11.3691C24.17 11.3691 23.0215 12.5433 23.0215 13.9916C23.0215 15.44 24.17 16.6142 25.5868 16.6142Z" fill="#3F3D56"/>
<path d="M34.4482 16.6142C35.8649 16.6142 37.0135 15.44 37.0135 13.9916C37.0135 12.5433 35.8649 11.3691 34.4482 11.3691C33.0314 11.3691 31.8828 12.5433 31.8828 13.9916C31.8828 15.44 33.0314 16.6142 34.4482 16.6142Z" fill="#3F3D56"/>
<path d="M43.3114 16.6142C44.7282 16.6142 45.8768 15.44 45.8768 13.9916C45.8768 12.5433 44.7282 11.3691 43.3114 11.3691C41.8946 11.3691 40.7461 12.5433 40.7461 13.9916C40.7461 15.44 41.8946 16.6142 43.3114 16.6142Z" fill="#3F3D56"/>
<path d="M53.4152 16.0643C53.3364 16.0643 53.2577 16.0338 53.1983 15.973L51.4674 14.2036C51.352 14.0857 51.352 13.8973 51.4674 13.7794L53.1983 12.01C53.3158 11.8904 53.5081 11.8884 53.6273 12.0053C53.7471 12.1225 53.7492 12.3146 53.632 12.4343L52.1086 13.9915L53.632 15.5488C53.7492 15.6685 53.7471 15.8606 53.6273 15.9778C53.5684 16.0355 53.4918 16.0643 53.4152 16.0643Z" fill="#3F3D56"/>
<path d="M56.3249 16.0645C56.2483 16.0645 56.1717 16.0358 56.1127 15.978C55.9929 15.8608 55.9908 15.6689 56.108 15.549L57.6313 13.9917L56.108 12.4345C55.9908 12.3148 55.9929 12.1227 56.1127 12.0055C56.2323 11.8882 56.4245 11.8904 56.5417 12.0103L58.2725 13.7796C58.3879 13.8975 58.3879 14.0859 58.2725 14.2038L56.5417 15.9733C56.4823 16.034 56.4037 16.0645 56.3249 16.0645Z" fill="#3F3D56"/>
<path d="M146.879 11.6729H143.66C143.293 11.6729 142.996 11.9701 142.996 12.3372V15.5588C142.996 15.9259 143.293 16.2231 143.66 16.2231H146.879C147.246 16.2231 147.546 15.9259 147.546 15.5588V12.3372C147.546 11.9701 147.246 11.6729 146.879 11.6729Z" fill="#3F3D56"/>
<path d="M138.992 11.6729H135.774C135.407 11.6729 135.109 11.9701 135.109 12.3372V15.5588C135.109 15.9259 135.407 16.2231 135.774 16.2231H138.992C139.359 16.2231 139.66 15.9259 139.66 15.5588V12.3372C139.66 11.9701 139.359 11.6729 138.992 11.6729Z" fill="#3F3D56"/>
<path d="M154.311 11.8242H151.092C150.725 11.8242 150.428 12.1215 150.428 12.4886V15.7102C150.428 16.0772 150.725 16.3745 151.092 16.3745H154.311C154.678 16.3745 154.978 16.0772 154.978 15.7102V12.4886C154.978 12.1215 154.678 11.8242 154.311 11.8242Z" fill="#3F3D56"/>
<path d="M105.797 13.0498H80.0697C79.6208 13.0498 79.2598 13.4138 79.2598 13.8598C79.2598 14.3057 79.6208 14.6697 80.0697 14.6697H105.797C106.243 14.6697 106.607 14.3057 106.607 13.8598C106.607 13.4139 106.243 13.0498 105.797 13.0498Z" fill="#3F3D56"/>
</svg>
