<svg width="187" height="32" viewBox="0 0 187 32" fill="none" xmlns="http://www.w3.org/2000/svg">
<path fill-rule="evenodd" clip-rule="evenodd" d="M31.9078 15.9007L38.0489 22.0407L48.7266 22.0408L31.96 5.27637L31.9078 5.32854L15.0891 22.0408L25.7667 22.0407L31.9078 15.9007Z" fill="#645DD1"/>
<path d="M31.9571 5.27637L15.0861 22.0408L25.7638 22.0407L37.2461 10.5635L31.9571 5.27637Z" fill="white"/>
<path d="M0.000301267 12.5502L7.5502 5.00012L23.8882 5L16.343 12.5502H7.55032L7.5502 21.4326L0 28.9998L0.000301267 12.5502Z" fill="#645DD1"/>
<path d="M0.000301267 12.5501L7.5502 5V21.4325L0 28.9997L0.000301267 12.5501Z" fill="white"/>
<path d="M64.7424 18.0344H62.5599V21.7932H58.5586V7.64718H65.0254C66.3052 7.64718 67.4167 7.86274 68.3598 8.29386C69.3029 8.7115 70.0304 9.31776 70.5423 10.1126C71.0543 10.894 71.3103 11.8169 71.3103 12.8812C71.3103 13.9051 71.0677 14.801 70.5827 15.569C70.1112 16.3234 69.4308 16.9162 68.5417 17.3473L71.5932 21.7932H67.3089L64.7424 18.0344ZM67.2685 12.8812C67.2685 12.2211 67.0597 11.7091 66.6421 11.3454C66.2244 10.9816 65.6047 10.7997 64.7829 10.7997H62.5599V14.9425H64.7829C65.6047 14.9425 66.2244 14.7674 66.6421 14.4171C67.0597 14.0533 67.2685 13.5414 67.2685 12.8812Z" fill="white"/>
<path d="M82.9956 19.0449H77.0138L75.9024 21.7932H71.8202L78.0647 7.64718H82.0054L88.27 21.7932H84.1071L82.9956 19.0449ZM81.8235 16.0944L80.0047 11.5677L78.1859 16.0944H81.8235Z" fill="white"/>
<path d="M104.763 14.4171H108.3V20.2776C107.491 20.8569 106.562 21.3015 105.511 21.6114C104.46 21.9212 103.409 22.0762 102.358 22.0762C100.877 22.0762 99.5427 21.7663 98.3572 21.1466C97.1716 20.5134 96.242 19.6376 95.5684 18.5194C94.8947 17.4012 94.5579 16.1348 94.5579 14.7202C94.5579 13.3056 94.8947 12.0392 95.5684 10.921C96.242 9.80277 97.1783 8.9338 98.3774 8.31406C99.5764 7.68086 100.93 7.36426 102.439 7.36426C103.76 7.36426 104.945 7.58655 105.996 8.03114C107.047 8.47573 107.923 9.11567 108.623 9.95096L106.077 12.2548C105.12 11.2039 103.975 10.6785 102.641 10.6785C101.429 10.6785 100.452 11.049 99.7111 11.79C98.9702 12.5175 98.5997 13.4942 98.5997 14.7202C98.5997 15.5016 98.7681 16.2022 99.1049 16.8219C99.4417 17.4282 99.9132 17.9064 100.519 18.2567C101.126 18.5935 101.82 18.7619 102.601 18.7619C103.369 18.7619 104.09 18.607 104.763 18.2971V14.4171Z" fill="white"/>
<path d="M117.02 18.0344H114.838V21.7932H110.837V7.64718H117.303C118.583 7.64718 119.695 7.86274 120.638 8.29386C121.581 8.7115 122.308 9.31776 122.82 10.1126C123.332 10.894 123.588 11.8169 123.588 12.8812C123.588 13.9051 123.346 14.801 122.861 15.569C122.389 16.3234 121.709 16.9162 120.82 17.3473L123.871 21.7932H119.587L117.02 18.0344ZM119.547 12.8812C119.547 12.2211 119.338 11.7091 118.92 11.3454C118.502 10.9816 117.883 10.7997 117.061 10.7997H114.838V14.9425H117.061C117.883 14.9425 118.502 14.7674 118.92 14.4171C119.338 14.0533 119.547 13.5414 119.547 12.8812Z" fill="white"/>
<path d="M132.929 22.0762C131.434 22.0762 130.087 21.7596 128.888 21.1263C127.702 20.4931 126.766 19.6174 126.079 18.4992C125.405 17.381 125.068 16.1213 125.068 14.7202C125.068 13.3191 125.405 12.0594 126.079 10.9412C126.766 9.82298 127.702 8.94727 128.888 8.31406C130.087 7.68086 131.434 7.36426 132.929 7.36426C134.425 7.36426 135.765 7.68086 136.951 8.31406C138.15 8.94727 139.086 9.82298 139.76 10.9412C140.447 12.0594 140.791 13.3191 140.791 14.7202C140.791 16.1213 140.447 17.381 139.76 18.4992C139.086 19.6174 138.15 20.4931 136.951 21.1263C135.765 21.7596 134.425 22.0762 132.929 22.0762ZM132.929 18.7619C133.643 18.7619 134.29 18.5935 134.869 18.2567C135.449 17.9199 135.907 17.4484 136.244 16.8421C136.58 16.2224 136.749 15.5151 136.749 14.7202C136.749 13.9253 136.58 13.2248 136.244 12.6185C135.907 11.9988 135.449 11.5205 134.869 11.1837C134.29 10.8469 133.643 10.6785 132.929 10.6785C132.215 10.6785 131.569 10.8469 130.989 11.1837C130.41 11.5205 129.952 11.9988 129.615 12.6185C129.278 13.2248 129.11 13.9253 129.11 14.7202C129.11 15.5151 129.278 16.2224 129.615 16.8421C129.952 17.4484 130.41 17.9199 130.989 18.2567C131.569 18.5935 132.215 18.7619 132.929 18.7619Z" fill="white"/>
<path d="M149.414 22.0762C147.312 22.0762 145.675 21.5036 144.503 20.3584C143.344 19.2133 142.765 17.5898 142.765 15.4881V7.64718H146.766V15.3669C146.766 17.6303 147.662 18.7619 149.454 18.7619C151.232 18.7619 152.122 17.6303 152.122 15.3669V7.64718H156.062V15.4881C156.062 17.5898 155.476 19.2133 154.304 20.3584C153.146 21.5036 151.515 22.0762 149.414 22.0762Z" fill="white"/>
<path d="M165.24 7.64718C166.52 7.64718 167.631 7.86274 168.574 8.29386C169.517 8.7115 170.245 9.31776 170.757 10.1126C171.269 10.894 171.525 11.8169 171.525 12.8812C171.525 13.9455 171.269 14.8684 170.757 15.6498C170.245 16.4312 169.517 17.0375 168.574 17.4686C167.631 17.8862 166.52 18.0951 165.24 18.0951H162.774V21.7932H158.773V7.64718H165.24ZM164.997 14.9425C165.819 14.9425 166.439 14.7674 166.856 14.4171C167.274 14.0533 167.483 13.5414 167.483 12.8812C167.483 12.2211 167.274 11.7091 166.856 11.3454C166.439 10.9816 165.819 10.7997 164.997 10.7997H162.774V14.9425H164.997Z" fill="white"/>
<path d="M182.789 15.2602C182.251 15.2602 181.752 15.1633 181.293 14.9695C180.834 14.7757 180.432 14.5066 180.087 14.1621C179.743 13.8105 179.474 13.405 179.28 12.9457C179.093 12.4864 179 11.9912 179 11.4602C179 10.9291 179.097 10.4339 179.291 9.9746C179.484 9.5153 179.754 9.11341 180.098 8.76894C180.442 8.41729 180.844 8.14457 181.304 7.95081C181.77 7.75704 182.273 7.66016 182.811 7.66016C183.349 7.66016 183.848 7.75704 184.307 7.95081C184.774 8.1374 185.175 8.40293 185.513 8.74741C185.857 9.09188 186.123 9.49377 186.309 9.95307C186.503 10.4052 186.6 10.9004 186.6 11.4386C186.6 11.9769 186.503 12.4792 186.309 12.9457C186.116 13.405 185.843 13.8105 185.491 14.1621C185.147 14.5066 184.745 14.7757 184.286 14.9695C183.826 15.1633 183.327 15.2602 182.789 15.2602ZM182.789 14.7757C183.256 14.7757 183.69 14.6896 184.092 14.5174C184.494 14.3451 184.845 14.1083 185.147 13.8069C185.448 13.5055 185.681 13.1538 185.846 12.7519C186.012 12.3429 186.094 11.9051 186.094 11.4386C186.094 10.9721 186.012 10.538 185.846 10.1361C185.681 9.73419 185.452 9.38612 185.158 9.09188C184.863 8.79764 184.515 8.56799 184.113 8.40293C183.719 8.23069 183.284 8.14457 182.811 8.14457C182.337 8.14457 181.896 8.23069 181.487 8.40293C181.085 8.56799 180.737 8.80482 180.442 9.11341C180.148 9.41483 179.919 9.76648 179.754 10.1684C179.588 10.5631 179.506 10.9937 179.506 11.4602C179.506 11.9266 179.588 12.3608 179.754 12.7627C179.919 13.1646 180.148 13.5162 180.442 13.8177C180.737 14.1191 181.085 14.3559 181.487 14.5281C181.889 14.6932 182.323 14.7757 182.789 14.7757ZM182.908 13.6777C182.47 13.6777 182.079 13.5844 181.734 13.3978C181.39 13.2112 181.121 12.9529 180.927 12.6228C180.733 12.2855 180.636 11.8979 180.636 11.4602C180.636 11.0224 180.733 10.6384 180.927 10.3083C181.121 9.97102 181.39 9.70907 181.734 9.52248C182.079 9.33589 182.47 9.24259 182.908 9.24259C183.288 9.24259 183.629 9.32153 183.93 9.47942C184.239 9.63013 184.479 9.84184 184.652 10.1145L184.038 10.5559C183.902 10.355 183.733 10.2078 183.532 10.1145C183.338 10.0213 183.127 9.9746 182.897 9.9746C182.617 9.9746 182.369 10.0392 182.154 10.1684C181.946 10.2904 181.777 10.4626 181.648 10.6851C181.519 10.9004 181.454 11.1587 181.454 11.4602C181.454 11.7616 181.519 12.0235 181.648 12.246C181.777 12.4613 181.946 12.6335 182.154 12.7627C182.369 12.8847 182.617 12.9457 182.897 12.9457C183.127 12.9457 183.338 12.8991 183.532 12.8058C183.733 12.7125 183.902 12.5653 184.038 12.3644L184.652 12.795C184.479 13.0677 184.239 13.283 183.93 13.4409C183.629 13.5988 183.288 13.6777 182.908 13.6777Z" fill="white"/>
</svg>
