<svg width="180" height="32" viewBox="0 0 180 32" fill="none" xmlns="http://www.w3.org/2000/svg">
<path fill-rule="evenodd" clip-rule="evenodd" d="M36.2382 15.9007L42.3793 22.0407L53.0569 22.0408L36.2903 5.27637L36.2382 5.32854L19.4194 22.0408L30.0971 22.0407L36.2382 15.9007Z" fill="#645DD1"/>
<path d="M36.2863 5.27637L19.4154 22.0408L30.093 22.0407L41.5753 10.5635L36.2863 5.27637Z" fill="white"/>
<path d="M4.3311 12.5502L11.881 5.00012L28.219 5L20.6738 12.5502H11.8811L11.881 21.4326L4.3308 28.9998L4.3311 12.5502Z" fill="#645DD1"/>
<path d="M4.3311 12.5506L11.881 5.00049V21.433L4.3308 29.0002L4.3311 12.5506Z" fill="white"/>
<path d="M68.887 18.3745H66.7045V22.1333H62.7032V7.98727H69.1699C70.4498 7.98727 71.5613 8.20283 72.5044 8.63394C73.4474 9.05159 74.1749 9.65785 74.6869 10.4527C75.1989 11.2341 75.4548 12.157 75.4548 13.2213C75.4548 14.2452 75.2123 15.1411 74.7273 15.9091C74.2558 16.6635 73.5754 17.2563 72.6862 17.6874L75.7377 22.1333H71.4535L68.887 18.3745ZM71.4131 13.2213C71.4131 12.5612 71.2043 12.0492 70.7866 11.6854C70.369 11.3217 69.7493 11.1398 68.9274 11.1398H66.7045V15.2826H68.9274C69.7493 15.2826 70.369 15.1074 70.7866 14.7572C71.2043 14.3934 71.4131 13.8815 71.4131 13.2213Z" fill="white"/>
<path d="M87.1402 19.3849H81.1584L80.0469 22.1333H75.9648L82.2093 7.98727H86.1499L92.4146 22.1333H88.2516L87.1402 19.3849ZM85.9681 16.4345L84.1493 11.9077L82.3305 16.4345H85.9681Z" fill="white"/>
<path d="M108.908 14.7572H112.444V20.6177C111.636 21.197 110.706 21.6416 109.656 21.9514C108.605 22.2613 107.554 22.4162 106.503 22.4162C105.021 22.4162 103.687 22.1064 102.502 21.4866C101.316 20.8534 100.387 19.9777 99.7129 18.8595C99.0393 17.7413 98.7025 16.4749 98.7025 15.0603C98.7025 13.6457 99.0393 12.3793 99.7129 11.2611C100.387 10.1429 101.323 9.27388 102.522 8.65415C103.721 8.02095 105.075 7.70435 106.584 7.70435C107.904 7.70435 109.09 7.92664 110.141 8.37123C111.191 8.81582 112.067 9.45576 112.768 10.2911L110.221 12.5948C109.265 11.544 108.12 11.0186 106.786 11.0186C105.573 11.0186 104.597 11.3891 103.856 12.13C103.115 12.8576 102.744 13.8343 102.744 15.0603C102.744 15.8417 102.913 16.5423 103.249 17.162C103.586 17.7683 104.058 18.2465 104.664 18.5968C105.27 18.9336 105.964 19.102 106.746 19.102C107.513 19.102 108.234 18.9471 108.908 18.6372V14.7572Z" fill="white"/>
<path d="M121.165 18.3745H118.983V22.1333H114.981V7.98727H121.448C122.728 7.98727 123.839 8.20283 124.782 8.63394C125.725 9.05159 126.453 9.65785 126.965 10.4527C127.477 11.2341 127.733 12.157 127.733 13.2213C127.733 14.2452 127.49 15.1411 127.005 15.9091C126.534 16.6635 125.853 17.2563 124.964 17.6874L128.016 22.1333H123.732L121.165 18.3745ZM123.691 13.2213C123.691 12.5612 123.482 12.0492 123.065 11.6854C122.647 11.3217 122.027 11.1398 121.205 11.1398H118.983V15.2826H121.205C122.027 15.2826 122.647 15.1074 123.065 14.7572C123.482 14.3934 123.691 13.8815 123.691 13.2213Z" fill="white"/>
<path d="M137.074 22.4162C135.579 22.4162 134.231 22.0996 133.032 21.4664C131.847 20.8332 130.91 19.9575 130.223 18.8393C129.55 17.7211 129.213 16.4614 129.213 15.0603C129.213 13.6592 129.55 12.3995 130.223 11.2813C130.91 10.1631 131.847 9.28736 133.032 8.65415C134.231 8.02095 135.579 7.70435 137.074 7.70435C138.569 7.70435 139.91 8.02095 141.096 8.65415C142.295 9.28736 143.231 10.1631 143.905 11.2813C144.592 12.3995 144.935 13.6592 144.935 15.0603C144.935 16.4614 144.592 17.7211 143.905 18.8393C143.231 19.9575 142.295 20.8332 141.096 21.4664C139.91 22.0996 138.569 22.4162 137.074 22.4162ZM137.074 19.102C137.788 19.102 138.435 18.9336 139.014 18.5968C139.593 18.26 140.051 17.7885 140.388 17.1822C140.725 16.5625 140.893 15.8552 140.893 15.0603C140.893 14.2654 140.725 13.5649 140.388 12.9586C140.051 12.3389 139.593 11.8606 139.014 11.5238C138.435 11.187 137.788 11.0186 137.074 11.0186C136.36 11.0186 135.713 11.187 135.134 11.5238C134.555 11.8606 134.097 12.3389 133.76 12.9586C133.423 13.5649 133.255 14.2654 133.255 15.0603C133.255 15.8552 133.423 16.5625 133.76 17.1822C134.097 17.7885 134.555 18.26 135.134 18.5968C135.713 18.9336 136.36 19.102 137.074 19.102Z" fill="white"/>
<path d="M153.558 22.4162C151.457 22.4162 149.82 21.8437 148.648 20.6985C147.489 19.5533 146.91 17.9299 146.91 15.8282V7.98727H150.911V15.707C150.911 17.9703 151.807 19.102 153.599 19.102C155.377 19.102 156.266 17.9703 156.266 15.707V7.98727H160.207V15.8282C160.207 17.9299 159.621 19.5533 158.449 20.6985C157.29 21.8437 155.66 22.4162 153.558 22.4162Z" fill="white"/>
<path d="M169.384 7.98727C170.664 7.98727 171.776 8.20283 172.719 8.63394C173.662 9.05159 174.389 9.65785 174.901 10.4527C175.413 11.2341 175.669 12.157 175.669 13.2213C175.669 14.2856 175.413 15.2085 174.901 15.9899C174.389 16.7713 173.662 17.3776 172.719 17.8087C171.776 18.2263 170.664 18.4351 169.384 18.4351H166.919V22.1333H162.918V7.98727H169.384ZM169.142 15.2826C169.964 15.2826 170.583 15.1074 171.001 14.7572C171.419 14.3934 171.627 13.8815 171.627 13.2213C171.627 12.5612 171.419 12.0492 171.001 11.6854C170.583 11.3217 169.964 11.1398 169.142 11.1398H166.919V15.2826H169.142Z" fill="white"/>
</svg>
