<svg width="48" height="49" viewBox="0 0 48 49" fill="none" xmlns="http://www.w3.org/2000/svg">
<path d="M12 26.958C13.1046 26.958 14 26.0626 14 24.958C14 23.8534 13.1046 22.958 12 22.958C10.8954 22.958 10 23.8534 10 24.958C10 26.0626 10.8954 26.958 12 26.958Z" stroke="black" stroke-opacity="0.95" stroke-width="3" stroke-linecap="round" stroke-linejoin="round"/>
<path d="M24 26.958C25.1046 26.958 26 26.0626 26 24.958C26 23.8534 25.1046 22.958 24 22.958C22.8954 22.958 22 23.8534 22 24.958C22 26.0626 22.8954 26.958 24 26.958Z" stroke="black" stroke-opacity="0.95" stroke-width="3" stroke-linecap="round" stroke-linejoin="round"/>
<path d="M36 26.958C37.1046 26.958 38 26.0626 38 24.958C38 23.8534 37.1046 22.958 36 22.958C34.8954 22.958 34 23.8534 34 24.958C34 26.0626 34.8954 26.958 36 26.958Z" stroke="black" stroke-opacity="0.95" stroke-width="3" stroke-linecap="round" stroke-linejoin="round"/>
</svg>
