<svg width="200" height="168" viewBox="0 0 200 168" fill="none" xmlns="http://www.w3.org/2000/svg">
<g clip-path="url(#clip0_29_1486)">
<path d="M131.572 1H73.4552C64.4163 1 57.0888 8.32749 57.0888 17.3664V150.169C57.0888 159.208 64.4163 166.536 73.4552 166.536H131.572C140.611 166.536 147.938 159.208 147.938 150.169V17.3664C147.938 8.32749 140.611 1 131.572 1Z" fill="#3F3D56"/>
<path d="M146.406 17.3673V150.169C146.401 154.102 144.837 157.873 142.056 160.654C139.275 163.435 135.505 164.999 131.572 165.003H73.4559C69.523 164.999 65.7526 163.435 62.9716 160.654C60.1907 157.873 58.6263 154.102 58.6218 150.169V17.3673C58.6263 13.4345 60.1907 9.664 62.9716 6.88305C65.7526 4.1021 69.523 2.53776 73.4559 2.5332H81.0555V5.15837C81.0555 6.34683 81.5277 7.48659 82.368 8.32695C83.2084 9.16732 84.3482 9.63946 85.5366 9.63953H119.491C120.679 9.63946 121.819 9.16732 122.66 8.32695C123.5 7.48659 123.972 6.34683 123.972 5.15837V2.5332H131.572C135.505 2.53776 139.275 4.1021 142.056 6.88305C144.837 9.664 146.401 13.4345 146.406 17.3673Z" fill="white"/>
<path d="M56.6707 34.5809C56.3752 34.5806 56.0919 34.4631 55.8829 34.2541C55.6739 34.0451 55.5564 33.7618 55.556 33.4662V31.2368C55.556 30.9411 55.6735 30.6576 55.8825 30.4486C56.0916 30.2395 56.3751 30.1221 56.6707 30.1221C56.9664 30.1221 57.2499 30.2395 57.459 30.4486C57.668 30.6576 57.7855 30.9411 57.7855 31.2368V33.4662C57.7851 33.7618 57.6676 34.0451 57.4586 34.2541C57.2496 34.4631 56.9663 34.5806 56.6707 34.5809Z" fill="#3F3D56"/>
<path d="M56.6707 46.0129C56.3752 46.0125 56.0919 45.895 55.8829 45.686C55.6739 45.477 55.5564 45.1937 55.556 44.8981V38.7612C55.556 38.4656 55.6735 38.182 55.8825 37.973C56.0916 37.7639 56.3751 37.6465 56.6707 37.6465C56.9664 37.6465 57.2499 37.7639 57.459 37.973C57.668 38.182 57.7855 38.4656 57.7855 38.7612V44.8981C57.7851 45.1937 57.6676 45.477 57.4586 45.686C57.2496 45.895 56.9663 46.0125 56.6707 46.0129Z" fill="#3F3D56"/>
<path d="M56.6707 55.2033C56.3752 55.2029 56.0919 55.0854 55.8829 54.8764C55.6739 54.6674 55.5564 54.3841 55.556 54.0886V47.9516C55.556 47.656 55.6735 47.3725 55.8825 47.1634C56.0916 46.9544 56.3751 46.8369 56.6707 46.8369C56.9664 46.8369 57.2499 46.9544 57.459 47.1634C57.668 47.3725 57.7855 47.656 57.7855 47.9516V54.0886C57.7851 54.3841 57.6676 54.6674 57.4586 54.8764C57.2496 55.0854 56.9663 55.2029 56.6707 55.2033Z" fill="#3F3D56"/>
<path d="M148.078 50.187C147.782 50.1867 147.499 50.0691 147.29 49.8601C147.081 49.6512 146.963 49.3678 146.963 49.0723V34.0979C146.963 33.8022 147.08 33.5187 147.289 33.3096C147.498 33.1006 147.782 32.9832 148.078 32.9832C148.373 32.9832 148.657 33.1006 148.866 33.3096C149.075 33.5187 149.192 33.8022 149.192 34.0979V49.0723C149.192 49.3678 149.074 49.6512 148.865 49.8601C148.657 50.0691 148.373 50.1867 148.078 50.187Z" fill="#3F3D56"/>
<path d="M104.908 6.11264H96.2691C96.0843 6.11264 95.9071 6.03923 95.7765 5.90858C95.6458 5.77792 95.5724 5.60071 95.5724 5.41594C95.5724 5.23116 95.6458 5.05395 95.7765 4.9233C95.9071 4.79264 96.0843 4.71924 96.2691 4.71924H104.908C105.093 4.71924 105.27 4.79264 105.401 4.9233C105.531 5.05395 105.605 5.23116 105.605 5.41594C105.605 5.60071 105.531 5.77792 105.401 5.90858C105.27 6.03923 105.093 6.11264 104.908 6.11264Z" fill="#090909"/>
<path d="M109.367 5.97312C109.675 5.97312 109.924 5.72358 109.924 5.41576C109.924 5.10794 109.675 4.8584 109.367 4.8584C109.059 4.8584 108.81 5.10794 108.81 5.41576C108.81 5.72358 109.059 5.97312 109.367 5.97312Z" fill="#090909"/>
<path d="M77.735 9.10223H70.2107C69.8411 9.10223 69.4867 8.95542 69.2254 8.69411C68.9641 8.4328 68.8173 8.07838 68.8173 7.70883C68.8173 7.33928 68.9641 6.98486 69.2254 6.72355C69.4867 6.46223 69.8411 6.31543 70.2107 6.31543H77.735C78.1046 6.31543 78.459 6.46223 78.7203 6.72355C78.9816 6.98486 79.1284 7.33928 79.1284 7.70883C79.1284 8.07838 78.9816 8.4328 78.7203 8.69411C78.459 8.95542 78.1046 9.10223 77.735 9.10223Z" fill="#E6E6E6"/>
<path d="M127.061 8.96271C127.754 8.96271 128.315 8.40125 128.315 7.70865C128.315 7.01605 127.754 6.45459 127.061 6.45459C126.369 6.45459 125.807 7.01605 125.807 7.70865C125.807 8.40125 126.369 8.96271 127.061 8.96271Z" fill="#E6E6E6"/>
<path d="M130.963 8.96271C131.655 8.96271 132.217 8.40125 132.217 7.70865C132.217 7.01605 131.655 6.45459 130.963 6.45459C130.27 6.45459 129.709 7.01605 129.709 7.70865C129.709 8.40125 130.27 8.96271 130.963 8.96271Z" fill="#E6E6E6"/>
<path d="M134.864 8.96271C135.557 8.96271 136.118 8.40125 136.118 7.70865C136.118 7.01605 135.557 6.45459 134.864 6.45459C134.172 6.45459 133.61 7.01605 133.61 7.70865C133.61 8.40125 134.172 8.96271 134.864 8.96271Z" fill="#E6E6E6"/>
<path d="M126.185 28.5774H78.8926C77.9765 28.5787 77.0983 28.9431 76.4505 29.5909C75.8028 30.2387 75.4383 31.1169 75.437 32.033V62.7742C75.4383 63.6903 75.8028 64.5685 76.4505 65.2163C77.0983 65.8641 77.9765 66.2285 78.8926 66.2298H126.185C127.101 66.229 127.979 65.8647 128.627 65.2168C129.275 64.5689 129.639 63.6904 129.64 62.7742V32.033C129.639 31.1168 129.275 30.2383 128.627 29.5904C127.979 28.9425 127.101 28.5782 126.185 28.5774Z" fill="#F2F2F2"/>
<path d="M111.379 41.7008C107.105 49.257 102.389 56.5544 97.2551 63.5547H89.8388C94.6965 57.6369 99.5577 51.719 104.423 45.8011C105.818 44.0971 107.333 42.312 109.426 41.6196L111.379 41.7008Z" fill="#3F3D56"/>
<path d="M101.523 40.4893C100.75 41.2953 100.008 42.1338 99.3106 43.0047C97.7743 44.8547 96.2597 46.721 94.7397 48.5818C93.793 49.7394 92.8464 50.897 91.9106 52.0546C91.6134 51.8637 91.3313 51.6503 91.0667 51.4163C89.572 50.119 88.6449 48.2878 88.4841 46.3151C88.3232 44.3424 88.9415 42.3852 90.2063 40.8629C91.4711 39.3406 93.2819 38.3742 95.2507 38.1709C97.2194 37.9676 99.1895 38.5435 100.739 39.7753C101.018 39.993 101.28 40.2317 101.523 40.4893Z" fill="#6C63FF"/>
<path d="M129.64 39.6101V40.7332L129.139 40.5493L122.08 37.9687C119.781 37.1299 117.487 36.1712 115.113 35.5665C113.047 34.9756 110.853 35.0037 108.803 35.6473C106.976 36.3233 105.304 37.3612 103.887 38.6988C103.26 39.2785 102.653 39.8721 102.065 40.488C101.873 40.6914 101.68 40.8948 101.491 41.0983C100.922 41.7169 100.373 42.3495 99.8521 43.0044C98.3166 44.8549 96.8006 46.722 95.2818 48.5808C94.3343 49.7401 93.3868 50.8966 92.4504 52.0532C89.3236 55.8794 86.2154 59.7131 83.1258 63.5543C82.7097 63.5496 82.2955 63.4972 81.8913 63.3982C85.0431 59.4828 88.2098 55.5775 91.3914 51.6825C91.4639 51.5933 91.5363 51.5042 91.6088 51.415C91.9822 50.9496 92.364 50.4814 92.743 50.016C94.3287 48.0736 95.9153 46.1331 97.5029 44.1944C98.6566 42.7843 99.802 41.3686 101.045 40.0309C101.12 39.9445 101.198 39.8609 101.279 39.7745C101.399 39.6463 101.519 39.5209 101.641 39.39C104.342 36.6004 107.711 34.1341 111.746 34.0672C114.121 34.0309 116.414 34.7834 118.621 35.5776C120.998 36.4388 123.367 37.3138 125.741 38.1833L129.64 39.6101Z" fill="#3F3D56"/>
<path d="M130.752 134.102H74.2754C73.3593 134.101 72.481 133.737 71.8332 133.089C71.1854 132.441 70.821 131.563 70.82 130.647V123.035C70.821 122.119 71.1854 121.241 71.8332 120.593C72.481 119.946 73.3593 119.581 74.2754 119.58H130.752C131.668 119.581 132.547 119.946 133.194 120.593C133.842 121.241 134.207 122.119 134.208 123.035V130.647C134.207 131.563 133.842 132.441 133.194 133.089C132.547 133.737 131.668 134.101 130.752 134.102Z" fill="#F2F2F2"/>
<path d="M130.752 95.0872H74.2754C73.3593 95.0862 72.481 94.7218 71.8332 94.074C71.1854 93.4262 70.821 92.5479 70.82 91.6318V84.0203C70.821 83.1042 71.1854 82.2259 71.8332 81.5782C72.481 80.9304 73.3593 80.566 74.2754 80.5649H130.752C131.668 80.566 132.547 80.9304 133.194 81.5782C133.842 82.2259 134.207 83.1042 134.208 84.0203V91.6318C134.207 92.5479 133.842 93.4262 133.194 94.074C132.547 94.7218 131.668 95.0862 130.752 95.0872Z" fill="#F2F2F2"/>
<path d="M130.752 114.595H74.2754C73.3593 114.594 72.481 114.229 71.8332 113.582C71.1854 112.934 70.821 112.056 70.82 111.139V103.528C70.821 102.612 71.1854 101.734 71.8332 101.086C72.481 100.438 73.3593 100.074 74.2754 100.073H130.752C131.668 100.074 132.547 100.438 133.194 101.086C133.842 101.734 134.207 102.612 134.208 103.528V111.139C134.207 112.056 133.842 112.934 133.194 113.582C132.547 114.229 131.668 114.594 130.752 114.595Z" fill="#F2F2F2"/>
<path d="M109.375 125.539H92.7348C92.5374 125.539 92.348 125.46 92.2084 125.321C92.0688 125.181 91.9904 124.992 91.9904 124.794C91.9904 124.597 92.0688 124.407 92.2084 124.268C92.348 124.128 92.5374 124.05 92.7348 124.05H109.375C109.573 124.05 109.762 124.128 109.902 124.268C110.041 124.407 110.12 124.597 110.12 124.794C110.12 124.992 110.041 125.181 109.902 125.321C109.762 125.46 109.573 125.539 109.375 125.539Z" fill="#090909"/>
<path d="M125.38 129.633H92.5486C92.3512 129.633 92.1619 129.554 92.0223 129.415C91.8827 129.275 91.8042 129.086 91.8042 128.888C91.8042 128.691 91.8827 128.502 92.0223 128.362C92.1619 128.222 92.3512 128.144 92.5486 128.144H125.38C125.577 128.144 125.767 128.222 125.906 128.362C126.046 128.502 126.124 128.691 126.124 128.888C126.124 129.086 126.046 129.275 125.906 129.415C125.767 129.554 125.577 129.633 125.38 129.633Z" fill="#090909"/>
<path d="M83.8944 131.832C86.6508 131.832 88.8854 129.598 88.8854 126.841C88.8854 124.085 86.6508 121.85 83.8944 121.85C81.1379 121.85 78.9034 124.085 78.9034 126.841C78.9034 129.598 81.1379 131.832 83.8944 131.832Z" fill="#090909"/>
<path d="M82.7822 133.583C82.2729 133.345 81.6908 133.315 81.1598 133.5C80.6288 133.684 80.1908 134.069 79.939 134.571C79.8894 134.674 79.8484 134.781 79.8165 134.891L72.3007 135.34L71.1869 139.234L81.416 137.506C81.8813 137.603 82.3656 137.543 82.7935 137.336C83.2214 137.129 83.5687 136.786 83.7812 136.361C83.8998 136.118 83.9694 135.854 83.986 135.584C84.0025 135.314 83.9657 135.044 83.8777 134.788C83.7897 134.532 83.6522 134.296 83.473 134.093C83.2938 133.891 83.0765 133.726 82.8334 133.607C82.8165 133.599 82.7994 133.591 82.7822 133.583Z" fill="#FFB6B6"/>
<path d="M66.1925 114.376C65.6973 114.174 65.1642 114.08 64.6295 114.102C64.0949 114.124 63.5712 114.26 63.094 114.502C62.6169 114.745 62.1975 115.087 61.8645 115.506C61.5314 115.924 61.2924 116.41 61.1638 116.93L59.0975 125.274L59.4862 139.872C59.4862 139.872 70.2716 141.942 72.0823 140.612C73.8929 139.281 73.7229 138.291 73.8929 139.281C74.0629 140.272 74.84 140.687 74.8508 140.293C74.8616 139.899 74.9495 139.967 75.4007 139.848C75.8519 139.729 77.8433 138.995 77.8433 138.995L77.9325 134.833C77.9325 134.833 74.6403 133.585 73.8416 133.957C73.0428 134.33 74.0116 134.948 73.0429 134.33C72.0741 133.712 71.9683 131.762 71.8026 133.519C71.637 135.277 71.1521 135.604 70.4258 134.823C69.6995 134.041 66.3347 134.54 66.3347 134.54L68.4759 118.313C68.5836 117.497 68.4179 116.668 68.0049 115.956C67.5918 115.243 66.9545 114.688 66.1925 114.376Z" fill="#8B84FF"/>
<path d="M138.826 157.668L138.94 154.594L127.137 152.693L126.97 157.23L138.826 157.668Z" fill="#FFB6B6"/>
<path d="M136.684 158.593L136.572 153.671L138.676 153.749L142.073 149.199C142.24 148.974 142.476 148.809 142.744 148.727C143.012 148.646 143.299 148.652 143.564 148.745C143.828 148.839 144.056 149.014 144.214 149.246C144.372 149.478 144.451 149.754 144.441 150.034L144.225 155.881L142.107 156.812L144.173 157.282L144.092 159.486L136.684 158.593Z" fill="#2F2E41"/>
<path d="M72.4004 164.717L109.783 160.37C109.783 160.37 125.927 161.302 129.714 158.838L133.708 158.334L133.925 152.467C133.925 152.467 131.482 152.485 130.078 151.831C128.674 151.176 129.65 150.376 128.311 151.163C126.972 151.95 127.113 152.045 126.078 151.683C125.043 151.321 77.5741 149.381 77.5741 149.381L72.4004 164.717Z" fill="#2F2E41"/>
<path d="M121.661 162.171L123.835 159.994L116.475 150.574L113.267 153.786L121.661 162.171Z" fill="#FFB6B6"/>
<path d="M119.461 161.392L122.726 157.708L124.216 159.196L129.801 158.17C130.077 158.12 130.361 158.159 130.614 158.281C130.866 158.404 131.072 158.604 131.203 158.852C131.333 159.1 131.381 159.384 131.339 159.661C131.297 159.938 131.167 160.195 130.969 160.393L126.834 164.533L124.648 163.774L125.843 165.525L124.284 167.086L119.461 161.392Z" fill="#2F2E41"/>
<path d="M57.6516 144.243L58.0232 152.882C58.4607 163.052 69.6607 169.207 78.3454 163.897C78.5055 163.8 78.6661 163.698 78.8272 163.593C78.8272 163.593 82.1196 162.709 82.0197 161.309C81.9197 159.909 82.724 159.227 83.4358 159.609C84.1476 159.991 93.4672 146.765 93.4672 146.765C93.4672 146.765 112.83 156.423 117.102 158.697L121.609 157.469C121.609 157.469 123.306 158.27 122.694 157.111C122.083 155.953 121.974 156.508 121.786 155.245C121.598 153.983 121.118 152.417 120.827 152.483C120.536 152.549 96.8725 135.987 96.8725 135.987C96.8725 135.987 93.0175 132.085 88.2355 134.661C88.1359 135.04 88.221 135.053 88.221 135.053L72.4242 147.925L70.1922 143.686L57.6516 144.243Z" fill="#2F2E41"/>
<path d="M68.2691 112.501L61.4961 109.327L59.4684 112.855C59.4684 112.855 54.0225 120.626 53.9435 126.233C53.8645 131.839 54.831 133.507 54.831 133.507C54.831 133.507 52.4829 135.262 53.657 136.335C54.831 137.408 57.4302 137.871 55.4339 138.336C53.4376 138.802 53.9435 143.511 56.1729 144.347C58.4024 145.183 70.3756 145.176 70.3756 145.176C70.268 144.811 70.2601 144.423 70.3527 144.054C70.4453 143.685 70.635 143.347 70.9022 143.076C71.8305 142.146 72.6665 142.813 71.8305 141.365C70.9944 139.916 69.601 140.752 70.7157 138.802C71.8305 136.851 71.83 136.268 71.83 136.268C71.83 136.268 74.1025 131.943 70.6796 127.251C70.471 126.965 70.6464 126.954 70.6464 126.954L67.8825 117.692L68.2691 112.501Z" fill="#8B84FF"/>
<path d="M57.3541 99.1541C57.4114 100.585 56.5098 102.612 56.0658 103.834C55.5911 105.141 57.6485 106.875 58.9654 107.255C59.0339 106.802 59.2597 106.388 59.6032 106.085C59.5082 106.517 59.5 106.963 59.5788 107.397L70.7115 109.932C72.7143 107.613 74.728 104.278 74.2888 100.257C74.394 99.4934 74.2713 98.7157 73.9361 98.0216C73.6008 97.3275 73.0681 96.7479 72.4046 96.3555L66.7766 93.0307C64.3826 92.4857 61.3679 92.1566 59.6388 93.6379C58.8663 94.3252 58.2594 95.1786 57.8637 96.1339C57.468 97.0893 57.2938 98.1218 57.3541 99.1541Z" fill="#2F2E41"/>
<path d="M67.3049 108.706C70.8449 108.706 73.7146 105.837 73.7146 102.297C73.7146 98.7569 70.8449 95.8872 67.3049 95.8872C63.765 95.8872 60.8953 98.7569 60.8953 102.297C60.8953 105.837 63.765 108.706 67.3049 108.706Z" fill="#FFB6B6"/>
<path d="M59.796 98.8727L59.4867 100.231L64.8941 101.462C64.8989 101.188 64.9604 100.917 65.0748 100.667C65.1893 100.417 65.3541 100.193 65.559 100.01C65.4424 100.543 65.4557 101.096 65.5978 101.623C68.5141 103.259 71.1425 103.839 73.4994 103.421C73.8187 103.494 74.1538 103.437 74.431 103.263C74.7082 103.088 74.9048 102.811 74.9775 102.491C75.9258 98.326 73.4414 94.0685 69.2963 93.0345C68.2887 92.7826 67.241 92.7344 66.2146 92.8927C65.1881 93.051 64.2036 93.4126 63.3188 93.9563C62.4339 94.5001 61.6665 95.2151 61.0616 96.0593C60.4567 96.9035 60.0264 97.86 59.796 98.8727V98.8727Z" fill="#2F2E41"/>
<path d="M62.9577 89.9087C63.6707 89.7539 64.4252 89.7913 65.0699 89.3083L64.6471 90.2788C65.8193 89.9577 67.0689 90.0825 68.1544 90.6291C68.4771 90.7739 68.7524 91.0069 68.9484 91.3013C69.0537 91.4792 69.1178 91.6784 69.1359 91.8843C69.1539 92.0902 69.1256 92.2976 69.0528 92.4911C68.9835 92.6571 68.8804 92.8068 68.75 92.9306C68.6195 93.0545 68.4647 93.1498 68.2954 93.2105C67.9952 93.3007 67.6808 93.3336 67.3685 93.3075C66.0526 93.2768 64.7366 93.2462 63.4207 93.2155C62.9192 93.2466 62.418 93.1493 61.9647 92.9325C61.7237 92.7837 61.5314 92.5677 61.4114 92.3111C61.2914 92.0545 61.2489 91.7685 61.2892 91.4881C61.4147 90.6059 62.2447 90.0634 62.9577 89.9087Z" fill="#2F2E41"/>
<path d="M97.7269 140.144C97.7116 140.125 97.6939 140.109 97.6744 140.095C97.6265 140.04 97.5682 139.994 97.5027 139.961L97.0336 139.71L93.9199 136.253C93.7396 136.159 93.5299 136.139 93.3352 136.197L93.3272 136.2L91.9933 136.612L90.8461 136.968L89.2436 137.465L78.3288 140.845L71.1543 143.066C70.9603 143.127 70.7982 143.262 70.7029 143.442C70.6075 143.622 70.5865 143.832 70.6444 144.027C70.6782 144.134 70.734 144.233 70.8083 144.318L71.0366 144.572L71.5154 145.105L72.6249 147.405L72.9327 147.748C73.0308 147.857 73.158 147.937 73.2995 147.976C73.4409 148.016 73.5907 148.015 73.7314 147.972L97.3675 141.4C97.4903 141.36 97.6014 141.291 97.6911 141.198C97.7808 141.105 97.8462 140.991 97.8817 140.867C97.9172 140.743 97.9217 140.612 97.8947 140.486C97.8677 140.36 97.81 140.242 97.7269 140.144Z" fill="#CCCCCC"/>
<path d="M96.3237 105.948L95.866 106.022C95.7405 106.043 95.6283 106.113 95.554 106.216L95.3523 106.498L93.5333 111.047C93.4592 111.151 93.4295 111.28 93.4506 111.406L93.6637 112.702L92.8583 135.833C92.8786 135.953 92.9428 136.061 93.0384 136.136L96.5701 140.86L96.6526 140.925L96.8304 141.065C96.9217 141.135 97.0348 141.171 97.15 141.166L97.4501 141.152C97.5183 141.149 97.585 141.131 97.6458 141.1C97.7066 141.069 97.7601 141.025 97.8028 140.972C97.8459 140.919 97.8771 140.858 97.8944 140.792C97.9117 140.726 97.9146 140.657 97.903 140.59L96.8784 106.344C96.8577 106.218 96.7878 106.106 96.6843 106.031C96.5807 105.957 96.4518 105.927 96.326 105.948L96.3237 105.948Z" fill="#CCCCCC"/>
<path d="M95.5573 107.745L93.946 112.654L93.3226 132.26L95.8307 134.489L95.5573 107.745Z" fill="#6C63FF"/>
<path d="M83.0966 137.652C82.5873 137.414 82.0052 137.385 81.4742 137.569C80.9432 137.754 80.5051 138.138 80.2533 138.641C80.2038 138.744 80.1628 138.851 80.1308 138.961L72.6151 139.41L71.5012 143.304L81.7303 141.575C82.1956 141.672 82.68 141.613 83.1079 141.406C83.5357 141.199 83.883 140.856 84.0955 140.431C84.3351 139.94 84.3698 139.374 84.1921 138.857C84.0143 138.341 83.6387 137.916 83.1478 137.677C83.1308 137.668 83.1137 137.66 83.0966 137.652Z" fill="#FFB6B6"/>
<path d="M66.5071 118.446C66.0119 118.243 65.4788 118.15 64.9441 118.171C64.4095 118.193 63.8858 118.33 63.4086 118.572C62.9315 118.814 62.5121 119.156 62.1791 119.575C61.846 119.994 61.607 120.48 61.4784 120.999L59.4121 129.344L59.8008 143.942C59.8008 143.942 70.5862 146.012 72.3969 144.681C74.2075 143.351 74.0375 142.361 74.2075 143.351C74.3775 144.341 75.1546 144.757 75.1654 144.363C75.1762 143.969 75.2641 144.036 75.7153 143.917C76.1665 143.799 78.1579 143.065 78.1579 143.065L78.2471 138.903C78.2471 138.903 74.9549 137.655 74.1562 138.027C73.3574 138.399 74.3262 139.017 73.3574 138.399C72.3887 137.781 72.2829 135.831 72.1172 137.589C71.9516 139.346 71.4667 139.674 70.7404 138.892C70.0141 138.111 66.6493 138.61 66.6493 138.61L68.7905 122.382C68.8982 121.566 68.7325 120.737 68.3195 120.025C67.9064 119.313 67.2691 118.758 66.5071 118.446Z" fill="#8B84FF"/>
<path d="M1.46781e-06 166.853C-0.000128416 166.897 0.00836286 166.94 0.0249838 166.98C0.0416048 167.02 0.0660299 167.057 0.0968522 167.088C0.127674 167.119 0.164285 167.143 0.20458 167.16C0.244876 167.176 0.28806 167.185 0.331648 167.185H199.668C199.756 167.185 199.841 167.15 199.903 167.088C199.965 167.025 200 166.941 200 166.853C200 166.765 199.965 166.681 199.903 166.619C199.841 166.556 199.756 166.521 199.668 166.521H0.331631C0.288045 166.521 0.244865 166.53 0.204572 166.546C0.164279 166.563 0.127668 166.588 0.0968479 166.618C0.0660277 166.649 0.0416042 166.686 0.0249838 166.726C0.00836338 166.766 -0.000126926 166.81 1.46781e-06 166.853Z" fill="#CCCCCC"/>
<path d="M175.898 95.0872H119.421C118.505 95.0862 117.627 94.7218 116.979 94.074C116.331 93.4262 115.967 92.5479 115.966 91.6318V84.0203C115.967 83.1042 116.331 82.2259 116.979 81.5782C117.627 80.9304 118.505 80.566 119.421 80.5649H175.898C176.814 80.566 177.693 80.9304 178.34 81.5782C178.988 82.2259 179.353 83.1042 179.354 84.0203V91.6318C179.353 92.5479 178.988 93.4262 178.34 94.074C177.693 94.7218 176.814 95.0862 175.898 95.0872Z" fill="#E6E6E6"/>
<path d="M154.521 86.5235H137.881C137.683 86.5235 137.494 86.445 137.354 86.3054C137.215 86.1658 137.136 85.9765 137.136 85.7791C137.136 85.5816 137.215 85.3923 137.354 85.2527C137.494 85.1131 137.683 85.0347 137.881 85.0347H154.521C154.719 85.0347 154.908 85.1131 155.048 85.2527C155.187 85.3923 155.266 85.5816 155.266 85.7791C155.266 85.9765 155.187 86.1658 155.048 86.3054C154.908 86.445 154.719 86.5235 154.521 86.5235Z" fill="#090909"/>
<path d="M170.526 90.6177H137.695C137.497 90.6177 137.308 90.5393 137.168 90.3997C137.029 90.2601 136.95 90.0707 136.95 89.8733C136.95 89.6759 137.029 89.4865 137.168 89.3469C137.308 89.2073 137.497 89.1289 137.695 89.1289H170.526C170.723 89.1289 170.913 89.2073 171.052 89.3469C171.192 89.4865 171.27 89.6759 171.27 89.8733C171.27 90.0707 171.192 90.2601 171.052 90.3997C170.913 90.5393 170.723 90.6177 170.526 90.6177Z" fill="#090909"/>
<path d="M129.04 92.8172C131.797 92.8172 134.031 90.5827 134.031 87.8262C134.031 85.0698 131.797 82.8352 129.04 82.8352C126.284 82.8352 124.049 85.0698 124.049 87.8262C124.049 90.5827 126.284 92.8172 129.04 92.8172Z" fill="#090909"/>
<path d="M157.784 114.595H101.307C100.391 114.594 99.5129 114.229 98.8651 113.582C98.2174 112.934 97.853 112.056 97.8519 111.139V103.528C97.853 102.612 98.2174 101.734 98.8651 101.086C99.5129 100.438 100.391 100.074 101.307 100.073H157.784C158.7 100.074 159.579 100.438 160.226 101.086C160.874 101.734 161.238 102.612 161.24 103.528V111.139C161.238 112.056 160.874 112.934 160.226 113.582C159.579 114.229 158.7 114.594 157.784 114.595Z" fill="#E6E6E6"/>
<path d="M136.407 106.031H119.767C119.569 106.031 119.38 105.953 119.24 105.813C119.101 105.673 119.022 105.484 119.022 105.287C119.022 105.089 119.101 104.9 119.24 104.76C119.38 104.621 119.569 104.542 119.767 104.542H136.407C136.605 104.542 136.794 104.621 136.934 104.76C137.073 104.9 137.152 105.089 137.152 105.287C137.152 105.484 137.073 105.673 136.934 105.813C136.794 105.953 136.605 106.031 136.407 106.031Z" fill="#090909"/>
<path d="M152.412 110.125H119.581C119.383 110.125 119.194 110.047 119.054 109.907C118.915 109.768 118.836 109.578 118.836 109.381C118.836 109.183 118.915 108.994 119.054 108.855C119.194 108.715 119.383 108.636 119.581 108.636H152.412C152.609 108.636 152.798 108.715 152.938 108.855C153.078 108.994 153.156 109.183 153.156 109.381C153.156 109.578 153.078 109.768 152.938 109.907C152.798 110.047 152.609 110.125 152.412 110.125Z" fill="#090909"/>
<path d="M110.926 112.325C113.683 112.325 115.917 110.09 115.917 107.334C115.917 104.577 113.683 102.343 110.926 102.343C108.17 102.343 105.935 104.577 105.935 107.334C105.935 110.09 108.17 112.325 110.926 112.325Z" fill="#090909"/>
</g>
<defs>
<clipPath id="clip0_29_1486">
<rect width="200" height="168" fill="white"/>
</clipPath>
</defs>
</svg>
