<svg width="228" height="168" viewBox="0 0 228 168" fill="none" xmlns="http://www.w3.org/2000/svg">
<path d="M188.223 160.829C190.451 155.611 192.021 149.931 191.278 144.31C191.023 142.405 190.468 140.551 189.634 138.818C188.963 137.406 188.095 136.095 187.058 134.925C186.699 134.512 186.207 134.239 185.667 134.152C185.127 134.065 184.573 134.17 184.103 134.45C184.031 134.492 183.958 134.537 183.891 134.584C183.527 134.84 183.24 135.191 183.061 135.599C183.026 135.677 182.997 135.757 182.974 135.839C182.871 136.182 182.844 136.543 182.893 136.898C183.285 139.791 183.2 142.728 182.642 145.593C182.499 146.323 182.325 147.046 182.119 147.762C181.656 147.185 181.165 146.632 180.646 146.105C179.301 144.742 177.749 143.598 176.048 142.717H176.045C176.037 142.712 176.031 142.709 176.023 142.703C173.96 141.653 171.21 142.089 169.603 142.804C169.497 142.849 169.396 142.899 169.298 142.947C168.46 143.377 168.043 143.872 168.401 144.196C168.482 144.266 168.563 144.338 168.639 144.411C171.075 146.663 173.071 149.349 174.525 152.332V152.335C175.103 153.522 175.59 154.752 175.981 156.013C176.521 157.754 176.968 159.686 178.021 161.105C178.129 161.255 178.246 161.398 178.371 161.533L187.784 161.458C187.807 161.446 187.826 161.438 187.849 161.427L188.223 161.441C188.209 161.374 188.192 161.307 188.176 161.24V161.234C188.167 161.198 188.156 161.159 188.148 161.125C188.139 161.097 188.134 161.072 188.128 161.05C188.145 161.008 188.162 160.968 188.181 160.927C188.195 160.893 188.209 160.862 188.223 160.829Z" fill="#F0F0F0"/>
<path d="M188.176 161.235C188.173 161.256 188.165 161.275 188.152 161.292C188.139 161.309 188.122 161.322 188.103 161.331C188.084 161.339 188.063 161.342 188.042 161.34C188.021 161.338 188 161.331 187.983 161.319C187.596 161.038 187.172 160.813 186.723 160.651C186.72 160.648 186.72 160.651 186.72 160.651C186.153 160.447 185.569 160.291 184.976 160.187C184.97 160.187 184.967 160.184 184.962 160.184C184.721 160.136 184.481 160.094 184.241 160.05C183.072 159.834 181.885 159.574 180.873 158.909C180.461 158.654 180.108 158.315 179.837 157.914C179.565 157.512 179.382 157.058 179.299 156.581C179.151 155.645 179.338 154.703 179.417 153.769C179.422 153.702 179.428 153.632 179.431 153.565C179.436 153.479 179.439 153.395 179.439 153.311C179.468 152.463 179.297 151.621 178.941 150.851C178.484 149.93 177.884 149.087 177.164 148.353C176.792 147.953 176.405 147.568 176.001 147.198H175.998C175.982 147.182 175.968 147.168 175.951 147.154C175.951 147.151 175.948 147.148 175.945 147.145C174.22 145.578 172.264 144.287 170.146 143.316C170.07 143.283 169.992 143.246 169.914 143.213C169.71 143.121 169.506 143.034 169.299 142.947C169.397 142.9 169.497 142.849 169.603 142.805C171.966 143.804 174.147 145.189 176.057 146.902C176.121 146.958 176.186 147.017 176.247 147.075C176.731 147.523 177.191 147.991 177.628 148.481C178.327 149.234 178.893 150.1 179.302 151.041C179.602 151.804 179.735 152.622 179.69 153.44C179.685 153.596 179.674 153.753 179.66 153.912C179.573 154.854 179.38 155.826 179.595 156.768C179.841 157.842 180.674 158.591 181.641 159.049C182.281 159.334 182.953 159.543 183.643 159.669C185.068 159.969 186.541 160.114 187.787 160.88H187.79C187.81 160.894 187.829 160.905 187.846 160.916C187.849 160.916 187.849 160.916 187.849 160.919C187.939 160.972 188.026 161.031 188.109 161.095C188.114 161.098 188.12 161.103 188.126 161.106C188.134 161.112 188.141 161.118 188.148 161.126C188.161 161.14 188.17 161.158 188.175 161.177C188.18 161.196 188.18 161.216 188.176 161.235Z" fill="white"/>
<path d="M176.173 147.171C176.681 146.542 176.948 145.752 176.927 144.943C176.907 144.134 176.599 143.359 176.06 142.756C175.95 142.634 175.756 142.799 175.866 142.92C176.369 143.481 176.655 144.203 176.673 144.956C176.691 145.71 176.439 146.444 175.962 147.028C175.859 147.155 176.07 147.298 176.173 147.171Z" fill="white"/>
<path d="M179.518 153.301C177.875 153.492 176.221 153.057 174.884 152.082C174.752 151.986 174.609 152.196 174.741 152.293C176.134 153.305 177.856 153.754 179.566 153.551C179.729 153.532 179.68 153.282 179.518 153.301Z" fill="white"/>
<path d="M170.162 143.284C170.157 143.295 170.151 143.304 170.145 143.315C169.991 143.598 169.776 143.843 169.516 144.033C169.255 144.222 168.956 144.351 168.639 144.411C168.563 144.338 168.482 144.265 168.401 144.195C168.414 144.187 168.428 144.183 168.443 144.181C168.748 144.148 169.04 144.042 169.295 143.874C169.551 143.705 169.763 143.478 169.913 143.212C169.927 143.189 169.941 143.164 169.953 143.142C169.962 143.128 169.974 143.116 169.988 143.107C170.002 143.098 170.017 143.091 170.034 143.088C170.05 143.085 170.067 143.085 170.083 143.089C170.099 143.092 170.115 143.099 170.129 143.108C170.156 143.128 170.174 143.157 170.18 143.19C170.186 143.222 170.18 143.256 170.162 143.284Z" fill="white"/>
<path d="M29.4763 7.52148C24.4509 7.52715 19.633 9.52599 16.0795 13.0795C12.526 16.633 10.5272 21.4509 10.5215 26.4763V99.1173C10.5272 104.143 12.526 108.961 16.0795 112.514C19.633 116.068 24.4509 118.066 29.4763 118.072H198.469C203.494 118.066 208.312 116.068 211.866 112.514C215.419 108.961 217.418 104.143 217.424 99.1173V26.4763C217.418 21.4509 215.419 16.633 211.866 13.0795C208.312 9.52599 203.494 7.52715 198.469 7.52148H29.4763Z" fill="black"/>
<path d="M198.469 119.593H29.4762C24.0474 119.587 18.8428 117.428 15.0041 113.589C11.1654 109.751 9.00611 104.546 9 99.1171V26.4762C9.00611 21.0474 11.1654 15.8428 15.0041 12.0041C18.8428 8.16538 24.0474 6.00611 29.4762 6H198.469C203.897 6.00611 209.102 8.16537 212.941 12.0041C216.779 15.8428 218.939 21.0474 218.945 26.4762V99.1171C218.939 104.546 216.779 109.751 212.941 113.589C209.102 117.428 203.897 119.587 198.469 119.593ZM29.4762 9.04267C24.8541 9.04789 20.4229 10.8863 17.1546 14.1546C13.8863 17.4229 12.0479 21.8541 12.0427 26.4762V99.1171C12.0479 103.739 13.8863 108.17 17.1546 111.439C20.4229 114.707 24.8541 116.545 29.4762 116.551H198.469C203.091 116.545 207.522 114.707 210.79 111.439C214.059 108.17 215.897 103.739 215.902 99.1171V26.4762C215.897 21.8541 214.059 17.4229 210.79 14.1546C207.522 10.8863 203.091 9.04789 198.469 9.04267H29.4762Z" fill="#E6E6E6"/>
<path d="M114.426 22.5605H34.0587C32.3434 22.5635 30.6993 23.2462 29.4864 24.459C28.2735 25.6719 27.5909 27.3161 27.5879 29.0313V65.2798C27.5872 65.6643 27.6229 66.048 27.6944 66.4258C27.7198 66.5982 27.7603 66.7656 27.8009 66.9329C28.169 68.3123 28.9817 69.5319 30.1129 70.4028C31.2442 71.2737 32.631 71.7474 34.0587 71.7505H114.426C114.558 71.7505 114.69 71.7454 114.816 71.7353H114.908V71.7302C114.933 71.731 114.959 71.7294 114.984 71.7252C115.009 71.7252 115.04 71.7201 115.065 71.7201C115.074 71.7209 115.082 71.7191 115.09 71.715C115.146 71.7099 115.202 71.7049 115.253 71.6998C115.344 71.6846 115.435 71.6744 115.521 71.6593C115.533 71.6551 115.545 71.6534 115.557 71.6542C115.573 71.6464 115.59 71.6429 115.608 71.644C115.61 71.6421 115.612 71.6406 115.615 71.6398C115.617 71.6389 115.62 71.6386 115.623 71.639C115.679 71.6288 115.734 71.6187 115.79 71.6035C115.821 71.5991 115.852 71.5924 115.881 71.5832C115.993 71.5578 116.104 71.5325 116.211 71.497C116.262 71.4818 116.307 71.4716 116.358 71.4564C116.424 71.4361 116.495 71.4107 116.561 71.3854C116.595 71.3759 116.629 71.364 116.662 71.3499C116.666 71.3498 116.67 71.3489 116.674 71.3471C116.677 71.3454 116.68 71.3429 116.683 71.3398C116.829 71.2881 116.973 71.2288 117.114 71.1623C117.235 71.1065 117.352 71.0457 117.469 70.9848C117.514 70.9645 117.555 70.9391 117.6 70.9138C117.612 70.9089 117.622 70.902 117.631 70.8935C117.748 70.8225 117.864 70.7515 117.976 70.6856C117.981 70.6805 117.981 70.6755 117.986 70.6755C117.987 70.6755 117.987 70.6754 117.988 70.6751C117.988 70.6749 117.989 70.6745 117.99 70.674C117.99 70.6735 117.99 70.673 117.991 70.6724C117.991 70.6717 117.991 70.6711 117.991 70.6704C118.11 70.5956 118.225 70.5143 118.336 70.427H118.341C118.371 70.4016 118.397 70.3813 118.422 70.3611C118.458 70.3357 118.493 70.3053 118.523 70.2799C118.584 70.2292 118.645 70.1785 118.701 70.1278C118.735 70.1018 118.768 70.0729 118.797 70.0416C118.883 69.9655 118.965 69.8844 119.046 69.8032C119.089 69.7619 119.13 69.7178 119.167 69.6714C119.231 69.6109 119.29 69.5465 119.345 69.4787C119.396 69.4128 119.451 69.3468 119.502 69.2809C119.562 69.2117 119.618 69.1389 119.67 69.0629C119.761 68.9411 119.842 68.8194 119.923 68.6876C119.989 68.5811 120.055 68.4695 120.116 68.358C120.146 68.3022 120.177 68.2413 120.207 68.1805C120.212 68.1805 120.212 68.1754 120.212 68.1703C120.268 68.0638 120.319 67.9573 120.364 67.8458C120.385 67.8001 120.405 67.7596 120.42 67.7139C120.461 67.6277 120.491 67.5364 120.527 67.4452C120.582 67.2778 120.638 67.1054 120.684 66.933C120.724 66.7656 120.765 66.5983 120.79 66.4259C120.862 66.048 120.897 65.6643 120.897 65.2798V29.0313C120.894 27.3161 120.211 25.6719 118.998 24.459C117.785 23.2462 116.141 22.5635 114.426 22.5605Z" fill="#6C63FF"/>
<path opacity="0.3" d="M120.897 32.957H27.5879V33.4641H120.897V32.957Z" fill="white"/>
<path opacity="0.3" d="M120.897 38.5342H27.5879V39.0413H120.897V38.5342Z" fill="white"/>
<path opacity="0.3" d="M120.897 44.1133H27.5879V44.6204H120.897V44.1133Z" fill="white"/>
<path opacity="0.3" d="M120.897 49.6914H27.5879V50.1985H120.897V49.6914Z" fill="white"/>
<path opacity="0.3" d="M120.897 55.2705H27.5879V55.7776H120.897V55.2705Z" fill="white"/>
<path opacity="0.3" d="M120.897 60.8486H27.5879V61.3557H120.897V60.8486Z" fill="white"/>
<path opacity="0.3" d="M120.791 66.4258C120.765 66.5982 120.725 66.7655 120.684 66.9329H27.6595C27.6289 66.7652 27.6086 66.5959 27.5986 66.4258H120.791Z" fill="white"/>
<g opacity="0.1">
<path d="M120.897 57.4308V65.2809C120.897 65.6654 120.862 66.0491 120.79 66.427C120.765 66.5994 120.724 66.7667 120.684 66.9341C120.638 67.1065 120.582 67.2789 120.527 67.4463C120.491 67.5375 120.461 67.6288 120.42 67.715C120.405 67.7607 120.385 67.8012 120.364 67.8469C120.319 67.9584 120.268 68.0649 120.212 68.1714C120.212 68.1765 120.212 68.1815 120.207 68.1815C120.177 68.2424 120.146 68.3033 120.116 68.3591C120.055 68.4706 119.989 68.5822 119.923 68.6887C119.842 68.8205 119.761 68.9422 119.67 69.0639C119.618 69.1399 119.562 69.2128 119.502 69.282C119.451 69.3479 119.396 69.4139 119.345 69.4798C119.29 69.5476 119.231 69.612 119.167 69.6725C119.13 69.7189 119.089 69.7629 119.046 69.8043C118.965 69.8855 118.883 69.9666 118.797 70.0427C118.768 70.074 118.735 70.1029 118.701 70.1289C118.645 70.1796 118.584 70.2303 118.523 70.281C118.493 70.3064 118.458 70.3368 118.422 70.3622C118.397 70.3824 118.371 70.4027 118.341 70.4281H118.336C118.225 70.5154 118.11 70.5967 117.991 70.6715C117.991 70.6722 117.991 70.6728 117.991 70.6734C117.99 70.6741 117.99 70.6746 117.99 70.6751C117.989 70.6756 117.988 70.676 117.988 70.6762C117.987 70.6765 117.987 70.6766 117.986 70.6766C117.981 70.6766 117.981 70.6816 117.976 70.6867C117.905 70.7374 117.829 70.783 117.753 70.8287C117.712 70.854 117.671 70.8743 117.631 70.8946C117.622 70.9031 117.612 70.9099 117.6 70.9149C117.555 70.9402 117.514 70.9656 117.469 70.9859C117.352 71.0467 117.235 71.1076 117.114 71.1634C116.973 71.2299 116.829 71.2891 116.683 71.3409C116.68 71.344 116.677 71.3465 116.674 71.3482C116.67 71.35 116.666 71.3509 116.662 71.351C116.629 71.3651 116.595 71.3769 116.561 71.3865C116.495 71.4118 116.424 71.4372 116.358 71.4575C116.307 71.4727 116.262 71.4828 116.211 71.4981C116.104 71.5336 115.993 71.5589 115.881 71.5843C115.852 71.5934 115.821 71.6002 115.79 71.6045C115.734 71.6198 115.679 71.6299 115.623 71.64C115.62 71.6397 115.617 71.64 115.615 71.6409C115.612 71.6417 115.61 71.6432 115.608 71.6451C115.59 71.644 115.573 71.6475 115.557 71.6553C115.545 71.6544 115.533 71.6562 115.521 71.6603C115.435 71.6755 115.344 71.6857 115.253 71.7009C115.202 71.706 115.146 71.711 115.09 71.7161C115.082 71.7202 115.074 71.722 115.065 71.7212C115.009 71.7263 114.958 71.7313 114.908 71.7364H114.898C114.842 71.7415 114.786 71.7415 114.73 71.7465C114.629 71.7516 114.527 71.7516 114.426 71.7516H34.0587C32.631 71.7485 31.2442 71.2748 30.1129 70.4039C28.9816 69.533 28.169 68.3134 27.8009 66.934H27.6589C27.6283 66.7664 27.608 66.597 27.598 66.4269C27.593 66.3306 27.5879 66.2291 27.5879 66.1328V57.2888C28.6523 57.3202 29.7078 57.4924 30.7269 57.801C33.4856 58.6427 36.1682 60.0677 39.0486 60.0677C39.2768 60.0677 39.5152 60.0576 39.7485 60.0373C42.781 59.7838 45.1391 57.9024 47.1016 55.7776C47.2588 55.6102 47.416 55.4429 47.5631 55.2705C47.9333 54.8597 48.2883 54.4388 48.6331 54.023C49.7348 52.6316 50.9696 51.351 52.3198 50.1993C52.5379 50.0218 52.7559 49.8545 52.9791 49.6922C54.2884 48.7157 55.8303 48.0986 57.4518 47.9021C57.6597 47.8818 57.8676 47.8666 58.0756 47.8616C60.246 47.7956 62.2846 48.5766 64.1406 49.6922C64.4094 49.8545 64.6782 50.0218 64.9368 50.1993C65.8242 50.801 66.6791 51.4493 67.4977 52.1415C68.7616 53.2518 70.0818 54.2961 71.4532 55.2705C71.5546 55.3415 71.656 55.4124 71.7574 55.4733C71.9146 55.5798 72.0769 55.6812 72.2392 55.7776C73.6284 56.6705 75.1907 57.2598 76.8235 57.5068C76.8793 57.517 76.9402 57.5271 77.001 57.5322C79.6431 57.8415 82.1026 57.0606 84.3491 55.7776C84.628 55.6153 84.912 55.4479 85.1858 55.2705C86.9407 54.1041 88.5854 52.7802 90.0997 51.315C90.4953 50.9448 90.8959 50.5695 91.3117 50.1993C91.4994 50.032 91.687 49.8595 91.8797 49.6922C94.8919 47.0451 98.3657 44.6211 102.468 44.6211C102.641 44.6211 102.818 44.6262 102.996 44.6363C105.947 44.7783 108.538 46.2084 110.714 48.0238C111.346 48.5482 111.95 49.1051 112.524 49.6922C112.55 49.7176 112.57 49.7378 112.595 49.7632C112.737 49.9052 112.879 50.0522 113.011 50.1993C114.634 51.8981 116.13 53.7136 117.895 55.2705C118.087 55.4479 118.285 55.6153 118.488 55.7776C119.096 56.2828 119.74 56.7437 120.415 57.1569C120.572 57.2533 120.734 57.3445 120.897 57.4308Z" fill="black"/>
</g>
<g opacity="0.1">
<path d="M120.897 49.767V65.2796C120.897 65.6641 120.862 66.0479 120.79 66.4257C120.765 66.5981 120.724 66.7654 120.684 66.9328C120.638 67.1052 120.582 67.2776 120.527 67.445C120.491 67.5362 120.461 67.6275 120.42 67.7137C120.405 67.7594 120.385 67.7999 120.364 67.8456C120.319 67.9571 120.268 68.0636 120.212 68.1701C120.212 68.1752 120.212 68.1803 120.207 68.1803C120.177 68.2411 120.146 68.302 120.116 68.3578C120.055 68.4693 119.989 68.5809 119.923 68.6874C119.842 68.8192 119.761 68.9409 119.67 69.0627C119.618 69.1387 119.562 69.2115 119.502 69.2807C119.451 69.3466 119.396 69.4126 119.345 69.4785C119.29 69.5463 119.231 69.6107 119.167 69.6712C119.13 69.7176 119.089 69.7617 119.046 69.803C118.965 69.8842 118.883 69.9653 118.797 70.0414C118.768 70.0727 118.735 70.1016 118.701 70.1276C118.645 70.1783 118.584 70.229 118.523 70.2797C118.493 70.3051 118.458 70.3355 118.422 70.3609C118.397 70.3811 118.371 70.4014 118.341 70.4268H118.336C118.225 70.5141 118.11 70.5954 117.991 70.6702C117.991 70.6709 117.991 70.6715 117.991 70.6722C117.99 70.6728 117.99 70.6733 117.99 70.6738C117.989 70.6743 117.988 70.6747 117.988 70.6749C117.987 70.6752 117.987 70.6753 117.986 70.6753C117.981 70.6753 117.981 70.6804 117.976 70.6854C117.905 70.7361 117.829 70.7818 117.753 70.8274C117.712 70.8528 117.671 70.873 117.631 70.8933C117.622 70.9018 117.612 70.9087 117.6 70.9136C117.555 70.939 117.514 70.9643 117.469 70.9846C117.352 71.0455 117.235 71.1063 117.114 71.1621C116.973 71.2286 116.829 71.2878 116.683 71.3396C116.68 71.3427 116.677 71.3452 116.674 71.3469C116.67 71.3487 116.666 71.3496 116.662 71.3497C116.629 71.3638 116.595 71.3757 116.561 71.3852C116.495 71.4106 116.424 71.4359 116.358 71.4562C116.307 71.4714 116.262 71.4816 116.211 71.4968C116.104 71.5323 115.993 71.5576 115.881 71.583C115.852 71.5922 115.821 71.5989 115.79 71.6033C115.734 71.6185 115.679 71.6286 115.623 71.6387C115.62 71.6384 115.617 71.6387 115.615 71.6396C115.612 71.6404 115.61 71.6419 115.608 71.6438C115.59 71.6427 115.573 71.6462 115.557 71.654C115.545 71.6532 115.533 71.6549 115.521 71.6591C115.435 71.6743 115.344 71.6844 115.253 71.6996C115.202 71.7047 115.146 71.7098 115.09 71.7148C115.082 71.7189 115.074 71.7207 115.065 71.7199C115.04 71.7199 115.009 71.725 114.984 71.725C114.959 71.7292 114.933 71.7309 114.908 71.73C114.886 71.7344 114.864 71.7361 114.842 71.7351H114.816C114.791 71.7402 114.761 71.7402 114.73 71.7452C114.629 71.7503 114.527 71.7503 114.426 71.7503H34.0587C32.631 71.7472 31.2442 71.2735 30.1129 70.4026C28.9817 69.5317 28.169 68.3121 27.8009 66.9327C27.7603 66.7654 27.7198 66.598 27.6944 66.4256C27.6229 66.0478 27.5872 65.6641 27.5879 65.2795V56.2479C27.7654 56.0958 27.9378 55.9386 28.1102 55.7763C28.2877 55.609 28.4601 55.4416 28.6326 55.2692C30.1431 53.697 31.5188 52.0007 32.7452 50.1981C32.7858 50.1423 32.8264 50.0916 32.8619 50.0358C32.943 49.9192 33.0241 49.8076 33.1104 49.6909C34.3402 47.8909 35.7158 46.1949 37.223 44.6198C37.3955 44.4474 37.5679 44.28 37.7454 44.1127C39.6318 42.3378 41.782 41.0142 44.3176 40.6998C47.8116 40.2637 51.0622 41.8814 53.9375 44.1127C54.1505 44.28 54.3584 44.4474 54.5663 44.6198C55.5501 45.421 56.4832 46.2933 57.3656 47.1605C57.5988 47.3937 57.8372 47.627 58.0755 47.8603C58.6892 48.4739 59.318 49.0875 59.9519 49.6909C60.1344 49.8633 60.3119 50.0307 60.4945 50.1981C63.03 52.546 65.7735 54.6099 69.0342 55.2692C69.2574 55.3148 69.4856 55.3554 69.7138 55.3858C70.9458 55.5499 72.1964 55.5105 73.4157 55.2692C73.6186 55.2337 73.8163 55.188 74.0192 55.1373C77.072 54.3817 79.9017 52.4801 82.4626 50.1981C82.6452 50.0307 82.8328 49.8633 83.0154 49.6909C84.3237 48.4789 85.5662 47.1807 86.7274 45.9028C87.1128 45.4768 87.5084 45.0458 87.9039 44.6198C88.0662 44.4525 88.2234 44.2851 88.3806 44.1127C90.0778 42.2631 91.9342 40.5662 93.9284 39.0416C94.1668 38.8641 94.4051 38.6967 94.6435 38.5345C97.3261 36.7038 100.257 35.5273 103.477 35.7149C106.135 35.867 108.564 36.9624 110.749 38.5345C110.973 38.6967 111.196 38.8641 111.419 39.0416C113.082 40.3778 114.6 41.8854 115.947 43.5397C116.104 43.7273 116.262 43.92 116.419 44.1127C116.5 44.2091 116.576 44.3105 116.657 44.4068L116.825 44.6198C118.168 46.2984 119.462 48.0428 120.836 49.6909L120.897 49.767Z" fill="black"/>
</g>
<g opacity="0.1">
<path d="M120.897 43.363V65.2805C120.897 65.665 120.862 66.0487 120.79 66.4266C120.765 66.599 120.724 66.7663 120.684 66.9337C120.638 67.1061 120.582 67.2785 120.527 67.4459C120.491 67.5371 120.461 67.6284 120.42 67.7146C120.405 67.7603 120.385 67.8008 120.364 67.8465C120.319 67.958 120.268 68.0645 120.212 68.171C120.212 68.1761 120.212 68.1812 120.207 68.1812C120.177 68.242 120.146 68.3029 120.116 68.3587C120.055 68.4702 119.989 68.5818 119.923 68.6883C119.842 68.8201 119.761 68.9418 119.67 69.0636C119.618 69.1396 119.562 69.2124 119.502 69.2816C119.451 69.3475 119.396 69.4135 119.345 69.4794C119.29 69.5472 119.231 69.6116 119.167 69.6721C119.13 69.7185 119.089 69.7626 119.046 69.8039C118.965 69.8851 118.883 69.9662 118.797 70.0423C118.768 70.0736 118.735 70.1025 118.701 70.1285C118.645 70.1792 118.584 70.2299 118.523 70.2806C118.493 70.306 118.458 70.3364 118.422 70.3618C118.397 70.382 118.371 70.4023 118.341 70.4277H118.336C118.225 70.515 118.11 70.5963 117.991 70.6711C117.991 70.6718 117.991 70.6724 117.991 70.6731C117.99 70.6737 117.99 70.6742 117.99 70.6747C117.989 70.6752 117.988 70.6756 117.988 70.6758C117.987 70.6761 117.987 70.6762 117.986 70.6762C117.981 70.6762 117.981 70.6813 117.976 70.6863C117.905 70.737 117.829 70.7826 117.753 70.8283C117.712 70.8537 117.671 70.8739 117.631 70.8942C117.622 70.9027 117.612 70.9095 117.6 70.9145C117.555 70.9398 117.514 70.9652 117.469 70.9855C117.352 71.0463 117.235 71.1072 117.114 71.163C116.973 71.2295 116.829 71.2887 116.683 71.3405C116.68 71.3436 116.677 71.3461 116.674 71.3478C116.67 71.3496 116.666 71.3505 116.662 71.3506C116.629 71.3647 116.595 71.3766 116.561 71.3861C116.495 71.4115 116.424 71.4368 116.358 71.4571C116.307 71.4723 116.262 71.4824 116.211 71.4977C116.104 71.5332 115.993 71.5585 115.881 71.5839C115.852 71.593 115.821 71.5998 115.79 71.6041C115.734 71.6194 115.679 71.6295 115.623 71.6396C115.62 71.6393 115.617 71.6396 115.615 71.6405C115.612 71.6413 115.61 71.6428 115.608 71.6447C115.59 71.6436 115.573 71.6471 115.557 71.6549C115.545 71.6541 115.533 71.6558 115.521 71.6599C115.435 71.6751 115.344 71.6853 115.253 71.7005C115.202 71.7056 115.146 71.7106 115.09 71.7157C115.082 71.7198 115.074 71.7216 115.065 71.7208C115.04 71.7208 115.009 71.7259 114.984 71.7259C114.959 71.73 114.933 71.7317 114.908 71.7309C114.905 71.7337 114.901 71.7354 114.898 71.736H114.816C114.69 71.7461 114.558 71.7512 114.426 71.7512H34.0587C32.631 71.7481 31.2442 71.2744 30.1129 70.4035C28.9817 69.5326 28.169 68.313 27.8009 66.9336C27.7603 66.7663 27.7198 66.5989 27.6944 66.4265C27.6229 66.0487 27.5872 65.665 27.5879 65.2804V52.1868C28.1001 51.5225 28.614 50.8599 29.1295 50.1989C29.2614 50.0265 29.3932 49.8592 29.5251 49.6918C30.2198 48.7993 30.9196 47.9169 31.6397 47.0548C32.3294 46.2282 33.0546 45.4118 33.8102 44.6207C33.9725 44.4533 34.1347 44.2809 34.3021 44.1136C36.2259 42.1093 38.4354 40.4005 40.8591 39.0425C41.1887 38.8599 41.5234 38.6926 41.8632 38.5354C43.6624 37.6763 45.609 37.1686 47.5986 37.0394C50.2085 36.909 52.8104 37.4228 55.1749 38.5354C55.5298 38.6875 55.8797 38.8599 56.2246 39.0425C58.7044 40.3204 61.032 42.1105 63.2126 44.1136C63.4002 44.2759 63.5777 44.4483 63.7603 44.6207C65.4895 46.2435 67.1275 47.9829 68.6894 49.6918C68.8061 49.8186 68.9227 49.9505 69.0393 50.0772C69.0748 50.1178 69.1154 50.1584 69.1509 50.1989C70.6723 51.8724 72.295 53.5662 74.0192 55.1382C74.0648 55.1838 74.1155 55.2244 74.1662 55.2701C74.3539 55.4425 74.5415 55.6098 74.7342 55.7772C75.4137 56.3807 76.1136 56.9587 76.8235 57.5064C78.5061 58.8316 80.3393 59.9534 82.2851 60.8483C82.6959 61.036 83.1117 61.2033 83.5326 61.3554C85.8513 62.241 88.3534 62.5372 90.8148 62.2175C91.9453 62.061 93.0534 61.7716 94.1161 61.3554C94.5218 61.2033 94.9173 61.0309 95.3078 60.8483C97.8788 59.6312 100.201 57.7904 102.402 55.7772C102.585 55.6098 102.767 55.4425 102.95 55.2701C104.203 54.0936 105.42 52.8714 106.621 51.6899C107.129 51.1929 107.646 50.6908 108.178 50.1989C108.361 50.0316 108.549 49.8642 108.736 49.6918C109.375 49.1188 110.034 48.5559 110.714 48.0234C112.375 46.6641 114.202 45.5207 116.15 44.6207C116.317 44.5446 116.49 44.4736 116.657 44.4077C116.916 44.3012 117.174 44.2049 117.433 44.1136C118.55 43.7134 119.714 43.4611 120.897 43.363Z" fill="black"/>
</g>
<path d="M47.618 40.0544C48.4582 40.0544 49.1394 39.3733 49.1394 38.5331C49.1394 37.6928 48.4582 37.0117 47.618 37.0117C46.7778 37.0117 46.0967 37.6928 46.0967 38.5331C46.0967 39.3733 46.7778 40.0544 47.618 40.0544Z" fill="white"/>
<path d="M70.9471 56.7917C71.7873 56.7917 72.4685 56.1106 72.4685 55.2704C72.4685 54.4301 71.7873 53.749 70.9471 53.749C70.1069 53.749 69.4258 54.4301 69.4258 55.2704C69.4258 56.1106 70.1069 56.7917 70.9471 56.7917Z" fill="white"/>
<path d="M102.388 45.6345C103.228 45.6345 103.909 44.9533 103.909 44.1131C103.909 43.2729 103.228 42.5918 102.388 42.5918C101.547 42.5918 100.866 43.2729 100.866 44.1131C100.866 44.9533 101.547 45.6345 102.388 45.6345Z" fill="white"/>
<path d="M171.588 57.0938H135.715C135.545 57.0935 135.377 57.1268 135.219 57.1917C135.062 57.2567 134.919 57.352 134.799 57.4722C134.678 57.5924 134.583 57.7352 134.518 57.8923C134.452 58.0495 134.419 58.218 134.419 58.3881C134.419 58.5583 134.452 58.7267 134.518 58.8839C134.583 59.0411 134.678 59.1838 134.799 59.3041C134.919 59.4243 135.062 59.5196 135.219 59.5845C135.377 59.6495 135.545 59.6828 135.715 59.6825H171.588C171.931 59.6825 172.26 59.5461 172.503 59.3034C172.746 59.0606 172.882 58.7314 172.882 58.3881C172.882 58.0448 172.746 57.7156 172.503 57.4729C172.26 57.2301 171.931 57.0938 171.588 57.0938Z" fill="#E6E6E6"/>
<path d="M171.588 76.6943H135.715C135.372 76.6943 135.043 76.8307 134.8 77.0734C134.557 77.3162 134.421 77.6454 134.421 77.9887C134.421 78.332 134.557 78.6612 134.8 78.904C135.043 79.1467 135.372 79.2831 135.715 79.2831H171.588C171.931 79.2831 172.26 79.1467 172.503 78.904C172.746 78.6612 172.882 78.332 172.882 77.9887C172.882 77.6454 172.746 77.3162 172.503 77.0734C172.26 76.8307 171.931 76.6943 171.588 76.6943Z" fill="#E6E6E6"/>
<path d="M171.588 96.2939H135.715C135.372 96.2939 135.043 96.4303 134.8 96.6731C134.557 96.9158 134.421 97.245 134.421 97.5883C134.421 97.9316 134.557 98.2608 134.8 98.5036C135.043 98.7463 135.372 98.8827 135.715 98.8827H171.588C171.931 98.8827 172.26 98.7463 172.503 98.5036C172.746 98.2608 172.882 97.9316 172.882 97.5883C172.882 97.245 172.746 96.9158 172.503 96.6731C172.26 96.4303 171.931 96.2939 171.588 96.2939Z" fill="#E6E6E6"/>
<path d="M193.324 61.7178C195.109 61.7178 196.557 60.2706 196.557 58.4854C196.557 56.7001 195.109 55.2529 193.324 55.2529C191.539 55.2529 190.092 56.7001 190.092 58.4854C190.092 60.2706 191.539 61.7178 193.324 61.7178Z" fill="#F2F2F2"/>
<path d="M192.883 60.1675C192.827 60.1675 192.772 60.1545 192.722 60.1295C192.673 60.1045 192.629 60.0683 192.596 60.0236L191.714 58.8478C191.685 58.81 191.665 58.767 191.653 58.7212C191.641 58.6755 191.639 58.6278 191.645 58.5811C191.652 58.5343 191.668 58.4893 191.692 58.4486C191.716 58.4079 191.748 58.3724 191.785 58.344C191.823 58.3157 191.866 58.2951 191.912 58.2834C191.958 58.2717 192.005 58.2691 192.052 58.2758C192.099 58.2825 192.144 58.2984 192.185 58.3225C192.225 58.3466 192.261 58.3785 192.289 58.4163L192.866 59.1855L194.348 56.9628C194.401 56.8835 194.483 56.8284 194.577 56.8097C194.67 56.791 194.767 56.8102 194.846 56.8631C194.926 56.916 194.981 56.9983 195 57.0918C195.018 57.1853 194.999 57.2824 194.946 57.3618L193.182 60.0073C193.151 60.0552 193.108 60.0947 193.057 60.1225C193.007 60.1504 192.951 60.1658 192.893 60.1674L192.883 60.1675Z" fill="white"/>
<path d="M193.324 81.3174C195.109 81.3174 196.557 79.8702 196.557 78.085C196.557 76.2998 195.109 74.8525 193.324 74.8525C191.539 74.8525 190.092 76.2998 190.092 78.085C190.092 79.8702 191.539 81.3174 193.324 81.3174Z" fill="#F2F2F2"/>
<path d="M192.883 79.7681C192.827 79.7681 192.772 79.7551 192.722 79.7301C192.673 79.7051 192.629 79.6689 192.596 79.6242L191.714 78.4484C191.685 78.4106 191.665 78.3676 191.653 78.3218C191.641 78.2761 191.639 78.2284 191.645 78.1816C191.652 78.1349 191.668 78.0899 191.692 78.0492C191.716 78.0085 191.748 77.973 191.785 77.9446C191.823 77.9163 191.866 77.8957 191.912 77.8839C191.958 77.8722 192.005 77.8697 192.052 77.8764C192.099 77.8831 192.144 77.899 192.185 77.9231C192.225 77.9472 192.261 77.9791 192.289 78.0169L192.866 78.7861L194.348 76.5634C194.374 76.5241 194.408 76.4904 194.447 76.4641C194.486 76.4379 194.53 76.4196 194.577 76.4103C194.623 76.401 194.67 76.401 194.717 76.4102C194.763 76.4193 194.807 76.4375 194.846 76.4637C194.886 76.4899 194.92 76.5236 194.946 76.5628C194.972 76.602 194.99 76.6461 195 76.6924C195.009 76.7387 195.009 76.7864 195 76.8327C194.991 76.879 194.972 76.9231 194.946 76.9623L193.182 79.6079C193.151 79.6558 193.108 79.6953 193.057 79.7231C193.007 79.751 192.951 79.7663 192.893 79.7679L192.883 79.7681Z" fill="white"/>
<path d="M193.324 100.918C195.109 100.918 196.557 99.4708 196.557 97.6856C196.557 95.9003 195.109 94.4531 193.324 94.4531C191.539 94.4531 190.092 95.9003 190.092 97.6856C190.092 99.4708 191.539 100.918 193.324 100.918Z" fill="#F2F2F2"/>
<path d="M171.588 37.4922H135.715C135.372 37.4922 135.043 37.6286 134.8 37.8713C134.557 38.1141 134.421 38.4433 134.421 38.7866C134.421 39.1299 134.557 39.4591 134.8 39.7018C135.043 39.9446 135.372 40.0809 135.715 40.0809H171.588C171.931 40.0809 172.26 39.9446 172.503 39.7018C172.746 39.4591 172.882 39.1299 172.882 38.7866C172.882 38.4433 172.746 38.1141 172.503 37.8713C172.26 37.6286 171.931 37.4922 171.588 37.4922Z" fill="#E6E6E6"/>
<path d="M193.324 42.1163C195.109 42.1163 196.557 40.6691 196.557 38.8838C196.557 37.0986 195.109 35.6514 193.324 35.6514C191.539 35.6514 190.092 37.0986 190.092 38.8838C190.092 40.6691 191.539 42.1163 193.324 42.1163Z" fill="#6C63FF"/>
<path d="M192.883 40.5659C192.827 40.5659 192.772 40.5529 192.722 40.5279C192.673 40.503 192.629 40.4667 192.596 40.4221L191.714 39.2462C191.685 39.2085 191.665 39.1655 191.653 39.1197C191.641 39.0739 191.639 39.0263 191.645 38.9795C191.652 38.9327 191.668 38.8877 191.692 38.847C191.716 38.8064 191.748 38.7708 191.785 38.7425C191.823 38.7141 191.866 38.6935 191.912 38.6818C191.958 38.6701 192.005 38.6675 192.052 38.6742C192.099 38.6809 192.144 38.6968 192.185 38.7209C192.225 38.745 192.261 38.7769 192.289 38.8148L192.866 39.584L194.348 37.3613C194.374 37.322 194.408 37.2882 194.447 37.262C194.486 37.2357 194.53 37.2174 194.576 37.2082C194.623 37.1989 194.67 37.1988 194.717 37.208C194.763 37.2172 194.807 37.2354 194.846 37.2616C194.886 37.2877 194.92 37.3214 194.946 37.3607C194.972 37.3999 194.99 37.4439 195 37.4902C195.009 37.5365 195.009 37.5842 195 37.6305C194.991 37.6768 194.972 37.7209 194.946 37.7602L193.182 40.4058C193.151 40.4536 193.108 40.4931 193.057 40.521C193.007 40.5488 192.951 40.5642 192.893 40.5658L192.883 40.5659Z" fill="white"/>
<path d="M182.601 42.1163C184.386 42.1163 185.833 40.6691 185.833 38.8838C185.833 37.0986 184.386 35.6514 182.601 35.6514C180.815 35.6514 179.368 37.0986 179.368 38.8838C179.368 40.6691 180.815 42.1163 182.601 42.1163Z" fill="#F2F2F2"/>
<path d="M182.601 61.7178C184.386 61.7178 185.833 60.2706 185.833 58.4854C185.833 56.7001 184.386 55.2529 182.601 55.2529C180.815 55.2529 179.368 56.7001 179.368 58.4854C179.368 60.2706 180.815 61.7178 182.601 61.7178Z" fill="#F2F2F2"/>
<path d="M182.601 81.3174C184.386 81.3174 185.833 79.8702 185.833 78.085C185.833 76.2998 184.386 74.8525 182.601 74.8525C180.815 74.8525 179.368 76.2998 179.368 78.085C179.368 79.8702 180.815 81.3174 182.601 81.3174Z" fill="#F2F2F2"/>
<path d="M182.601 100.918C184.386 100.918 185.833 99.4708 185.833 97.6856C185.833 95.9003 184.386 94.4531 182.601 94.4531C180.815 94.4531 179.368 95.9003 179.368 97.6856C179.368 99.4708 180.815 100.918 182.601 100.918Z" fill="#F2F2F2"/>
<path d="M192.883 99.3677C192.827 99.3677 192.772 99.3547 192.722 99.3297C192.672 99.3047 192.629 99.2685 192.595 99.2238L191.714 98.048C191.685 98.0102 191.665 97.9672 191.653 97.9215C191.641 97.8757 191.639 97.8281 191.645 97.7814C191.652 97.7347 191.668 97.6897 191.692 97.6491C191.716 97.6084 191.748 97.5729 191.785 97.5446C191.823 97.5163 191.866 97.4957 191.912 97.4839C191.958 97.4722 192.005 97.4696 192.052 97.4763C192.099 97.483 192.144 97.4988 192.184 97.5229C192.225 97.5469 192.26 97.5788 192.289 97.6165L192.866 98.3857L194.348 96.163C194.4 96.0837 194.483 96.0286 194.576 96.0099C194.67 95.9912 194.767 96.0104 194.846 96.0633C194.926 96.1162 194.981 96.1985 194.999 96.292C195.018 96.3855 194.999 96.4826 194.946 96.562L193.182 99.2076C193.15 99.2554 193.107 99.2949 193.057 99.3227C193.007 99.3506 192.95 99.3659 192.893 99.3676L192.883 99.3677Z" fill="white"/>
<path d="M188.221 160.829C188.223 160.847 188.219 160.866 188.212 160.883C188.205 160.9 188.194 160.915 188.179 160.927C188.157 160.943 188.131 160.954 188.104 160.958C188.076 160.963 188.047 160.958 188.023 160.943C187.999 160.928 187.982 160.904 187.975 160.877C187.59 159.58 186.645 158.585 185.751 157.609C184.946 156.734 184.155 155.812 183.749 154.675C183.574 154.223 183.496 153.739 183.521 153.254C183.546 152.77 183.674 152.297 183.895 151.866C184.034 151.608 184.196 151.363 184.378 151.133C184.778 150.625 185.253 150.172 185.681 149.691C185.726 149.641 185.77 149.588 185.812 149.537C185.871 149.473 185.924 149.406 185.974 149.339C186.507 148.68 186.878 147.904 187.056 147.075C187.247 146.064 187.276 145.029 187.143 144.009C187.087 143.467 187.009 142.928 186.911 142.393C186.905 142.368 186.902 142.346 186.897 142.324C186.465 140.03 185.681 137.817 184.571 135.764C184.529 135.688 184.49 135.613 184.448 135.54C184.269 135.216 184.085 134.897 183.889 134.584C183.956 134.537 184.029 134.492 184.102 134.45C184.743 135.488 185.301 136.575 185.77 137.701C186.377 139.145 186.834 140.648 187.131 142.187C187.151 142.27 187.165 142.357 187.179 142.441C187.296 143.087 187.383 143.741 187.436 144.392C187.541 145.414 187.471 146.446 187.229 147.444C187.01 148.236 186.622 148.971 186.092 149.599C185.997 149.719 185.896 149.836 185.79 149.951C185.365 150.415 184.895 150.865 184.513 151.371C184.317 151.625 184.151 151.901 184.018 152.193C183.568 153.199 183.78 154.3 184.278 155.245C185.178 156.964 186.894 158.135 187.808 159.82C187.977 160.13 188.113 160.457 188.216 160.795C188.219 160.806 188.221 160.818 188.221 160.829Z" fill="white"/>
<path d="M187.065 142.471C187.85 142.274 188.539 141.804 189.009 141.146C189.48 140.487 189.701 139.683 189.633 138.877C189.619 138.714 189.365 138.728 189.379 138.892C189.443 139.642 189.237 140.391 188.798 141.004C188.359 141.616 187.715 142.051 186.983 142.23C186.824 142.269 186.907 142.51 187.065 142.471Z" fill="white"/>
<path d="M186.045 149.379C184.618 148.542 183.559 147.199 183.079 145.616C183.032 145.459 182.791 145.541 182.838 145.697C183.341 147.344 184.446 148.74 185.933 149.607C186.074 149.69 186.186 149.461 186.045 149.379Z" fill="white"/>
<path d="M184.602 135.749C184.591 135.755 184.583 135.758 184.571 135.763C184.068 135.993 183.495 136.02 182.973 135.839C182.996 135.757 183.025 135.676 183.059 135.598C183.513 135.754 184.009 135.733 184.448 135.54C184.474 135.531 184.496 135.52 184.521 135.509C184.553 135.498 184.588 135.5 184.618 135.515C184.649 135.529 184.672 135.555 184.683 135.587C184.692 135.619 184.689 135.654 184.674 135.684C184.659 135.714 184.633 135.737 184.602 135.749Z" fill="white"/>
<path d="M170.671 92.9207C170.915 92.6265 171.092 92.2822 171.189 91.9121C171.286 91.542 171.3 91.1552 171.232 90.7789C171.163 90.4026 171.013 90.0459 170.791 89.734C170.57 89.4221 170.282 89.1625 169.95 88.9736L171.638 79.8291L167.188 81.713L166.267 90.1079C165.987 90.6878 165.929 91.3503 166.104 91.97C166.28 92.5897 166.677 93.1235 167.219 93.4702C167.762 93.8169 168.413 93.9525 169.049 93.8512C169.686 93.75 170.262 93.4189 170.671 92.9207Z" fill="#FFB6B6"/>
<path d="M173.387 65.8551L171.972 61.1009L162 45.5413C161.445 44.8935 160.782 44.3469 160.041 43.9259C158.567 43.0834 156.849 42.7715 155.173 43.0423C153.497 43.3131 151.964 44.1501 150.83 45.4139C149.697 46.6777 149.03 48.2918 148.943 49.9873C148.855 51.6827 149.351 53.3571 150.348 54.7312C150.553 55.0183 150.78 55.2893 151.027 55.5417L163.942 68.8625L164.678 69.6227L165.84 72.563L166.299 85.9705L166.709 86.0683L170.329 86.9207L170.835 87.0409L171.682 82.6612L172.213 80.5678C172.664 78.7825 172.893 76.948 172.892 75.1064C172.892 74.5391 172.872 73.9689 172.828 73.4015L173.387 65.8551Z" fill="#3F3D56"/>
<path d="M159.678 158.31H156.215L154.567 144.953L159.678 144.953L159.678 158.31Z" fill="#FFB6B6"/>
<path d="M159.584 157.179L155.889 155.679L155.78 155.634L153.74 157.179C152.62 157.179 151.544 157.611 150.735 158.386C149.926 159.16 149.448 160.217 149.399 161.335C149.394 161.397 149.394 161.461 149.394 161.526V161.668H160.559V157.179H159.584Z" fill="#2F2E41"/>
<path d="M153.084 151.402L150.099 153.158L141.905 142.481L146.31 139.89L153.084 151.402Z" fill="#FFB6B6"/>
<path d="M155.145 153.163L154.739 152.473L153.272 149.979L152.509 150.429L152.431 150.474L148.484 151.056L148.367 151.072L147.394 153.44C146.902 153.729 146.472 154.112 146.128 154.568C145.784 155.024 145.533 155.543 145.39 156.095C145.247 156.648 145.214 157.223 145.293 157.789C145.372 158.354 145.562 158.898 145.851 159.39L145.924 159.51L155.547 153.848L155.145 153.163Z" fill="#2F2E41"/>
<path d="M164.063 76.6523C165.686 81.5491 165.515 86.8643 163.672 92.569L163.192 112.18L161.647 124.55C162.579 126.974 163.056 129.548 163.057 132.145C163.05 138.951 162.592 148.621 160.272 153.163H154.781L153.542 132.935L152.063 122.764L151.88 111.866L151.721 102.361L145.751 111.091L139.95 119.575L145.716 129.301L150.747 144.953L145.436 149.425L139.412 138.004L136.493 134.612L128.522 117.358L129.239 114.956C130.714 110.009 132.856 105.286 135.606 100.917L143.534 82.5177L164.063 76.6523Z" fill="#2F2E41"/>
<path d="M164.768 75.0186L163.862 73.2075L163.943 68.8641L164.214 54.1794C164.247 52.2774 163.894 50.3884 163.177 48.6265C162.46 46.8645 161.393 45.2661 160.041 43.9275C159.239 43.1283 158.342 42.4308 157.369 41.8509L155.424 40.6881L154.44 38.1895L145.368 38.4103L145.348 40.8335L145.34 41.686L142.089 46.8678L142.092 46.8902L142.159 56.3204L142.293 75.0913L143.191 78.0009L141.835 81.3884L142.556 83.5461L143.132 83.4538L162.523 80.3542C163.405 80.0714 164.153 79.4773 164.628 78.6828C164.723 78.5275 164.807 78.3649 164.877 78.1965C165.088 77.6902 165.188 77.1441 165.169 76.5957C165.15 76.0472 165.013 75.5093 164.768 75.0186Z" fill="#3F3D56"/>
<path d="M149.073 35.0797C153.626 35.0797 157.317 31.3888 157.317 26.8358C157.317 22.2827 153.626 18.5918 149.073 18.5918C144.52 18.5918 140.829 22.2827 140.829 26.8358C140.829 31.3888 144.52 35.0797 149.073 35.0797Z" fill="#FFB6B6"/>
<path d="M154.2 33.6681C155.071 33.0554 155.953 31.8892 156.54 31.0161C157.318 29.8684 157.847 28.5699 158.091 27.2048C158.336 25.8398 158.291 24.4386 157.959 23.092C157.852 22.5533 157.599 22.054 157.229 21.6481C157.04 21.4499 156.793 21.3167 156.524 21.2675C156.254 21.2183 155.976 21.2556 155.729 21.3741C155.854 21.0261 155.905 20.6561 155.881 20.2872C155.857 19.9183 155.758 19.5583 155.589 19.2293C155.247 18.5724 154.757 18.0043 154.157 17.57C153.009 16.7111 151.65 16.1791 150.224 16.0302C148.798 15.8814 147.359 16.1213 146.058 16.7246C145.547 16.9703 146.367 15.1159 145.831 15.3011C145.298 15.5158 144.703 15.5136 144.172 15.2949C143.661 15.0467 142.002 16.586 142.189 16.0501C141.807 16.2301 141.476 16.5039 141.228 16.846C140.98 17.1881 140.823 17.5874 140.771 18.0067C140.719 18.4259 140.774 18.8516 140.931 19.244C141.087 19.6363 141.341 19.9827 141.667 20.2507C142.098 20.6039 142.632 20.8033 143.102 21.1018C143.926 21.6647 144.515 22.5098 144.759 23.4776C145.002 24.4454 144.883 25.4689 144.424 26.3548C144.91 26.0332 145.444 25.792 146.007 25.6408C146.289 25.5677 146.585 25.5632 146.869 25.6274C147.154 25.6917 147.419 25.8229 147.642 26.0102C147.829 26.2189 147.972 26.4636 148.062 26.7294C148.151 26.9953 148.185 27.2766 148.162 27.5561C148.151 28.1157 148.026 28.6687 148.019 29.2284C147.997 30.8707 147.161 34.0041 148.446 34.8591C149.46 35.5338 153.011 34.5045 154.2 33.6681Z" fill="#2F2E41"/>
<path d="M103.274 46.8893C103.469 47.2184 103.734 47.5008 104.05 47.7164C104.366 47.9321 104.725 48.0758 105.103 48.1376C105.48 48.1993 105.867 48.1775 106.235 48.0737C106.603 47.9699 106.944 47.7867 107.234 47.5369L115.279 52.1994L115 47.3752L107.403 43.6872C106.951 43.2283 106.346 42.9511 105.704 42.9082C105.061 42.8653 104.425 43.0596 103.916 43.4543C103.407 43.849 103.061 44.4167 102.942 45.0498C102.824 45.6829 102.942 46.3374 103.274 46.8893Z" fill="#FFB6B6"/>
<path d="M155.23 45.4449C154.917 44.4694 154.407 43.5689 153.73 42.8002C153.053 42.0314 152.225 41.411 151.296 40.9779C150.368 40.5448 149.361 40.3083 148.337 40.2834C147.313 40.2586 146.295 40.4457 145.347 40.8333C145.257 40.8696 145.168 40.9087 145.078 40.9479L127.23 49.0728L120.281 48.2483L111.287 45.1068L111.058 45.4617L109.037 48.5837L108.755 49.0197L118.403 54.7242L119.426 54.9366C120.317 55.1209 121.162 55.4792 121.915 55.991C122.667 56.5027 123.31 57.1579 123.809 57.9189L127.548 59.1486L142.157 56.3201L150.347 54.7326L150.811 54.6432C152.214 54.1031 153.421 53.1507 154.272 51.9115C155.124 50.6722 155.581 49.2041 155.582 47.7005C155.582 46.9349 155.463 46.1739 155.23 45.4449Z" fill="#3F3D56"/>
<path d="M196.763 162H99.5018C99.4135 162 99.3288 161.964 99.2664 161.902C99.204 161.84 99.1689 161.755 99.1689 161.667C99.1689 161.579 99.204 161.494 99.2664 161.431C99.3288 161.369 99.4135 161.334 99.5018 161.334H196.763C196.851 161.334 196.936 161.369 196.998 161.431C197.061 161.494 197.096 161.579 197.096 161.667C197.096 161.755 197.061 161.84 196.998 161.902C196.936 161.964 196.851 162 196.763 162Z" fill="#CCCCCC"/>
<path d="M92.0811 84.2402H33.0102C32.6673 84.2407 32.3386 84.3773 32.0962 84.62C31.8539 84.8627 31.7178 85.1917 31.7178 85.5346C31.7178 85.8776 31.8539 86.2065 32.0962 86.4492C32.3386 86.6919 32.6673 86.8285 33.0102 86.829H92.0811C92.2512 86.8292 92.4198 86.7959 92.577 86.731C92.7343 86.6661 92.8772 86.5708 92.9976 86.4505C93.118 86.3303 93.2135 86.1876 93.2787 86.0304C93.3438 85.8732 93.3774 85.7048 93.3774 85.5346C93.3774 85.3645 93.3438 85.196 93.2787 85.0388C93.2135 84.8817 93.118 84.7389 92.9976 84.6187C92.8772 84.4985 92.7343 84.4032 92.577 84.3382C92.4198 84.2733 92.2512 84.24 92.0811 84.2402H92.0811Z" fill="#E6E6E6"/>
<path d="M113.815 88.8643C115.601 88.8643 117.048 87.4171 117.048 85.6319C117.048 83.8466 115.601 82.3994 113.815 82.3994C112.03 82.3994 110.583 83.8466 110.583 85.6319C110.583 87.4171 112.03 88.8643 113.815 88.8643Z" fill="#6C63FF"/>
<path d="M113.376 87.314C113.32 87.314 113.265 87.301 113.215 87.276C113.165 87.251 113.122 87.2148 113.089 87.1701L112.207 85.9943C112.178 85.9565 112.158 85.9135 112.146 85.8678C112.134 85.822 112.132 85.7744 112.138 85.7277C112.145 85.6809 112.161 85.636 112.185 85.5953C112.209 85.5547 112.241 85.5192 112.279 85.4909C112.316 85.4626 112.359 85.442 112.405 85.4302C112.451 85.4185 112.498 85.4159 112.545 85.4226C112.592 85.4293 112.637 85.4451 112.678 85.4692C112.718 85.4932 112.754 85.525 112.782 85.5628L113.359 86.332L114.841 84.1093C114.867 84.0701 114.901 84.0363 114.94 84.01C114.979 83.9838 115.023 83.9655 115.069 83.9562C115.116 83.9469 115.163 83.9469 115.21 83.9561C115.256 83.9652 115.3 83.9834 115.339 84.0096C115.379 84.0358 115.412 84.0695 115.439 84.1087C115.465 84.1479 115.483 84.192 115.493 84.2383C115.502 84.2846 115.502 84.3323 115.493 84.3786C115.483 84.4249 115.465 84.469 115.439 84.5082L113.675 87.1538C113.643 87.2017 113.601 87.2412 113.55 87.269C113.5 87.2969 113.444 87.3122 113.386 87.3138L113.376 87.314Z" fill="white"/>
<path d="M103.093 88.8643C104.878 88.8643 106.325 87.4171 106.325 85.6319C106.325 83.8466 104.878 82.3994 103.093 82.3994C101.308 82.3994 99.8604 83.8466 99.8604 85.6319C99.8604 87.4171 101.308 88.8643 103.093 88.8643Z" fill="#F2F2F2"/>
<path d="M91.8018 99.8936H32.7309C32.388 99.8941 32.0593 100.031 31.8169 100.273C31.5746 100.516 31.4385 100.845 31.4385 101.188C31.4385 101.531 31.5746 101.86 31.8169 102.103C32.0593 102.345 32.388 102.482 32.7309 102.482H91.8018C92.1451 102.482 92.4743 102.346 92.7171 102.103C92.9598 101.86 93.0962 101.531 93.0962 101.188C93.0962 100.845 92.9598 100.515 92.7171 100.273C92.4743 100.03 92.1451 99.8936 91.8018 99.8936H91.8018Z" fill="#E6E6E6"/>
<path d="M113.537 104.518C115.322 104.518 116.77 103.07 116.77 101.285C116.77 99.4999 115.322 98.0527 113.537 98.0527C111.752 98.0527 110.305 99.4999 110.305 101.285C110.305 103.07 111.752 104.518 113.537 104.518Z" fill="#F2F2F2"/>
<path d="M113.096 102.967C113.04 102.967 112.985 102.954 112.935 102.929C112.885 102.904 112.842 102.868 112.808 102.823L111.926 101.648C111.869 101.571 111.845 101.475 111.858 101.381C111.872 101.287 111.922 101.201 111.998 101.144C112.075 101.087 112.171 101.062 112.265 101.076C112.359 101.089 112.445 101.14 112.502 101.216L113.079 101.985L114.56 99.7627C114.587 99.7234 114.62 99.6896 114.66 99.6634C114.699 99.6371 114.743 99.6188 114.789 99.6095C114.835 99.6003 114.883 99.6002 114.929 99.6094C114.976 99.6185 115.02 99.6367 115.059 99.6629C115.098 99.6891 115.132 99.7228 115.158 99.762C115.185 99.8013 115.203 99.8453 115.212 99.8916C115.221 99.9379 115.222 99.9856 115.212 100.032C115.203 100.078 115.185 100.122 115.159 100.162L113.395 102.807C113.363 102.855 113.32 102.895 113.27 102.922C113.22 102.95 113.163 102.966 113.106 102.967L113.096 102.967Z" fill="white"/>
<path d="M102.812 104.518C104.597 104.518 106.044 103.07 106.044 101.285C106.044 99.4999 104.597 98.0527 102.812 98.0527C101.026 98.0527 99.5791 99.4999 99.5791 101.285C99.5791 103.07 101.026 104.518 102.812 104.518Z" fill="#F2F2F2"/>
</svg>
