<svg width="200" height="168" viewBox="0 0 200 168" fill="none" xmlns="http://www.w3.org/2000/svg">
<g clip-path="url(#clip0_237_12426)">
<path d="M115.133 8.1766C116.808 12.239 113.259 13.3897 109.195 15.5671C105.13 17.7445 102.088 20.1241 100.414 16.0617C98.7391 11.9993 97.3804 3.93609 103.131 0.855767C109.079 -2.33068 113.459 4.11417 115.133 8.1766Z" fill="#2F2E41"/>
<path d="M106.84 16.1654C109.862 16.1654 112.312 13.3726 112.312 9.92743C112.312 6.48229 109.862 3.68945 106.84 3.68945C103.818 3.68945 101.368 6.48229 101.368 9.92743C101.368 13.3726 103.818 16.1654 106.84 16.1654Z" fill="#FFB8B8"/>
<path d="M133.949 37.5924C133.76 37.3105 133.57 37.0336 133.379 36.7644C133.131 36.4139 132.883 36.0744 132.632 35.7459C129.796 32.015 126.78 29.6657 123.458 29.4143H123.453L123.404 29.4092L116.785 36.7644L114.535 39.2636L114.584 39.4007L115.798 42.8472H137.072C136.114 41.0336 135.071 39.2795 133.949 37.5924Z" fill="#2F2E41"/>
<path d="M100.891 12.4392L102.85 11.3899L102.577 8.16862L103.886 10.8344L104.823 10.3329L104.664 8.45383L105.428 10.0089L112.384 6.28235C111.731 4.69729 110.552 3.47303 109.107 2.8789C107.661 2.28477 106.068 2.36943 104.678 3.11426L103.67 3.65434C102.279 4.39917 101.205 5.74316 100.684 7.39065C100.163 9.03813 100.237 10.8542 100.891 12.4392Z" fill="#2F2E41"/>
<path d="M146.224 125.669H31.97C30.9954 125.668 30.061 125.226 29.3718 124.44C28.6827 123.654 28.295 122.589 28.2939 121.478V43.2137C28.2947 42.3998 28.5787 41.6194 29.0836 41.0438C29.5885 40.4683 30.273 40.1445 30.987 40.1436H147.161C147.887 40.1445 148.583 40.4739 149.097 41.0594C149.611 41.6449 149.9 42.4388 149.9 43.2668V121.478C149.899 122.589 149.512 123.654 148.822 124.44C148.133 125.226 147.199 125.668 146.224 125.669Z" fill="#1C1C1C"/>
<path d="M35.5353 121.478H142.661C143.606 121.478 144.513 121.05 145.181 120.288C145.85 119.525 146.225 118.492 146.225 117.414V50.9865C146.225 49.9088 145.85 48.8752 145.181 48.1131C144.513 47.351 143.606 46.9229 142.661 46.9229H35.5353C34.5899 46.9229 33.6832 47.351 33.0148 48.1131C32.3463 48.8752 31.9707 49.9088 31.9707 50.9865V117.414C31.9707 118.492 32.3463 119.525 33.0148 120.288C33.6832 121.05 34.5899 121.478 35.5353 121.478Z" fill="#414141"/>
<path d="M149.849 42.9735H28.2422V40.84C28.2436 39.7253 28.6328 38.6567 29.3245 37.8687C30.0161 37.0807 30.9537 36.6376 31.9316 36.6367H146.16C147.138 36.6376 148.075 37.0807 148.767 37.8687C149.458 38.6567 149.848 39.7253 149.849 40.84V42.9735Z" fill="#6C63FF"/>
<path d="M34.9475 40.8994C35.4745 40.8994 35.9018 40.4124 35.9018 39.8115C35.9018 39.2107 35.4745 38.7236 34.9475 38.7236C34.4204 38.7236 33.9932 39.2107 33.9932 39.8115C33.9932 40.4124 34.4204 40.8994 34.9475 40.8994Z" fill="white"/>
<path d="M38.5705 40.8994C39.0975 40.8994 39.5248 40.4124 39.5248 39.8115C39.5248 39.2107 39.0975 38.7236 38.5705 38.7236C38.0435 38.7236 37.6162 39.2107 37.6162 39.8115C37.6162 40.4124 38.0435 40.8994 38.5705 40.8994Z" fill="white"/>
<path d="M42.1916 40.8994C42.7186 40.8994 43.1459 40.4124 43.1459 39.8115C43.1459 39.2107 42.7186 38.7236 42.1916 38.7236C41.6646 38.7236 41.2373 39.2107 41.2373 39.8115C41.2373 40.4124 41.6646 40.8994 42.1916 40.8994Z" fill="white"/>
<path d="M92.4405 107.072H82.8606C82.2995 107.071 81.7615 106.817 81.3647 106.364C80.968 105.912 80.7448 105.299 80.7441 104.659V93.738C80.7448 93.0983 80.968 92.485 81.3647 92.0327C81.7615 91.5804 82.2995 91.3259 82.8606 91.3252H92.4405C93.0017 91.3259 93.5396 91.5804 93.9364 92.0327C94.3332 92.485 94.5564 93.0983 94.557 93.738V104.659C94.5564 105.299 94.3332 105.912 93.9364 106.364C93.5396 106.817 93.0017 107.071 92.4405 107.072ZM82.8606 91.8332C82.4176 91.8337 81.9929 92.0346 81.6797 92.3917C81.3664 92.7488 81.1902 93.233 81.1897 93.738V104.659C81.1902 105.164 81.3664 105.648 81.6797 106.005C81.9929 106.362 82.4176 106.563 82.8606 106.564H92.4405C92.8835 106.563 93.3082 106.362 93.6215 106.005C93.9347 105.648 94.1109 105.164 94.1114 104.659V93.738C94.1109 93.233 93.9347 92.7488 93.6215 92.3917C93.3082 92.0346 92.8835 91.8337 92.4405 91.8332H82.8606Z" fill="#CCCCCC"/>
<path d="M90.5468 104.024H84.7543C84.5771 104.024 84.4072 103.944 84.2819 103.801C84.1566 103.658 84.0861 103.464 84.0859 103.262V95.135C84.0861 94.933 84.1566 94.7393 84.2819 94.5965C84.4072 94.4536 84.5771 94.3733 84.7543 94.373H88.9515C89.1038 94.3732 89.2514 94.4325 89.3702 94.5411L90.9654 96.0024C91.0435 96.0736 91.1066 96.164 91.1498 96.2669C91.1931 96.3697 91.2154 96.4823 91.2152 96.5963V103.262C91.215 103.464 91.1445 103.658 91.0192 103.801C90.8939 103.944 90.724 104.024 90.5468 104.024ZM84.7543 94.881C84.6952 94.8811 84.6386 94.9079 84.5969 94.9555C84.5551 95.0031 84.5316 95.0677 84.5315 95.135V103.262C84.5316 103.33 84.5551 103.394 84.5969 103.442C84.6386 103.489 84.6952 103.516 84.7543 103.516H90.5468C90.6059 103.516 90.6625 103.489 90.7042 103.442C90.746 103.394 90.7695 103.33 90.7696 103.262V96.5963C90.7697 96.5583 90.7622 96.5208 90.7478 96.4865C90.7334 96.4523 90.7124 96.4222 90.6864 96.3984L89.091 94.9369C89.0514 94.9008 89.0022 94.881 88.9515 94.881H84.7543Z" fill="#CCCCCC"/>
<path d="M89.4319 97.9289H85.8673C85.8082 97.9289 85.7516 97.9021 85.7098 97.8545C85.668 97.8068 85.6445 97.7422 85.6445 97.6749C85.6445 97.6075 85.668 97.5429 85.7098 97.4953C85.7516 97.4477 85.8082 97.4209 85.8673 97.4209H89.4319C89.491 97.4209 89.5477 97.4477 89.5895 97.4953C89.6312 97.5429 89.6547 97.6075 89.6547 97.6749C89.6547 97.7422 89.6312 97.8068 89.5895 97.8545C89.5477 97.9021 89.491 97.9289 89.4319 97.9289Z" fill="#CCCCCC"/>
<path d="M89.4319 99.4523H85.8673C85.8082 99.4523 85.7516 99.4255 85.7098 99.3779C85.668 99.3303 85.6445 99.2657 85.6445 99.1983C85.6445 99.131 85.668 99.0664 85.7098 99.0187C85.7516 98.9711 85.8082 98.9443 85.8673 98.9443H89.4319C89.491 98.9443 89.5477 98.9711 89.5895 99.0187C89.6312 99.0664 89.6547 99.131 89.6547 99.1983C89.6547 99.2657 89.6312 99.3303 89.5895 99.3779C89.5477 99.4255 89.491 99.4523 89.4319 99.4523Z" fill="#CCCCCC"/>
<path d="M89.4319 100.977H85.8673C85.8082 100.977 85.7516 100.95 85.7098 100.902C85.668 100.855 85.6445 100.79 85.6445 100.723C85.6445 100.655 85.668 100.591 85.7098 100.543C85.7516 100.496 85.8082 100.469 85.8673 100.469H89.4319C89.491 100.469 89.5477 100.496 89.5895 100.543C89.6312 100.591 89.6547 100.655 89.6547 100.723C89.6547 100.79 89.6312 100.855 89.5895 100.902C89.5477 100.95 89.491 100.977 89.4319 100.977Z" fill="#CCCCCC"/>
<path d="M115.164 107.072H105.584C105.023 107.071 104.485 106.817 104.088 106.364C103.692 105.912 103.468 105.299 103.468 104.659V93.738C103.468 93.0983 103.692 92.485 104.088 92.0327C104.485 91.5804 105.023 91.3259 105.584 91.3252H115.164C115.725 91.3259 116.263 91.5804 116.66 92.0327C117.057 92.485 117.28 93.0983 117.281 93.738V104.659C117.28 105.299 117.057 105.912 116.66 106.364C116.263 106.817 115.725 107.071 115.164 107.072ZM105.584 91.8332C105.141 91.8337 104.717 92.0346 104.403 92.3917C104.09 92.7488 103.914 93.233 103.913 93.738V104.659C103.914 105.164 104.09 105.648 104.403 106.005C104.717 106.362 105.141 106.563 105.584 106.564H115.164C115.607 106.563 116.032 106.362 116.345 106.005C116.658 105.648 116.835 105.164 116.835 104.659V93.738C116.835 93.233 116.658 92.7488 116.345 92.3917C116.032 92.0346 115.607 91.8337 115.164 91.8332H105.584Z" fill="#CCCCCC"/>
<path d="M113.493 101.993H107.255C107.078 101.993 106.908 101.912 106.783 101.769C106.658 101.627 106.587 101.433 106.587 101.231V97.1672C106.587 96.9652 106.658 96.7715 106.783 96.6287C106.908 96.4858 107.078 96.4055 107.255 96.4053H113.493C113.671 96.4055 113.84 96.4858 113.966 96.6287C114.091 96.7715 114.162 96.9652 114.162 97.1672V101.231C114.162 101.433 114.091 101.627 113.966 101.769C113.84 101.912 113.671 101.993 113.493 101.993ZM107.255 96.9132C107.196 96.9133 107.14 96.9401 107.098 96.9877C107.056 97.0353 107.033 97.0999 107.032 97.1672V101.231C107.033 101.298 107.056 101.363 107.098 101.41C107.14 101.458 107.196 101.485 107.255 101.485H113.493C113.552 101.485 113.609 101.458 113.651 101.41C113.693 101.363 113.716 101.298 113.716 101.231V97.1672C113.716 97.0999 113.693 97.0353 113.651 96.9877C113.609 96.9401 113.552 96.9133 113.493 96.9132H107.255Z" fill="#CCCCCC"/>
<path d="M110.375 99.8688C110.25 99.869 110.127 99.8291 110.021 99.7538L106.692 97.3823C106.642 97.3465 106.607 97.2896 106.594 97.224C106.58 97.1584 106.59 97.0895 106.622 97.0325C106.653 96.9754 106.703 96.9348 106.76 96.9196C106.818 96.9045 106.878 96.9159 106.929 96.9515L110.257 99.323C110.293 99.348 110.333 99.3613 110.375 99.3613C110.417 99.3613 110.458 99.348 110.493 99.323L113.821 96.9515C113.872 96.9159 113.932 96.9045 113.99 96.9196C114.047 96.9348 114.097 96.9754 114.128 97.0325C114.159 97.0895 114.17 97.1584 114.156 97.224C114.143 97.2896 114.108 97.3465 114.058 97.3823L110.729 99.7538C110.623 99.8292 110.5 99.869 110.375 99.8688Z" fill="#CCCCCC"/>
<path d="M69.7159 107.072H60.136C59.5749 107.071 59.0369 106.817 58.6401 106.364C58.2434 105.912 58.0202 105.299 58.0195 104.659V93.738C58.0202 93.0983 58.2434 92.485 58.6401 92.0327C59.0369 91.5804 59.5749 91.3259 60.136 91.3252H69.7159C70.2771 91.3259 70.815 91.5804 71.2118 92.0327C71.6086 92.485 71.8318 93.0983 71.8324 93.738V104.659C71.8318 105.299 71.6086 105.912 71.2118 106.364C70.815 106.817 70.2771 107.071 69.7159 107.072ZM60.136 91.8332C59.693 91.8337 59.2683 92.0346 58.9551 92.3917C58.6418 92.7488 58.4656 93.233 58.4651 93.738V104.659C58.4656 105.164 58.6418 105.648 58.9551 106.005C59.2683 106.362 59.693 106.563 60.136 106.564H69.7159C70.1589 106.563 70.5836 106.362 70.8969 106.005C71.2101 105.648 71.3863 105.164 71.3868 104.659V93.738C71.3863 93.233 71.2101 92.7488 70.8969 92.3917C70.5836 92.0346 70.1589 91.8337 69.7159 91.8332H60.136Z" fill="#CCCCCC"/>
<path d="M68.0451 101.993H61.807C61.6298 101.993 61.4599 101.912 61.3346 101.769C61.2093 101.627 61.1389 101.433 61.1387 101.231V97.1672C61.1389 96.9652 61.2093 96.7715 61.3346 96.6287C61.4599 96.4858 61.6298 96.4055 61.807 96.4053H68.0451C68.2223 96.4055 68.3922 96.4858 68.5175 96.6287C68.6428 96.7715 68.7133 96.9652 68.7135 97.1672V101.231C68.7133 101.433 68.6428 101.627 68.5175 101.769C68.3922 101.912 68.2223 101.993 68.0451 101.993ZM61.807 96.9132C61.748 96.9133 61.6913 96.9401 61.6496 96.9877C61.6078 97.0353 61.5843 97.0999 61.5842 97.1672V101.231C61.5843 101.298 61.6078 101.363 61.6496 101.41C61.6913 101.458 61.748 101.485 61.807 101.485H68.0451C68.1042 101.485 68.1608 101.458 68.2026 101.41C68.2443 101.363 68.2678 101.298 68.2679 101.231V97.1672C68.2678 97.0999 68.2443 97.0353 68.2026 96.9877C68.1608 96.9401 68.1042 96.9133 68.0451 96.9132H61.807Z" fill="#CCCCCC"/>
<path d="M67.056 101.992H62.5726C62.4943 101.992 62.4175 101.969 62.3497 101.924C62.282 101.88 62.2257 101.816 62.1866 101.738C62.1475 101.661 62.1269 101.573 62.127 101.484C62.127 101.395 62.1476 101.308 62.1867 101.23L63.5372 98.5635C63.5763 98.4863 63.6325 98.4222 63.7003 98.3776C63.768 98.333 63.8448 98.3096 63.9231 98.3096C64.0013 98.3096 64.0781 98.333 64.1459 98.3776C64.2136 98.4222 64.2699 98.4863 64.309 98.5635L65.1812 100.286L65.6865 99.288C65.7256 99.2108 65.7819 99.1467 65.8496 99.1021C65.9173 99.0575 65.9942 99.0341 66.0724 99.0341C66.1506 99.0341 66.2275 99.0575 66.2952 99.1021C66.3629 99.1467 66.4192 99.2108 66.4583 99.288L67.4419 101.23C67.481 101.308 67.5016 101.395 67.5016 101.484C67.5016 101.574 67.481 101.661 67.4419 101.738C67.4028 101.816 67.3465 101.88 67.2788 101.924C67.211 101.969 67.1342 101.992 67.0559 101.992H67.056ZM67.056 101.484L66.0724 99.542L65.3742 100.921C65.3546 100.959 65.3265 100.991 65.2926 101.014C65.2587 101.036 65.2203 101.048 65.1812 101.048C65.1421 101.048 65.1037 101.036 65.0698 101.014C65.0359 100.991 65.0078 100.959 64.9882 100.921L63.9231 98.8175L62.5726 101.484H67.056Z" fill="#CCCCCC"/>
<path d="M67.3762 98.4368C67.6223 98.4368 67.8218 98.2094 67.8218 97.9289C67.8218 97.6483 67.6223 97.4209 67.3762 97.4209C67.1302 97.4209 66.9307 97.6483 66.9307 97.9289C66.9307 98.2094 67.1302 98.4368 67.3762 98.4368Z" fill="#CCCCCC"/>
<path d="M173.916 164.616L171.185 164.616L169.886 152.605L173.917 152.606L173.916 164.616Z" fill="#FFB8B8"/>
<path d="M174.614 167.635L165.807 167.634V167.507C165.807 166.994 165.895 166.486 166.068 166.012C166.24 165.538 166.492 165.107 166.811 164.744C167.129 164.381 167.507 164.093 167.923 163.897C168.339 163.701 168.784 163.6 169.235 163.6H169.235L174.614 163.6L174.614 167.635Z" fill="#2F2E41"/>
<path d="M185.056 164.616L182.325 164.616L181.025 152.605L185.057 152.606L185.056 164.616Z" fill="#FFB8B8"/>
<path d="M185.752 167.635L176.945 167.634V167.507C176.945 166.994 177.034 166.486 177.206 166.012C177.378 165.538 177.631 165.107 177.949 164.744C178.268 164.381 178.646 164.093 179.061 163.897C179.477 163.701 179.923 163.6 180.373 163.6H180.373L185.752 163.6L185.752 167.635Z" fill="#2F2E41"/>
<path d="M184.237 159.41L181.708 158.532C181.519 158.467 181.352 158.34 181.226 158.167C181.101 157.994 181.023 157.782 181.003 157.559L178.644 132.078C178.642 132.047 178.63 132.019 178.61 131.997C178.591 131.976 178.565 131.965 178.538 131.965C178.51 131.962 178.483 131.971 178.462 131.99C178.441 132.01 178.427 132.038 178.424 132.069L174.474 156.755C174.45 156.905 174.4 157.048 174.326 157.175C174.253 157.303 174.159 157.412 174.048 157.497C173.937 157.582 173.813 157.642 173.682 157.671C173.551 157.701 173.416 157.7 173.285 157.669L170.052 156.91C169.815 156.854 169.604 156.701 169.457 156.482C169.311 156.262 169.238 155.989 169.254 155.713L171.657 115.251L187.951 113.247L185.53 158.386C185.514 158.676 185.402 158.949 185.217 159.148C185.031 159.347 184.786 159.459 184.531 159.46C184.431 159.459 184.333 159.443 184.237 159.41Z" fill="#2F2E41"/>
<path d="M184.223 80.015C187.245 80.015 189.695 77.2222 189.695 73.777C189.695 70.3319 187.245 67.5391 184.223 67.5391C181.201 67.5391 178.751 70.3319 178.751 73.777C178.751 77.2222 181.201 80.015 184.223 80.015Z" fill="#FFB8B8"/>
<path d="M171.632 115.489L175.165 90.1291C175.353 88.7807 175.79 87.4935 176.449 86.3529C177.107 85.2123 177.971 84.2446 178.982 83.5142C179.994 82.7838 181.131 82.3074 182.317 82.1167C183.502 81.926 184.71 82.0254 185.86 82.4083C187.87 83.071 189.591 84.5641 190.687 86.5959C191.783 88.6277 192.175 91.0522 191.786 93.396L188.09 116.044L171.632 115.489Z" fill="#6C63FF"/>
<path d="M185.732 120.026C186.006 119.821 186.236 119.549 186.407 119.231C186.579 118.913 186.687 118.555 186.724 118.185C186.761 117.814 186.726 117.438 186.622 117.084C186.518 116.73 186.347 116.406 186.122 116.135L189.774 108.071L185.661 108.572L182.822 116.153C182.449 116.615 182.237 117.218 182.227 117.846C182.217 118.475 182.409 119.086 182.768 119.563C183.127 120.041 183.627 120.351 184.173 120.437C184.719 120.522 185.274 120.376 185.732 120.026V120.026Z" fill="#FFB8B8"/>
<path d="M186.515 114.714C186.312 114.681 186.124 114.579 185.974 114.421L184.576 112.949C184.425 112.789 184.321 112.581 184.278 112.351C184.234 112.121 184.253 111.882 184.333 111.666L187.126 104.118L186.73 89.2042C186.787 88.7248 186.926 88.2629 187.14 87.8449C187.354 87.4268 187.637 87.0609 187.975 86.768C188.313 86.4751 188.698 86.261 189.108 86.1379C189.519 86.0147 189.947 85.985 190.367 86.0504C190.787 86.1158 191.193 86.275 191.559 86.5189C191.925 86.7629 192.246 87.0868 192.503 87.4721C192.759 87.8574 192.947 88.2966 193.055 88.7646C193.162 89.2326 193.188 89.7201 193.13 90.1994L193.808 99.5743C194.014 102.42 193.306 105.253 191.816 107.548L187.46 114.262C187.377 114.391 187.27 114.498 187.147 114.577C187.025 114.656 186.889 114.705 186.749 114.72C186.671 114.728 186.592 114.726 186.515 114.714Z" fill="#6C63FF"/>
<path d="M152.71 70.3787C152.77 70.7459 152.899 71.0936 153.09 71.3975C153.28 71.7014 153.526 71.9541 153.812 72.1377C154.097 72.3213 154.414 72.4313 154.74 72.4601C155.067 72.4889 155.395 72.4358 155.702 72.3044L160.791 79.2833L161.991 74.7696L156.974 68.8343C156.746 68.2618 156.342 67.8045 155.838 67.5489C155.334 67.2934 154.766 67.2574 154.24 67.4477C153.715 67.6381 153.269 68.0416 152.987 68.5818C152.705 69.122 152.606 69.7614 152.71 70.3787Z" fill="#FFB8B8"/>
<path d="M156.699 73.2715C156.804 73.0721 156.959 72.9139 157.145 72.818L158.88 71.9248C159.067 71.8286 159.277 71.8005 159.479 71.8444C159.682 71.8882 159.867 72.0019 160.011 72.1699L165.019 78.045L177.22 83.4437C177.586 83.6904 177.904 84.0167 178.159 84.404C178.413 84.7912 178.598 85.2319 178.703 85.7007C178.808 86.1695 178.831 86.6574 178.771 87.1363C178.71 87.6152 178.567 88.0758 178.351 88.4918C178.134 88.9078 177.847 89.271 177.507 89.5606C177.167 89.8502 176.78 90.0606 176.369 90.1797C175.958 90.2988 175.53 90.3243 175.11 90.2548C174.69 90.1852 174.286 90.022 173.921 89.7743L166.084 86.8303C163.705 85.9372 161.692 84.0895 160.419 81.6309L156.695 74.4407C156.623 74.3024 156.578 74.1485 156.562 73.989C156.546 73.8294 156.56 73.6679 156.602 73.5148C156.626 73.4297 156.658 73.348 156.699 73.2715Z" fill="#6C63FF"/>
<path opacity="0.1" d="M188.66 95.4072L188.437 103.535L184.333 111.665L187.76 102.604L188.66 95.4072Z" fill="black"/>
<path d="M183.595 74.95C183.252 75.0009 182.903 74.9079 182.615 74.6883C182.327 74.4686 182.119 74.1373 182.029 73.7558C181.942 73.3166 181.752 72.9127 181.479 72.5872C181.207 72.2618 180.861 72.0271 180.48 71.9084C179.477 71.6469 178.25 72.1856 177.514 71.3186C177.357 71.1207 177.243 70.8829 177.182 70.6249C177.121 70.3669 177.114 70.0961 177.163 69.8348C177.299 68.9923 177.827 68.3558 178.403 67.8467C179.613 66.7805 181.079 66.1563 182.606 66.056C183.396 66.0299 184.188 66.0748 184.972 66.1902C185.793 66.2493 186.606 66.4186 187.392 66.6945C188.289 67.08 189.085 67.7168 189.708 68.546C190.331 69.3753 190.761 70.3702 190.957 71.4388C191.137 72.5108 191.11 73.6145 190.876 74.6731C190.643 75.7316 190.21 76.7194 189.608 77.5674C188.887 78.5914 187.956 79.3987 186.899 79.919C186.647 80.0546 186.358 80.0713 186.095 79.9654C185.436 79.6668 185.544 78.7364 185.844 78.1158C186.166 77.4517 186.661 76.8087 186.402 76.0005C186.273 75.6257 186.024 75.3205 185.705 75.1456C185.05 74.7648 184.318 74.8549 183.614 74.9476L183.595 74.95Z" fill="#2F2E41"/>
<path d="M150.882 78.4729H83.1545C82.1799 78.4717 81.2456 78.0297 80.5564 77.2441C79.8673 76.4585 79.4796 75.3933 79.4785 74.2823V57.7737C79.4796 56.6626 79.8673 55.5974 80.5564 54.8118C81.2456 54.0262 82.1799 53.5843 83.1545 53.583H150.882C151.857 53.5843 152.791 54.0262 153.48 54.8118C154.169 55.5975 154.557 56.6626 154.558 57.7737V74.2823C154.557 75.3933 154.169 76.4585 153.48 77.2441C152.791 78.0297 151.857 78.4716 150.882 78.4729Z" fill="white"/>
<path d="M150.882 78.5999H83.1546C82.1505 78.5987 81.1878 78.1434 80.4777 77.3339C79.7677 76.5245 79.3683 75.427 79.3672 74.2823V57.7737C79.3683 56.629 79.7677 55.5315 80.4777 54.7221C81.1878 53.9127 82.1505 53.4573 83.1546 53.4561H150.882C151.886 53.4573 152.849 53.9127 153.559 54.7221C154.269 55.5315 154.669 56.629 154.67 57.7737V74.2823C154.669 75.427 154.269 76.5245 153.559 77.3339C152.849 78.1434 151.886 78.5987 150.882 78.5999ZM83.1546 53.964C82.2686 53.9652 81.4192 54.3669 80.7927 55.0811C80.1662 55.7953 79.8138 56.7637 79.8128 57.7737V74.2823C79.8138 75.2923 80.1662 76.2607 80.7927 76.9749C81.4192 77.6891 82.2686 78.0908 83.1546 78.092H150.882C151.768 78.0908 152.618 77.6891 153.244 76.9749C153.871 76.2607 154.223 75.2923 154.224 74.2823V57.7737C154.223 56.7637 153.871 55.7953 153.244 55.0811C152.618 54.3669 151.768 53.9652 150.882 53.964H83.1546Z" fill="#3F3D56"/>
<path d="M142.639 74.4091H91.3977C90.4231 74.4079 89.4887 73.966 88.7996 73.1804C88.1104 72.3947 87.7228 71.3295 87.7217 70.2185V61.5832C87.7228 60.4722 88.1104 59.407 88.7996 58.6214C89.4887 57.8357 90.4231 57.3938 91.3977 57.3926H142.639C143.614 57.3938 144.548 57.8357 145.237 58.6214C145.926 59.407 146.314 60.4722 146.315 61.5832V70.2185C146.314 71.3295 145.926 72.3947 145.237 73.1804C144.548 73.966 143.614 74.4079 142.639 74.4091Z" fill="#F2F2F2"/>
<path d="M102.425 69.7546C104.853 69.7546 106.822 67.5108 106.822 64.743C106.822 61.9752 104.853 59.7314 102.425 59.7314C99.9975 59.7314 98.0293 61.9752 98.0293 64.743C98.0293 67.5108 99.9975 69.7546 102.425 69.7546Z" fill="#FF6584"/>
<path d="M139.454 73.9032L133.249 67.9703L127.151 62.1399C126.99 61.9861 126.787 61.9019 126.577 61.9024C126.367 61.9029 126.163 61.9879 126.003 62.1425L119.925 67.9996L118.44 69.4304L116.201 67.29L109.398 60.7854C109.237 60.6315 109.034 60.5474 108.824 60.5479C108.614 60.5483 108.411 60.6333 108.25 60.7879L101.469 67.3223L94.5809 73.9597C94.546 73.9933 94.5211 74.0383 94.5094 74.0887C94.4977 74.1391 94.4999 74.1923 94.5156 74.2412C94.5314 74.2901 94.5599 74.3323 94.5974 74.3621C94.6349 74.3918 94.6795 74.4077 94.7252 74.4076L108.847 74.3766L113.317 74.3668L113.273 74.409L126.598 74.3797L139.312 74.3518C139.357 74.3517 139.402 74.3356 139.439 74.3056C139.477 74.2757 139.505 74.2334 139.521 74.1844C139.536 74.1354 139.538 74.0822 139.526 74.0319C139.514 73.9816 139.489 73.9367 139.454 73.9032Z" fill="#3F3D56"/>
<path d="M197.632 168H154.857C154.797 168 154.741 167.973 154.699 167.926C154.657 167.878 154.634 167.814 154.634 167.746C154.634 167.679 154.657 167.614 154.699 167.567C154.741 167.519 154.797 167.492 154.857 167.492H197.632C197.691 167.492 197.748 167.519 197.789 167.567C197.831 167.614 197.855 167.679 197.855 167.746C197.855 167.814 197.831 167.878 197.789 167.926C197.748 167.973 197.691 168 197.632 168Z" fill="#CCCCCC"/>
<path d="M137.208 33.5028C137.03 33.1732 136.795 32.8883 136.518 32.6656C136.24 32.443 135.925 32.2871 135.593 32.2075C135.471 32.1784 135.348 32.1605 135.223 32.1542L118.249 14.8532C117.916 14.4625 117.471 14.2202 116.995 14.17C116.901 14.1577 116.806 14.1543 116.712 14.1598C116.32 14.1801 115.942 14.33 115.624 14.5913C115.306 14.8525 115.062 15.2138 114.921 15.6309C114.78 16.048 114.749 16.5028 114.831 16.9398C114.913 17.3768 115.105 17.7769 115.384 18.0914L121.883 24.5501L132.554 35.1537C132.563 35.3534 132.589 35.5516 132.632 35.7455C132.76 36.307 133.035 36.811 133.419 37.1906C133.804 37.5703 134.281 37.8076 134.787 37.8713C135.248 37.9327 135.715 37.8447 136.135 37.6173C136.467 37.44 136.762 37.1826 136.999 36.863C137.023 36.8299 137.046 36.7995 137.068 36.7639C137.38 36.3011 137.56 35.741 137.585 35.1584C137.61 34.5757 137.479 33.9982 137.208 33.5028H137.208Z" fill="#FFB8B8"/>
<path d="M108.174 50.1767L108.016 42.8469L107.882 36.7641L107.791 32.5074L107.611 24.2099C107.575 23.7657 107.426 23.3429 107.184 22.9932C106.941 22.6434 106.614 22.3819 106.242 22.2405C105.871 22.0991 105.472 22.084 105.093 22.1969C104.715 22.3099 104.373 22.546 104.111 22.8765C104.049 22.9521 103.993 23.0336 103.943 23.1204C103.669 23.5682 103.546 24.1137 103.596 24.6569L103.993 36.7641L104.191 42.8469L104.445 50.6059C104.371 50.7199 104.305 50.8396 104.247 50.964C104.088 51.3065 103.992 51.6821 103.965 52.0681C103.938 52.4541 103.98 52.8423 104.088 53.2092C104.202 53.594 104.385 53.9471 104.626 54.2452C104.868 54.5434 105.162 54.7797 105.49 54.9388C105.817 55.0979 106.171 55.1761 106.527 55.1682C106.883 55.1603 107.233 55.0666 107.555 54.8931C107.929 54.6916 108.253 54.3882 108.5 54.0098C108.746 53.6314 108.907 53.1895 108.969 52.7233C109.03 52.2571 108.989 51.7809 108.851 51.3368C108.712 50.8926 108.48 50.4942 108.174 50.1767Z" fill="#FFB8B8"/>
<path d="M123.458 29.4139L121.883 24.5502L119.334 16.6718C119.15 16.0986 118.855 15.5799 118.472 15.1543C118.088 14.7287 117.625 14.4071 117.117 14.2133C117.077 14.1981 117.035 14.1828 116.995 14.1701C116.503 13.9999 115.985 13.9531 115.476 14.0329C114.966 14.1127 114.478 14.3172 114.045 14.6324L105.461 20.8396C104.675 21.4068 104.113 22.3001 103.894 23.3309C103.675 24.3617 103.816 25.4491 104.287 26.3636C105.36 28.4797 106.53 30.5304 107.791 32.5074C108.792 34.0592 110.654 34.2243 110.977 36.7641H117.307L123.714 30.2063L123.458 29.4139Z" fill="#CCCCCC"/>
<path d="M25.1702 88.8552C28.0213 88.8552 30.3326 86.2203 30.3326 82.9701C30.3326 79.7198 28.0213 77.085 25.1702 77.085C22.3191 77.085 20.0078 79.7198 20.0078 82.9701C20.0078 86.2203 22.3191 88.8552 25.1702 88.8552Z" fill="#A0616A"/>
<path d="M37.8431 78.9192C37.894 78.9654 37.9433 79.0143 37.991 79.066C38.2282 79.3207 38.4155 79.6296 38.5406 79.9725C38.6657 80.3155 38.7259 80.6847 38.7171 81.056C38.7083 81.4272 38.6308 81.7922 38.4897 82.127C38.3485 82.4617 38.147 82.7587 37.8981 82.9985C37.8401 83.054 37.7796 83.106 37.7168 83.1543L38.0662 96.6012C38.0761 97.0414 37.9613 97.4735 37.7388 97.8334C37.5163 98.1934 37.1979 98.4619 36.8308 98.5992L36.8096 98.6044L27.2322 99.7671C26.9718 99.7987 26.7085 99.7712 26.4575 99.6861C26.2065 99.601 25.9728 99.4601 25.7699 99.2715C25.5669 99.0829 25.3987 98.8503 25.2751 98.5872C25.1514 98.324 25.0747 98.0356 25.0493 97.7385C25.024 97.4414 25.0505 97.1415 25.1274 96.8561C25.2043 96.5708 25.33 96.3056 25.4973 96.076C25.6646 95.8463 25.8701 95.6567 26.102 95.5181C26.334 95.3795 26.5877 95.2947 26.8485 95.2685L33.6757 94.583L34.8564 82.9378C34.7791 82.8599 34.7068 82.7759 34.6399 82.6864C34.2697 82.1869 34.0756 81.5485 34.0952 80.8949C34.1147 80.2414 34.3467 79.6196 34.7459 79.15C35.1451 78.6805 35.6831 78.3969 36.2555 78.3543C36.8278 78.3116 37.3937 78.5129 37.8431 78.9192H37.8431Z" fill="#A0616A"/>
<path d="M33.6723 164.877H36.2493L37.4751 153.546H33.6719L33.6723 164.877Z" fill="#A0616A"/>
<path d="M33.0146 163.917L38.0893 163.917H38.0895C38.5142 163.917 38.9348 164.012 39.3271 164.198C39.7195 164.383 40.076 164.654 40.3763 164.997C40.6766 165.339 40.9149 165.746 41.0774 166.193C41.2399 166.64 41.3235 167.12 41.3235 167.604V167.724L33.0148 167.724L33.0146 163.917Z" fill="#2F2E41"/>
<path d="M8.06055 160.815L10.2746 162.318L16.4131 153.297L13.1452 151.079L8.06055 160.815Z" fill="#A0616A"/>
<path d="M7.92602 159.607L12.2864 162.567L12.2865 162.567C12.6514 162.815 12.97 163.142 13.224 163.53C13.4779 163.918 13.6624 164.359 13.7668 164.829C13.8712 165.298 13.8934 165.786 13.8323 166.265C13.7712 166.744 13.628 167.205 13.4107 167.621L13.3569 167.724L6.21777 162.878L7.92602 159.607Z" fill="#2F2E41"/>
<path d="M36.8581 160.874H33.9727C33.739 160.875 33.5135 160.777 33.3398 160.598C33.1661 160.42 33.0565 160.175 33.0322 159.91L30.1232 128.737C30.1158 128.659 30.086 128.585 30.0384 128.528C29.9908 128.471 29.9279 128.433 29.8596 128.421C29.7912 128.408 29.7212 128.422 29.6602 128.459C29.5993 128.496 29.5508 128.556 29.5223 128.628L24.2744 141.875L14.9833 159.146C14.8631 159.367 14.6769 159.532 14.4589 159.61C14.2408 159.687 14.0056 159.673 13.7961 159.569L10.0844 157.707C9.96168 157.646 9.85184 157.555 9.76218 157.441C9.67251 157.328 9.60505 157.194 9.5643 157.048C9.52354 156.902 9.5104 156.749 9.52576 156.597C9.54111 156.445 9.58461 156.298 9.65336 156.167L18.1944 139.864L20.8139 126.127C19.99 120.17 23.5219 111.314 23.5577 111.225L23.5752 111.181L33.3038 106.847L33.3526 106.915C37.1893 121.268 39.5272 136.715 37.8009 159.887C37.7796 160.155 37.6713 160.405 37.497 160.588C37.3227 160.771 37.0949 160.873 36.8581 160.874Z" fill="#2F2E41"/>
<path d="M23.1827 112.633L23.1374 112.525C23.1157 112.473 20.9525 107.271 19.2849 101.712C18.9644 100.637 18.8433 99.4981 18.9291 98.367C19.015 97.2358 19.3059 96.1373 19.7836 95.141C20.2675 94.1344 20.9295 93.2534 21.7277 92.5537C22.5259 91.854 23.4428 91.3509 24.4204 91.0763C26.1176 90.6125 27.9045 90.8593 29.4555 91.7716C31.0064 92.6839 32.2183 94.201 32.8703 96.0466C34.193 99.8174 33.7715 103.842 33.3748 107.008L33.3669 107.071L33.3163 107.099L23.1827 112.633Z" fill="#3F3D56"/>
<path d="M31.4297 79.6456H23.2324V75.5722C25.0316 74.7574 26.7922 74.0644 27.8565 75.5722C28.8042 75.5722 29.713 76.0014 30.3831 76.7653C31.0532 77.5292 31.4297 78.5653 31.4297 79.6456V79.6456Z" fill="#2F2E41"/>
<path d="M22.778 74.8535C17.8775 74.8535 16.5059 81.856 16.5059 85.8065C16.5059 88.0096 17.3799 88.7976 18.7532 89.0642L19.2383 86.1153L20.3743 89.1911C20.7601 89.1933 21.1653 89.1848 21.5855 89.1759L21.9707 88.2718L22.8296 89.1597C26.2696 89.1655 29.05 89.7372 29.05 85.8065C29.05 81.856 27.8471 74.8535 22.778 74.8535Z" fill="#2F2E41"/>
<path d="M45.63 168H2.85462C2.79554 168 2.73887 167.973 2.69709 167.926C2.65531 167.878 2.63184 167.814 2.63184 167.746C2.63184 167.679 2.65531 167.614 2.69709 167.567C2.73887 167.519 2.79554 167.492 2.85462 167.492H45.63C45.6891 167.492 45.7457 167.519 45.7875 167.567C45.8293 167.614 45.8528 167.679 45.8528 167.746C45.8528 167.814 45.8293 167.878 45.7875 167.926C45.7457 167.973 45.6891 168 45.63 168Z" fill="#CCCCCC"/>
<path d="M46.4337 84.441H36.8538C36.2927 84.4403 35.7547 84.1859 35.3579 83.7335C34.9611 83.2812 34.7379 82.6679 34.7373 82.0282V71.1071C34.7379 70.4674 34.9611 69.8542 35.3579 69.4018C35.7547 68.9495 36.2927 68.6951 36.8538 68.6943H46.4337C46.9948 68.6951 47.5328 68.9495 47.9296 69.4018C48.3264 69.8542 48.5495 70.4674 48.5502 71.1071V82.0282C48.5495 82.6679 48.3264 83.2812 47.9296 83.7335C47.5328 84.1859 46.9948 84.4403 46.4337 84.441Z" fill="white"/>
<path d="M46.4337 84.441H36.8538C36.2927 84.4403 35.7547 84.1859 35.3579 83.7335C34.9611 83.2812 34.7379 82.6679 34.7373 82.0282V71.1071C34.7379 70.4674 34.9611 69.8542 35.3579 69.4018C35.7547 68.9495 36.2927 68.6951 36.8538 68.6943H46.4337C46.9948 68.6951 47.5328 68.9495 47.9296 69.4018C48.3264 69.8542 48.5495 70.4674 48.5502 71.1071V82.0282C48.5495 82.6679 48.3264 83.2812 47.9296 83.7335C47.5328 84.1859 46.9948 84.4403 46.4337 84.441ZM36.8538 69.2023C36.4108 69.2029 35.9861 69.4037 35.6728 69.7608C35.3596 70.1179 35.1834 70.6021 35.1829 71.1071V82.0282C35.1834 82.5332 35.3596 83.0174 35.6728 83.3745C35.9861 83.7316 36.4108 83.9325 36.8538 83.9331H46.4337C46.8767 83.9325 47.3014 83.7316 47.6147 83.3745C47.9279 83.0174 48.1041 82.5332 48.1046 82.0282V71.1071C48.1041 70.6021 47.9279 70.1179 47.6147 69.7608C47.3014 69.4037 46.8767 69.2029 46.4337 69.2023H36.8538Z" fill="#3F3D56"/>
<path d="M44.7629 79.9961H38.5248C38.3476 79.9959 38.1777 79.9155 38.0524 79.7727C37.9271 79.6298 37.8566 79.4362 37.8564 79.2342V73.9006C37.8566 73.6986 37.9271 73.5049 38.0524 73.3621C38.1777 73.2192 38.3476 73.1389 38.5248 73.1387H40.2809C40.3951 73.1382 40.5075 73.1713 40.6072 73.2348C40.707 73.2983 40.7906 73.39 40.8502 73.5012L41.3399 74.4086H44.7629C44.9401 74.4088 45.11 74.4891 45.2353 74.632C45.3606 74.7748 45.4311 74.9685 45.4312 75.1705V79.2342C45.4311 79.4362 45.3606 79.6298 45.2353 79.7727C45.11 79.9155 44.9401 79.9959 44.7629 79.9961Z" fill="#6C63FF"/>
<path d="M44.5612 82.6912C44.5924 82.7562 44.6212 82.8231 44.6476 82.8919C44.7795 83.2315 44.8469 83.5991 44.8455 83.9705C44.8441 84.3419 44.7738 84.7088 44.6394 85.0471C44.5049 85.3854 44.3093 85.6875 44.0652 85.9336C43.8212 86.1797 43.5343 86.3643 43.2234 86.4751C43.151 86.5006 43.0775 86.5218 43.0032 86.5385L38.7481 99.0863C38.6074 99.4964 38.3545 99.8439 38.0269 100.077C37.6993 100.31 37.3144 100.417 36.9294 100.381L36.9081 100.377L27.6854 97.2116C27.4346 97.1255 27.2013 96.9837 26.9989 96.7942C26.7965 96.6048 26.6291 96.3715 26.5062 96.1079C26.3833 95.8443 26.3075 95.5555 26.2831 95.2583C26.2586 94.961 26.2861 94.6613 26.3639 94.3762C26.4417 94.0911 26.5682 93.8265 26.7362 93.5975C26.9042 93.3685 27.1104 93.1797 27.3428 93.0421C27.5751 92.9044 27.8291 92.8206 28.09 92.7955C28.351 92.7704 28.6137 92.8044 28.863 92.8957L35.3886 95.284L40.4406 85.0737C40.396 84.9677 40.3579 84.8582 40.3267 84.7462C40.1556 84.1221 40.194 83.4478 40.4345 82.8542C40.675 82.2606 41.1004 81.79 41.6281 81.5339C42.1559 81.2778 42.7483 81.2544 43.2903 81.4682C43.8323 81.6821 44.2853 82.1179 44.5612 82.6912H44.5612Z" fill="#A0616A"/>
</g>
<defs>
<clipPath id="clip0_237_12426">
<rect width="200" height="168" fill="white"/>
</clipPath>
</defs>
</svg>
