<svg width="200" height="168" viewBox="0 0 200 168" fill="none" xmlns="http://www.w3.org/2000/svg">
<g clip-path="url(#clip0_237_12370)">
<path d="M131.572 1H73.4553C64.4163 1 57.0889 8.32749 57.0889 17.3664V150.169C57.0889 159.208 64.4163 166.536 73.4553 166.536H131.572C140.611 166.536 147.938 159.208 147.938 150.169V17.3664C147.938 8.32749 140.611 1 131.572 1Z" fill="#3F3D56"/>
<path d="M146.406 17.3673V150.169C146.402 154.102 144.837 157.873 142.056 160.654C139.275 163.435 135.505 164.999 131.572 165.003H73.4562C69.5233 164.999 65.7529 163.435 62.9719 160.654C60.191 157.873 58.6266 154.102 58.6221 150.169V17.3673C58.6266 13.4345 60.191 9.664 62.9719 6.88305C65.7529 4.1021 69.5233 2.53776 73.4562 2.5332H81.0558V5.15837C81.0558 6.34683 81.528 7.48659 82.3683 8.32695C83.2087 9.16732 84.3485 9.63946 85.537 9.63953H119.491C120.68 9.63946 121.819 9.16732 122.66 8.32695C123.5 7.48659 123.972 6.34683 123.972 5.15837V2.5332H131.572C135.505 2.53776 139.275 4.1021 142.056 6.88305C144.837 9.664 146.402 13.4345 146.406 17.3673Z" fill="#090909"/>
<path d="M56.6704 34.5809C56.3748 34.5806 56.0915 34.4631 55.8825 34.2541C55.6736 34.0451 55.556 33.7618 55.5557 33.4662V31.2368C55.5557 30.9411 55.6731 30.6576 55.8822 30.4486C56.0912 30.2395 56.3747 30.1221 56.6704 30.1221C56.966 30.1221 57.2496 30.2395 57.4586 30.4486C57.6677 30.6576 57.7851 30.9411 57.7851 31.2368V33.4662C57.7848 33.7618 57.6672 34.0451 57.4582 34.2541C57.2493 34.4631 56.9659 34.5806 56.6704 34.5809Z" fill="#3F3D56"/>
<path d="M56.6704 46.0129C56.3748 46.0125 56.0915 45.895 55.8825 45.686C55.6736 45.477 55.556 45.1937 55.5557 44.8981V38.7612C55.5557 38.4656 55.6731 38.182 55.8822 37.973C56.0912 37.7639 56.3747 37.6465 56.6704 37.6465C56.966 37.6465 57.2496 37.7639 57.4586 37.973C57.6677 38.182 57.7851 38.4656 57.7851 38.7612V44.8981C57.7848 45.1937 57.6672 45.477 57.4582 45.686C57.2493 45.895 56.9659 46.0125 56.6704 46.0129Z" fill="#3F3D56"/>
<path d="M56.6704 55.2033C56.3748 55.2029 56.0915 55.0854 55.8825 54.8764C55.6736 54.6674 55.556 54.3841 55.5557 54.0886V47.9516C55.5557 47.656 55.6731 47.3725 55.8822 47.1634C56.0912 46.9544 56.3747 46.8369 56.6704 46.8369C56.966 46.8369 57.2496 46.9544 57.4586 47.1634C57.6677 47.3725 57.7851 47.656 57.7851 47.9516V54.0886C57.7848 54.3841 57.6672 54.6674 57.4582 54.8764C57.2493 55.0854 56.9659 55.2029 56.6704 55.2033Z" fill="#3F3D56"/>
<path d="M148.078 50.1872C147.782 50.1869 147.499 50.0694 147.29 49.8604C147.081 49.6514 146.963 49.3681 146.963 49.0725V34.0981C146.963 33.8025 147.08 33.5189 147.289 33.3099C147.498 33.1008 147.782 32.9834 148.078 32.9834C148.373 32.9834 148.657 33.1008 148.866 33.3099C149.075 33.5189 149.192 33.8025 149.192 34.0981V49.0725C149.192 49.3681 149.074 49.6514 148.865 49.8604C148.656 50.0694 148.373 50.1869 148.078 50.1872Z" fill="#3F3D56"/>
<path d="M104.908 6.11215H96.269C96.0842 6.11215 95.907 6.03874 95.7763 5.90809C95.6457 5.77743 95.5723 5.60023 95.5723 5.41545C95.5723 5.23067 95.6457 5.05347 95.7763 4.92281C95.907 4.79215 96.0842 4.71875 96.269 4.71875H104.908C105.093 4.71875 105.27 4.79215 105.401 4.92281C105.531 5.05347 105.605 5.23067 105.605 5.41545C105.605 5.60023 105.531 5.77743 105.401 5.90809C105.27 6.03874 105.093 6.11215 104.908 6.11215Z" fill="#090909"/>
<path d="M109.367 5.97312C109.675 5.97312 109.924 5.72358 109.924 5.41576C109.924 5.10794 109.675 4.8584 109.367 4.8584C109.059 4.8584 108.81 5.10794 108.81 5.41576C108.81 5.72358 109.059 5.97312 109.367 5.97312Z" fill="#090909"/>
<path d="M77.7351 9.10223H70.2108C69.8412 9.10223 69.4868 8.95542 69.2255 8.69411C68.9642 8.4328 68.8174 8.07838 68.8174 7.70883C68.8174 7.33928 68.9642 6.98486 69.2255 6.72355C69.4868 6.46223 69.8412 6.31543 70.2108 6.31543H77.7351C78.1047 6.31543 78.4591 6.46223 78.7204 6.72355C78.9817 6.98486 79.1285 7.33928 79.1285 7.70883C79.1285 8.07838 78.9817 8.4328 78.7204 8.69411C78.4591 8.95542 78.1047 9.10223 77.7351 9.10223Z" fill="#E6E6E6"/>
<path d="M127.062 8.96319C127.754 8.96319 128.316 8.40173 128.316 7.70914C128.316 7.01654 127.754 6.45508 127.062 6.45508C126.369 6.45508 125.808 7.01654 125.808 7.70914C125.808 8.40173 126.369 8.96319 127.062 8.96319Z" fill="#E6E6E6"/>
<path d="M130.963 8.96319C131.656 8.96319 132.217 8.40173 132.217 7.70914C132.217 7.01654 131.656 6.45508 130.963 6.45508C130.27 6.45508 129.709 7.01654 129.709 7.70914C129.709 8.40173 130.27 8.96319 130.963 8.96319Z" fill="#E6E6E6"/>
<path d="M134.864 8.96319C135.557 8.96319 136.118 8.40173 136.118 7.70914C136.118 7.01654 135.557 6.45508 134.864 6.45508C134.172 6.45508 133.61 7.01654 133.61 7.70914C133.61 8.40173 134.172 8.96319 134.864 8.96319Z" fill="#E6E6E6"/>
<path d="M126.184 28.5771H78.8921C77.976 28.5784 77.0978 28.9429 76.45 29.5907C75.8023 30.2385 75.4378 31.1167 75.4365 32.0328V62.7739C75.4378 63.69 75.8023 64.5682 76.45 65.216C77.0978 65.8638 77.976 66.2283 78.8921 66.2296H126.184C127.1 66.2288 127.979 65.8644 128.627 65.2166C129.275 64.5687 129.639 63.6902 129.64 62.7739V32.0328C129.639 31.1165 129.275 30.238 128.627 29.5902C127.979 28.9423 127.1 28.5779 126.184 28.5771Z" fill="#F2F2F2"/>
<path d="M111.379 41.7012C107.105 49.2575 102.389 56.5549 97.2552 63.5552H89.8389C94.6965 57.6373 99.5578 51.7195 104.423 45.8016C105.818 44.0976 107.333 42.3125 109.426 41.6201L111.379 41.7012Z" fill="#3F3D56"/>
<path d="M101.523 40.4893C100.749 41.2953 100.008 42.1338 99.3106 43.0047C97.7743 44.8547 96.2597 46.721 94.7396 48.5818C93.793 49.7394 92.8464 50.897 91.9105 52.0546C91.6134 51.8637 91.3312 51.6503 91.0667 51.4163C89.572 50.119 88.6449 48.2878 88.484 46.3151C88.3232 44.3424 88.9414 42.3852 90.2063 40.8629C91.4711 39.3406 93.2819 38.3742 95.2506 38.1709C97.2194 37.9676 99.1894 38.5435 100.739 39.7753C101.018 39.993 101.28 40.2317 101.523 40.4893Z" fill="#6C63FF"/>
<path d="M129.641 39.6106V40.7337L129.139 40.5498L122.08 37.9692C119.781 37.1304 117.487 36.1717 115.113 35.567C113.047 34.976 110.854 35.0041 108.804 35.6478C106.976 36.3238 105.304 37.3617 103.888 38.6993C103.261 39.279 102.653 39.8726 102.065 40.4884C101.873 40.6919 101.681 40.8953 101.491 41.0988C100.923 41.7174 100.374 42.35 99.8525 43.0049C98.317 44.8554 96.801 46.7225 95.2822 48.5813C94.3346 49.7406 93.3871 50.8971 92.4508 52.0536C89.324 55.8799 86.2158 59.7136 83.1262 63.5548C82.71 63.5501 82.2958 63.4977 81.8916 63.3987C85.0435 59.4832 88.2102 55.578 91.3918 51.683C91.4642 51.5938 91.5367 51.5046 91.6092 51.4155C91.9826 50.9501 92.3644 50.4819 92.7434 50.0165C94.3291 48.0741 95.9157 46.1336 97.5032 44.1949C98.657 42.7848 99.8023 41.3691 101.045 40.0314C101.12 39.945 101.199 39.8614 101.279 39.775C101.399 39.6468 101.519 39.5214 101.642 39.3904C104.342 36.6009 107.711 34.1345 111.747 34.0677C114.121 34.0314 116.414 34.7839 118.622 35.5781C120.999 36.4392 123.367 37.3143 125.742 38.1838L129.641 39.6106Z" fill="#3F3D56"/>
<path d="M130.753 134.102H74.2757C73.3596 134.101 72.4813 133.737 71.8335 133.089C71.1858 132.441 70.8214 131.563 70.8203 130.647V123.035C70.8214 122.119 71.1858 121.241 71.8335 120.593C72.4813 119.946 73.3596 119.581 74.2757 119.58H130.753C131.669 119.581 132.547 119.946 133.195 120.593C133.843 121.241 134.207 122.119 134.208 123.035V130.647C134.207 131.563 133.843 132.441 133.195 133.089C132.547 133.737 131.669 134.101 130.753 134.102Z" fill="#F2F2F2"/>
<path d="M130.753 95.0868H74.2757C73.3596 95.0857 72.4813 94.7213 71.8335 94.0735C71.1858 93.4257 70.8214 92.5475 70.8203 91.6314V84.0198C70.8214 83.1037 71.1858 82.2255 71.8335 81.5777C72.4813 80.9299 73.3596 80.5655 74.2757 80.5645H130.753C131.669 80.5655 132.547 80.9299 133.195 81.5777C133.843 82.2255 134.207 83.1037 134.208 84.0198V91.6314C134.207 92.5475 133.843 93.4257 133.195 94.0735C132.547 94.7213 131.669 95.0857 130.753 95.0868Z" fill="#F2F2F2"/>
<path d="M130.753 114.595H74.2757C73.3596 114.594 72.4813 114.229 71.8335 113.581C71.1858 112.934 70.8214 112.055 70.8203 111.139V103.528C70.8214 102.612 71.1858 101.733 71.8335 101.085C72.4813 100.438 73.3596 100.073 74.2757 100.072H130.753C131.669 100.073 132.547 100.438 133.195 101.085C133.843 101.733 134.207 102.612 134.208 103.528V111.139C134.207 112.055 133.843 112.934 133.195 113.581C132.547 114.229 131.669 114.594 130.753 114.595Z" fill="#F2F2F2"/>
<path d="M109.375 125.539H92.7346C92.5372 125.539 92.3479 125.46 92.2083 125.321C92.0687 125.181 91.9902 124.992 91.9902 124.794C91.9902 124.597 92.0687 124.407 92.2083 124.268C92.3479 124.128 92.5372 124.05 92.7346 124.05H109.375C109.572 124.05 109.762 124.128 109.901 124.268C110.041 124.407 110.119 124.597 110.119 124.794C110.119 124.992 110.041 125.181 109.901 125.321C109.762 125.46 109.572 125.539 109.375 125.539Z" fill="#090909"/>
<path d="M125.38 129.633H92.5491C92.3517 129.633 92.1623 129.555 92.0227 129.415C91.8831 129.276 91.8047 129.086 91.8047 128.889C91.8047 128.692 91.8831 128.502 92.0227 128.363C92.1623 128.223 92.3517 128.145 92.5491 128.145H125.38C125.578 128.145 125.767 128.223 125.907 128.363C126.046 128.502 126.125 128.692 126.125 128.889C126.125 129.086 126.046 129.276 125.907 129.415C125.767 129.555 125.578 129.633 125.38 129.633Z" fill="#090909"/>
<path d="M83.8943 131.833C86.6508 131.833 88.8853 129.598 88.8853 126.842C88.8853 124.085 86.6508 121.851 83.8943 121.851C81.1379 121.851 78.9033 124.085 78.9033 126.842C78.9033 129.598 81.1379 131.833 83.8943 131.833Z" fill="#090909"/>
<path d="M82.7819 133.583C82.2726 133.345 81.6905 133.315 81.1595 133.5C80.6285 133.684 80.1905 134.069 79.9387 134.571C79.8891 134.674 79.8481 134.781 79.8162 134.891L72.3004 135.34L71.1865 139.234L81.4157 137.506C81.881 137.603 82.3653 137.543 82.7932 137.336C83.221 137.129 83.5684 136.786 83.7809 136.361C83.8995 136.118 83.9691 135.854 83.9856 135.584C84.0022 135.314 83.9654 135.044 83.8774 134.788C83.7894 134.532 83.6519 134.296 83.4727 134.093C83.2935 133.891 83.0762 133.726 82.8331 133.607C82.8161 133.599 82.7991 133.591 82.7819 133.583Z" fill="#FFB6B6"/>
<path d="M66.1927 114.376C65.6974 114.174 65.1644 114.08 64.6297 114.102C64.095 114.124 63.5713 114.26 63.0942 114.502C62.6171 114.745 62.1977 115.087 61.8646 115.506C61.5316 115.924 61.2926 116.41 61.164 116.93L59.0977 125.274L59.4863 139.872C59.4863 139.872 70.2718 141.942 72.0824 140.612C73.893 139.281 73.723 138.291 73.893 139.281C74.063 140.272 74.8402 140.687 74.851 140.293C74.8617 139.899 74.9497 139.967 75.4009 139.848C75.8521 139.729 77.8435 138.995 77.8435 138.995L77.9326 134.833C77.9326 134.833 74.6404 133.585 73.8417 133.957C73.043 134.33 74.0117 134.948 73.043 134.33C72.0743 133.712 71.9684 131.762 71.8028 133.519C71.6372 135.277 71.1523 135.604 70.426 134.823C69.6997 134.041 66.3348 134.54 66.3348 134.54L68.476 118.313C68.5837 117.497 68.4181 116.668 68.005 115.956C67.5919 115.243 66.9547 114.688 66.1927 114.376Z" fill="#6C63FF"/>
<path d="M138.826 157.668L138.94 154.594L127.137 152.693L126.97 157.23L138.826 157.668Z" fill="#FFB6B6"/>
<path d="M136.683 158.593L136.571 153.672L138.675 153.749L142.072 149.199C142.24 148.975 142.475 148.809 142.743 148.728C143.012 148.646 143.299 148.652 143.563 148.746C143.828 148.839 144.056 149.014 144.213 149.246C144.371 149.478 144.451 149.754 144.44 150.035L144.225 155.881L142.106 156.812L144.173 157.282L144.092 159.487L136.683 158.593Z" fill="#2F2E41"/>
<path d="M72.4004 164.717L109.783 160.37C109.783 160.37 125.927 161.302 129.714 158.838L133.708 158.334L133.925 152.467C133.925 152.467 131.482 152.485 130.078 151.831C128.674 151.176 129.65 150.376 128.311 151.163C126.972 151.95 127.114 152.045 126.078 151.683C125.043 151.321 77.5742 149.381 77.5742 149.381L72.4004 164.717Z" fill="#2F2E41"/>
<path d="M121.661 162.171L123.835 159.994L116.475 150.574L113.267 153.786L121.661 162.171Z" fill="#FFB6B6"/>
<path d="M119.461 161.392L122.726 157.708L124.216 159.196L129.801 158.171C130.076 158.12 130.361 158.159 130.613 158.281C130.866 158.404 131.072 158.604 131.202 158.852C131.333 159.101 131.381 159.384 131.339 159.661C131.296 159.939 131.167 160.195 130.969 160.394L126.834 164.533L124.648 163.775L125.843 165.525L124.284 167.086L119.461 161.392Z" fill="#2F2E41"/>
<path d="M57.6514 144.244L58.023 152.883C58.4605 163.053 69.6605 169.208 78.3452 163.898C78.5053 163.8 78.6659 163.699 78.827 163.594C78.827 163.594 82.1194 162.71 82.0194 161.309C81.9195 159.909 82.7238 159.228 83.4356 159.61C84.1474 159.991 93.467 146.765 93.467 146.765C93.467 146.765 112.83 156.424 117.102 158.698L121.609 157.469C121.609 157.469 123.305 158.271 122.694 157.112C122.083 155.953 121.974 156.508 121.786 155.246C121.598 153.983 121.118 152.418 120.827 152.484C120.536 152.55 96.8723 135.987 96.8723 135.987C96.8723 135.987 93.0173 132.086 88.2352 134.662C88.1356 135.04 88.2208 135.054 88.2208 135.054L72.424 147.925L70.1919 143.686L57.6514 144.244Z" fill="#2F2E41"/>
<path d="M68.2689 112.5L61.496 109.326L59.4683 112.854C59.4683 112.854 54.0224 120.626 53.9434 126.232C53.8644 131.839 54.8309 133.506 54.8309 133.506C54.8309 133.506 52.4828 135.262 53.6569 136.335C54.8309 137.408 57.43 137.871 55.4338 138.336C53.4375 138.801 53.9434 143.511 56.1728 144.347C58.4023 145.183 70.3755 145.175 70.3755 145.175C70.2679 144.81 70.2599 144.423 70.3526 144.054C70.4452 143.684 70.6349 143.347 70.9021 143.076C71.8303 142.145 72.6664 142.813 71.8303 141.364C70.9943 139.916 69.6009 140.752 70.7156 138.801C71.8303 136.85 71.8299 136.267 71.8299 136.267C71.8299 136.267 74.1024 131.943 70.6795 127.251C70.4709 126.965 70.6463 126.954 70.6463 126.954L67.8824 117.692L68.2689 112.5Z" fill="#6C63FF"/>
<path d="M57.3541 99.1536C57.4114 100.584 56.5098 102.611 56.0658 103.833C55.5911 105.14 57.6485 106.875 58.9654 107.254C59.0339 106.802 59.2597 106.388 59.6032 106.085C59.5082 106.516 59.5 106.962 59.5788 107.397L70.7115 109.931C72.7143 107.612 74.728 104.278 74.2888 100.257C74.394 99.4929 74.2713 98.7153 73.9361 98.0211C73.6008 97.327 73.0681 96.7474 72.4046 96.355L66.7766 93.0302C64.3826 92.4852 61.3679 92.1562 59.6388 93.6374C58.8663 94.3247 58.2594 95.1781 57.8637 96.1334C57.468 97.0888 57.2938 98.1213 57.3541 99.1536Z" fill="#2F2E41"/>
<path d="M67.3051 108.706C70.8451 108.706 73.7148 105.836 73.7148 102.296C73.7148 98.7564 70.8451 95.8867 67.3051 95.8867C63.7652 95.8867 60.8955 98.7564 60.8955 102.296C60.8955 105.836 63.7652 108.706 67.3051 108.706Z" fill="#FFB6B6"/>
<path d="M59.7956 98.8729L59.4863 100.232L64.8937 101.463C64.8985 101.188 64.9601 100.917 65.0745 100.667C65.1889 100.417 65.3538 100.194 65.5587 100.011C65.442 100.543 65.4553 101.096 65.5975 101.623C68.5137 103.259 71.1421 103.839 73.4991 103.422C73.8184 103.494 74.1535 103.437 74.4307 103.263C74.7079 103.088 74.9044 102.811 74.9771 102.492C75.9255 98.3262 73.441 94.0687 69.2959 93.0348C68.2884 92.7829 67.2407 92.7346 66.2142 92.8929C65.1878 93.0512 64.2033 93.4128 63.3184 93.9566C62.4336 94.5003 61.6662 95.2153 61.0613 96.0595C60.4563 96.9037 60.0261 97.8602 59.7956 98.8729V98.8729Z" fill="#2F2E41"/>
<path d="M62.9577 89.9089C63.6707 89.7541 64.4252 89.7915 65.0699 89.3086L64.6471 90.2791C65.8193 89.9579 67.0689 90.0827 68.1544 90.6294C68.4772 90.7741 68.7524 91.0071 68.9484 91.3016C69.0537 91.4794 69.1178 91.6787 69.1359 91.8846C69.1539 92.0905 69.1256 92.2978 69.0529 92.4913C68.9836 92.6573 68.8804 92.807 68.75 92.9309C68.6195 93.0547 68.4647 93.15 68.2954 93.2107C67.9953 93.3009 67.6808 93.3338 67.3685 93.3077C66.0526 93.2771 64.7366 93.2464 63.4207 93.2157C62.9192 93.2469 62.418 93.1495 61.9647 92.9328C61.7237 92.7839 61.5314 92.568 61.4114 92.3114C61.2914 92.0548 61.2489 91.7687 61.2892 91.4883C61.4147 90.6061 62.2447 90.0637 62.9577 89.9089Z" fill="#2F2E41"/>
<path d="M97.7268 140.143C97.7115 140.125 97.6939 140.109 97.6744 140.095C97.6265 140.039 97.5682 139.994 97.5027 139.961L97.0336 139.71L93.9199 136.253C93.7396 136.159 93.5299 136.139 93.3351 136.197L93.3271 136.199L91.9932 136.612L90.8461 136.968L89.2436 137.464L78.3288 140.844L71.1543 143.065C70.9603 143.127 70.7982 143.262 70.7028 143.442C70.6075 143.621 70.5865 143.831 70.6444 144.026C70.6781 144.134 70.7339 144.233 70.8082 144.317L71.0365 144.571L71.5154 145.105L72.6249 147.404L72.9327 147.748C73.0308 147.857 73.158 147.936 73.2994 147.976C73.4409 148.016 73.5907 148.014 73.7314 147.972L97.3675 141.399C97.4902 141.359 97.6014 141.29 97.6911 141.197C97.7807 141.104 97.8462 140.991 97.8817 140.867C97.9172 140.743 97.9216 140.612 97.8946 140.486C97.8676 140.359 97.81 140.242 97.7268 140.143Z" fill="#CCCCCC"/>
<path d="M96.3238 105.948L95.8661 106.022C95.7406 106.043 95.6285 106.113 95.5541 106.216L95.3524 106.498L93.5334 111.047C93.4594 111.151 93.4296 111.28 93.4508 111.406L93.6639 112.702L92.8584 135.833C92.8787 135.953 92.943 136.061 93.0386 136.136L96.5703 140.86L96.6527 140.925L96.8306 141.065C96.9218 141.135 97.035 141.171 97.1501 141.166L97.4503 141.152C97.5184 141.149 97.5851 141.131 97.6459 141.1C97.7067 141.069 97.7602 141.025 97.8029 140.972C97.846 140.919 97.8773 140.858 97.8946 140.792C97.9118 140.726 97.9148 140.657 97.9031 140.59L96.8785 106.344C96.8578 106.218 96.788 106.106 96.6844 106.031C96.5808 105.957 96.4519 105.927 96.3262 105.948L96.3238 105.948Z" fill="#CCCCCC"/>
<path d="M95.557 107.745L93.9457 112.654L93.3223 132.26L95.8304 134.489L95.557 107.745Z" fill="#6C63FF"/>
<path d="M83.0964 137.652C82.587 137.414 82.005 137.384 81.474 137.569C80.9429 137.754 80.5049 138.138 80.2531 138.641C80.2035 138.744 80.1626 138.851 80.1306 138.96L72.6149 139.409L71.501 143.303L81.7301 141.575C82.1954 141.672 82.6798 141.613 83.1076 141.406C83.5355 141.199 83.8828 140.856 84.0953 140.431C84.3349 139.94 84.3696 139.374 84.1919 138.857C84.0141 138.341 83.6385 137.916 83.1475 137.676C83.1306 137.668 83.1135 137.66 83.0964 137.652Z" fill="#FFB6B6"/>
<path d="M66.5071 118.446C66.0119 118.243 65.4788 118.149 64.9441 118.171C64.4095 118.193 63.8858 118.33 63.4086 118.572C62.9315 118.814 62.5121 119.156 62.1791 119.575C61.846 119.994 61.607 120.479 61.4784 120.999L59.4121 129.343L59.8008 143.942C59.8008 143.942 70.5863 146.011 72.3969 144.681C74.2075 143.351 74.0375 142.36 74.2075 143.351C74.3775 144.341 75.1546 144.756 75.1654 144.363C75.1762 143.969 75.2641 144.036 75.7153 143.917C76.1665 143.799 78.1579 143.065 78.1579 143.065L78.2471 138.902C78.2471 138.902 74.9549 137.654 74.1562 138.027C73.3575 138.399 74.3262 139.017 73.3575 138.399C72.3887 137.781 72.2829 135.831 72.1172 137.589C71.9516 139.346 71.4667 139.673 70.7404 138.892C70.0141 138.11 66.6493 138.61 66.6493 138.61L68.7905 122.382C68.8982 121.566 68.7326 120.737 68.3195 120.025C67.9064 119.313 67.2691 118.757 66.5071 118.446Z" fill="#6C63FF"/>
<path d="M1.46781e-06 166.853C-0.000128416 166.897 0.00836286 166.94 0.0249838 166.98C0.0416048 167.02 0.0660299 167.057 0.0968522 167.088C0.127674 167.119 0.164285 167.143 0.20458 167.16C0.244876 167.176 0.28806 167.185 0.331648 167.185H199.668C199.756 167.185 199.841 167.15 199.903 167.088C199.965 167.025 200 166.941 200 166.853C200 166.765 199.965 166.681 199.903 166.619C199.841 166.556 199.756 166.521 199.668 166.521H0.331631C0.288045 166.521 0.244865 166.53 0.204572 166.546C0.164279 166.563 0.127668 166.588 0.0968479 166.618C0.0660277 166.649 0.0416042 166.686 0.0249838 166.726C0.00836338 166.766 -0.000126926 166.81 1.46781e-06 166.853Z" fill="#CCCCCC"/>
<path d="M175.898 95.0868H119.421C118.505 95.0857 117.627 94.7213 116.979 94.0735C116.331 93.4257 115.967 92.5475 115.966 91.6314V84.0198C115.967 83.1037 116.331 82.2255 116.979 81.5777C117.627 80.9299 118.505 80.5655 119.421 80.5645H175.898C176.814 80.5655 177.692 80.9299 178.34 81.5777C178.988 82.2255 179.352 83.1037 179.353 84.0198V91.6314C179.352 92.5475 178.988 93.4257 178.34 94.0735C177.692 94.7213 176.814 95.0857 175.898 95.0868Z" fill="#E6E6E6"/>
<path d="M154.522 86.524H137.881C137.684 86.524 137.494 86.4455 137.355 86.3059C137.215 86.1663 137.137 85.977 137.137 85.7796C137.137 85.5821 137.215 85.3928 137.355 85.2532C137.494 85.1136 137.684 85.0352 137.881 85.0352H154.522C154.719 85.0352 154.908 85.1136 155.048 85.2532C155.188 85.3928 155.266 85.5821 155.266 85.7796C155.266 85.977 155.188 86.1663 155.048 86.3059C154.908 86.4455 154.719 86.524 154.522 86.524Z" fill="#090909"/>
<path d="M170.526 90.6177H137.695C137.497 90.6177 137.308 90.5393 137.168 90.3997C137.029 90.2601 136.95 90.0707 136.95 89.8733C136.95 89.6759 137.029 89.4865 137.168 89.3469C137.308 89.2073 137.497 89.1289 137.695 89.1289H170.526C170.723 89.1289 170.912 89.2073 171.052 89.3469C171.192 89.4865 171.27 89.6759 171.27 89.8733C171.27 90.0707 171.192 90.2601 171.052 90.3997C170.912 90.5393 170.723 90.6177 170.526 90.6177Z" fill="#090909"/>
<path d="M129.041 92.817C131.797 92.817 134.032 90.5824 134.032 87.826C134.032 85.0695 131.797 82.835 129.041 82.835C126.284 82.835 124.05 85.0695 124.05 87.826C124.05 90.5824 126.284 92.817 129.041 92.817Z" fill="#090909"/>
<path d="M157.784 114.595H101.307C100.391 114.594 99.5126 114.229 98.8648 113.581C98.217 112.934 97.8526 112.055 97.8516 111.139V103.528C97.8526 102.612 98.217 101.733 98.8648 101.085C99.5126 100.438 100.391 100.073 101.307 100.072H157.784C158.7 100.073 159.578 100.438 160.226 101.085C160.874 101.733 161.238 102.612 161.239 103.528V111.139C161.238 112.055 160.874 112.934 160.226 113.581C159.578 114.229 158.7 114.594 157.784 114.595Z" fill="#E6E6E6"/>
<path d="M136.407 106.031H119.767C119.569 106.031 119.38 105.952 119.24 105.813C119.101 105.673 119.022 105.484 119.022 105.286C119.022 105.089 119.101 104.9 119.24 104.76C119.38 104.62 119.569 104.542 119.767 104.542H136.407C136.605 104.542 136.794 104.62 136.934 104.76C137.073 104.9 137.152 105.089 137.152 105.286C137.152 105.484 137.073 105.673 136.934 105.813C136.794 105.952 136.605 106.031 136.407 106.031Z" fill="#090909"/>
<path d="M152.411 110.126H119.58C119.383 110.126 119.194 110.047 119.054 109.907C118.914 109.768 118.836 109.579 118.836 109.381C118.836 109.184 118.914 108.994 119.054 108.855C119.194 108.715 119.383 108.637 119.58 108.637H152.411C152.609 108.637 152.798 108.715 152.938 108.855C153.077 108.994 153.156 109.184 153.156 109.381C153.156 109.579 153.077 109.768 152.938 109.907C152.798 110.047 152.609 110.126 152.411 110.126Z" fill="#090909"/>
<path d="M110.927 112.325C113.683 112.325 115.918 110.09 115.918 107.334C115.918 104.577 113.683 102.343 110.927 102.343C108.17 102.343 105.936 104.577 105.936 107.334C105.936 110.09 108.17 112.325 110.927 112.325Z" fill="#090909"/>
</g>
<defs>
<clipPath id="clip0_237_12370">
<rect width="200" height="168" fill="white"/>
</clipPath>
</defs>
</svg>
