<svg width="228" height="168" viewBox="0 0 228 168" fill="none" xmlns="http://www.w3.org/2000/svg">
<path d="M188.223 160.828C190.451 155.61 192.022 149.931 191.278 144.31C191.023 142.404 190.469 140.551 189.635 138.818C188.963 137.406 188.095 136.095 187.058 134.925C186.699 134.512 186.207 134.238 185.667 134.151C185.127 134.065 184.573 134.17 184.103 134.45C184.031 134.492 183.958 134.536 183.891 134.584C183.527 134.84 183.24 135.191 183.061 135.598C183.026 135.676 182.997 135.757 182.974 135.839C182.872 136.182 182.844 136.543 182.893 136.898C183.285 139.791 183.2 142.728 182.642 145.593C182.499 146.323 182.325 147.046 182.119 147.762C181.657 147.185 181.165 146.632 180.646 146.105C179.301 144.741 177.749 143.598 176.048 142.717H176.046C176.037 142.712 176.032 142.709 176.023 142.703C173.96 141.652 171.21 142.088 169.603 142.804C169.497 142.848 169.396 142.899 169.298 142.946C168.46 143.377 168.044 143.871 168.401 144.196C168.482 144.266 168.563 144.338 168.639 144.411C171.075 146.663 173.071 149.349 174.525 152.332V152.335C175.103 153.522 175.59 154.752 175.981 156.013C176.521 157.754 176.968 159.685 178.022 161.105C178.129 161.255 178.246 161.397 178.371 161.533L187.784 161.457C187.807 161.446 187.826 161.438 187.849 161.427L188.223 161.441C188.209 161.373 188.192 161.306 188.176 161.239V161.234C188.167 161.197 188.156 161.158 188.148 161.125C188.139 161.097 188.134 161.072 188.128 161.049C188.145 161.007 188.162 160.968 188.181 160.926C188.195 160.893 188.209 160.862 188.223 160.828Z" fill="#F0F0F0"/>
<path d="M188.176 161.234C188.173 161.255 188.165 161.275 188.152 161.292C188.139 161.309 188.122 161.322 188.103 161.331C188.084 161.339 188.062 161.342 188.041 161.34C188.02 161.338 188 161.33 187.983 161.318C187.596 161.038 187.172 160.813 186.722 160.65C186.72 160.647 186.72 160.65 186.72 160.65C186.153 160.446 185.569 160.291 184.976 160.186C184.97 160.186 184.967 160.184 184.962 160.184C184.721 160.136 184.481 160.094 184.241 160.049C183.072 159.834 181.884 159.574 180.873 158.909C180.461 158.654 180.108 158.315 179.837 157.913C179.565 157.512 179.382 157.058 179.299 156.581C179.151 155.645 179.338 154.703 179.416 153.769C179.422 153.702 179.428 153.632 179.43 153.565C179.436 153.478 179.439 153.395 179.439 153.311C179.468 152.463 179.297 151.621 178.941 150.851C178.484 149.93 177.884 149.086 177.164 148.352C176.792 147.953 176.404 147.568 176.001 147.198H175.998C175.981 147.181 175.967 147.167 175.951 147.153C175.951 147.151 175.948 147.148 175.945 147.145C174.22 145.578 172.264 144.286 170.146 143.316C170.07 143.282 169.992 143.246 169.914 143.212C169.71 143.12 169.506 143.034 169.299 142.947C169.397 142.899 169.497 142.849 169.603 142.804C171.966 143.804 174.147 145.189 176.057 146.902C176.121 146.958 176.185 147.016 176.247 147.075C176.731 147.522 177.191 147.991 177.628 148.481C178.326 149.234 178.893 150.099 179.302 151.041C179.602 151.803 179.735 152.621 179.69 153.439C179.685 153.596 179.674 153.752 179.66 153.912C179.573 154.854 179.38 155.826 179.595 156.768C179.841 157.841 180.674 158.59 181.641 159.049C182.281 159.334 182.953 159.542 183.642 159.669C185.068 159.968 186.541 160.114 187.787 160.879H187.79C187.81 160.893 187.829 160.905 187.846 160.916C187.849 160.916 187.849 160.916 187.849 160.919C187.939 160.972 188.026 161.031 188.109 161.095C188.114 161.097 188.12 161.103 188.126 161.106C188.134 161.112 188.141 161.118 188.148 161.125C188.161 161.14 188.17 161.158 188.175 161.177C188.18 161.196 188.18 161.215 188.176 161.234Z" fill="white"/>
<path d="M176.172 147.171C176.68 146.542 176.948 145.752 176.927 144.943C176.906 144.134 176.599 143.359 176.059 142.756C175.95 142.634 175.756 142.799 175.865 142.92C176.369 143.481 176.655 144.203 176.673 144.956C176.691 145.71 176.439 146.444 175.962 147.028C175.859 147.155 176.07 147.298 176.172 147.171Z" fill="white"/>
<path d="M179.518 153.302C177.875 153.493 176.221 153.058 174.885 152.083C174.752 151.986 174.609 152.197 174.741 152.293C176.134 153.305 177.857 153.754 179.566 153.552C179.729 153.533 179.681 153.283 179.518 153.302Z" fill="white"/>
<path d="M170.162 143.284C170.157 143.295 170.151 143.303 170.145 143.314C169.991 143.597 169.776 143.843 169.516 144.032C169.255 144.222 168.956 144.351 168.639 144.41C168.563 144.337 168.482 144.265 168.401 144.195C168.414 144.187 168.428 144.182 168.443 144.181C168.748 144.147 169.04 144.042 169.295 143.873C169.551 143.705 169.763 143.478 169.913 143.211C169.927 143.189 169.941 143.164 169.953 143.141C169.962 143.127 169.974 143.116 169.988 143.106C170.002 143.097 170.017 143.091 170.034 143.088C170.05 143.085 170.067 143.085 170.083 143.088C170.099 143.092 170.115 143.098 170.129 143.108C170.155 143.127 170.174 143.156 170.18 143.189C170.186 143.222 170.18 143.256 170.162 143.284Z" fill="white"/>
<path d="M29.4763 7.52148C24.4509 7.52715 19.633 9.52599 16.0795 13.0795C12.526 16.633 10.5272 21.4509 10.5215 26.4763V99.1173C10.5272 104.143 12.526 108.961 16.0795 112.514C19.633 116.068 24.4509 118.066 29.4763 118.072H198.469C203.494 118.066 208.312 116.068 211.866 112.514C215.419 108.961 217.418 104.143 217.424 99.1173V26.4763C217.418 21.4509 215.419 16.633 211.866 13.0795C208.312 9.52599 203.494 7.52715 198.469 7.52148H29.4763Z" fill="white"/>
<path d="M198.469 119.593H29.4762C24.0474 119.587 18.8428 117.428 15.0041 113.589C11.1654 109.751 9.00611 104.546 9 99.1171V26.4762C9.00611 21.0474 11.1654 15.8428 15.0041 12.0041C18.8428 8.16538 24.0474 6.00611 29.4762 6H198.469C203.897 6.00611 209.102 8.16537 212.941 12.0041C216.779 15.8428 218.939 21.0474 218.945 26.4762V99.1171C218.939 104.546 216.779 109.751 212.941 113.589C209.102 117.428 203.897 119.587 198.469 119.593ZM29.4762 9.04267C24.8541 9.04789 20.4229 10.8863 17.1546 14.1546C13.8863 17.4229 12.0479 21.8541 12.0427 26.4762V99.1171C12.0479 103.739 13.8863 108.17 17.1546 111.439C20.4229 114.707 24.8541 116.545 29.4762 116.551H198.469C203.091 116.545 207.522 114.707 210.79 111.439C214.059 108.17 215.897 103.739 215.902 99.1171V26.4762C215.897 21.8541 214.059 17.4229 210.79 14.1546C207.522 10.8863 203.091 9.04789 198.469 9.04267H29.4762Z" fill="#1B1B1B"/>
<path d="M114.426 22.5603H34.0587C32.3434 22.5633 30.6993 23.2459 29.4864 24.4588C28.2735 25.6717 27.5909 27.3158 27.5879 29.0311V65.2795C27.5872 65.664 27.6229 66.0478 27.6944 66.4256C27.7198 66.598 27.7603 66.7653 27.8009 66.9327C28.169 68.3121 28.9817 69.5316 30.1129 70.4025C31.2442 71.2735 32.631 71.7471 34.0587 71.7503H114.426C114.558 71.7503 114.69 71.7452 114.816 71.735H114.908V71.73C114.933 71.7308 114.959 71.7291 114.984 71.7249C115.009 71.7249 115.04 71.7199 115.065 71.7199C115.074 71.7207 115.082 71.7189 115.09 71.7148C115.146 71.7097 115.202 71.7046 115.253 71.6996C115.344 71.6844 115.435 71.6742 115.521 71.659C115.533 71.6548 115.545 71.6531 115.557 71.6539C115.573 71.6462 115.59 71.6427 115.608 71.6438C115.61 71.6419 115.612 71.6404 115.615 71.6395C115.617 71.6386 115.62 71.6384 115.623 71.6387C115.679 71.6286 115.734 71.6184 115.79 71.6032C115.821 71.5989 115.852 71.5921 115.881 71.5829C115.993 71.5576 116.104 71.5322 116.211 71.4967C116.262 71.4815 116.307 71.4714 116.358 71.4562C116.424 71.4359 116.495 71.4105 116.561 71.3852C116.595 71.3756 116.629 71.3638 116.662 71.3497C116.666 71.3496 116.67 71.3487 116.674 71.3469C116.677 71.3451 116.68 71.3426 116.683 71.3396C116.829 71.2878 116.973 71.2286 117.114 71.162C117.235 71.1063 117.352 71.0454 117.469 70.9846C117.514 70.9643 117.555 70.9389 117.6 70.9136C117.612 70.9086 117.622 70.9018 117.631 70.8933C117.748 70.8223 117.864 70.7513 117.976 70.6854C117.981 70.6803 117.981 70.6752 117.986 70.6752C117.987 70.6752 117.987 70.6751 117.988 70.6749C117.988 70.6746 117.989 70.6743 117.99 70.6738C117.99 70.6733 117.99 70.6727 117.991 70.6721C117.991 70.6715 117.991 70.6708 117.991 70.6702C118.11 70.5953 118.225 70.5141 118.336 70.4267H118.341C118.371 70.4014 118.397 70.3811 118.422 70.3608C118.458 70.3354 118.493 70.305 118.523 70.2797C118.584 70.229 118.645 70.1782 118.701 70.1275C118.735 70.1015 118.768 70.0727 118.797 70.0413C118.883 69.9653 118.965 69.8841 119.046 69.803C119.089 69.7616 119.13 69.7176 119.167 69.6711C119.231 69.6106 119.29 69.5463 119.345 69.4784C119.396 69.4125 119.451 69.3466 119.502 69.2807C119.562 69.2114 119.618 69.1386 119.67 69.0626C119.761 68.9409 119.842 68.8192 119.923 68.6873C119.989 68.5808 120.055 68.4693 120.116 68.3577C120.146 68.3019 120.177 68.2411 120.207 68.1802C120.212 68.1802 120.212 68.1752 120.212 68.1701C120.268 68.0636 120.319 67.9571 120.364 67.8455C120.385 67.7999 120.405 67.7593 120.42 67.7137C120.461 67.6275 120.491 67.5362 120.527 67.4449C120.582 67.2776 120.638 67.1051 120.684 66.9327C120.724 66.7654 120.765 66.598 120.79 66.4256C120.862 66.0478 120.897 65.6641 120.897 65.2795V29.0311C120.894 27.3158 120.211 25.6717 118.998 24.4588C117.785 23.2459 116.141 22.5633 114.426 22.5603Z" fill="#6C63FF"/>
<path opacity="0.3" d="M120.897 32.957H27.5879V33.4641H120.897V32.957Z" fill="white"/>
<path opacity="0.3" d="M120.897 38.5347H27.5879V39.0418H120.897V38.5347Z" fill="white"/>
<path opacity="0.3" d="M120.897 44.1133H27.5879V44.6204H120.897V44.1133Z" fill="white"/>
<path opacity="0.3" d="M120.897 49.6912H27.5879V50.1983H120.897V49.6912Z" fill="white"/>
<path opacity="0.3" d="M120.897 55.2708H27.5879V55.7779H120.897V55.2708Z" fill="white"/>
<path opacity="0.3" d="M120.897 60.8486H27.5879V61.3557H120.897V60.8486Z" fill="white"/>
<path opacity="0.3" d="M120.791 66.4253C120.766 66.5977 120.725 66.765 120.684 66.9324H27.6595C27.629 66.7648 27.6087 66.5954 27.5987 66.4253H120.791Z" fill="white"/>
<g opacity="0.1">
<path d="M120.897 57.4305V65.2806C120.897 65.6652 120.862 66.0489 120.79 66.4267C120.765 66.5991 120.724 66.7665 120.684 66.9338C120.638 67.1062 120.582 67.2787 120.526 67.446C120.491 67.5373 120.461 67.6286 120.42 67.7148C120.405 67.7604 120.384 67.801 120.364 67.8466C120.319 67.9582 120.268 68.0647 120.212 68.1712C120.212 68.1763 120.212 68.1813 120.207 68.1813C120.177 68.2422 120.146 68.303 120.116 68.3588C120.055 68.4704 119.989 68.5819 119.923 68.6884C119.842 68.8203 119.761 68.942 119.669 69.0637C119.618 69.1397 119.562 69.2125 119.502 69.2818C119.451 69.3477 119.396 69.4136 119.345 69.4795C119.29 69.5474 119.231 69.6117 119.167 69.6722C119.13 69.7187 119.089 69.7627 119.046 69.8041C118.965 69.8852 118.883 69.9663 118.797 70.0424C118.768 70.0738 118.735 70.1026 118.701 70.1286C118.645 70.1793 118.584 70.2301 118.523 70.2808C118.493 70.3061 118.457 70.3365 118.422 70.3619C118.397 70.3822 118.371 70.4025 118.341 70.4278H118.336C118.225 70.5152 118.11 70.5964 117.991 70.6712C117.991 70.6719 117.991 70.6726 117.991 70.6732C117.99 70.6738 117.99 70.6744 117.989 70.6749C117.989 70.6753 117.988 70.6757 117.988 70.676C117.987 70.6762 117.987 70.6763 117.986 70.6763C117.981 70.6763 117.981 70.6814 117.976 70.6864C117.905 70.7372 117.829 70.7828 117.753 70.8285C117.712 70.8538 117.671 70.8741 117.631 70.8944C117.622 70.9028 117.612 70.9097 117.6 70.9146C117.555 70.94 117.514 70.9654 117.469 70.9856C117.352 71.0465 117.235 71.1073 117.114 71.1631C116.973 71.2296 116.829 71.2889 116.683 71.3406C116.68 71.3437 116.677 71.3462 116.674 71.348C116.67 71.3497 116.666 71.3507 116.662 71.3507C116.629 71.3648 116.595 71.3767 116.561 71.3862C116.495 71.4116 116.424 71.437 116.358 71.4572C116.307 71.4725 116.262 71.4826 116.211 71.4978C116.104 71.5333 115.993 71.5587 115.881 71.584C115.851 71.5932 115.821 71.6 115.79 71.6043C115.734 71.6195 115.678 71.6297 115.623 71.6398C115.62 71.6394 115.617 71.6397 115.615 71.6406C115.612 71.6415 115.609 71.6429 115.607 71.6449C115.59 71.6438 115.572 71.6473 115.557 71.655C115.545 71.6542 115.533 71.6559 115.521 71.6601C115.435 71.6753 115.344 71.6854 115.252 71.7006C115.202 71.7057 115.146 71.7108 115.09 71.7159C115.082 71.72 115.074 71.7217 115.065 71.7209C115.009 71.726 114.958 71.7311 114.908 71.7361H114.897C114.842 71.7412 114.786 71.7412 114.73 71.7463C114.629 71.7514 114.527 71.7514 114.426 71.7514H34.0586C32.6309 71.7482 31.2441 71.2746 30.1129 70.4036C28.9816 69.5327 28.169 68.3132 27.8008 66.9338H27.6588C27.6283 66.7661 27.6079 66.5968 27.598 66.4267C27.5929 66.3303 27.5878 66.2289 27.5878 66.1325V57.2885C28.6522 57.3199 29.7077 57.4921 30.7269 57.8007C33.4856 58.6425 36.1682 60.0675 39.0486 60.0675C39.2768 60.0675 39.5151 60.0574 39.7484 60.0371C42.781 59.7835 45.139 57.9021 47.1015 55.7773C47.2587 55.61 47.4159 55.4426 47.563 55.2702C47.9332 54.8595 48.2882 54.4386 48.633 54.0227C49.7347 52.6314 50.9695 51.3508 52.3198 50.1991C52.5378 50.0216 52.7559 49.8543 52.979 49.692C54.2883 48.7155 55.8303 48.0984 57.4518 47.9019C57.6597 47.8816 57.8676 47.8664 58.0755 47.8613C60.2459 47.7954 62.2845 48.5763 64.1406 49.692C64.4093 49.8543 64.6781 50.0216 64.9367 50.1991C65.8242 50.8007 66.679 51.449 67.4977 52.1413C68.7615 53.2515 70.0818 54.2959 71.4531 55.2702C71.5546 55.3412 71.656 55.4122 71.7574 55.473C71.9146 55.5796 72.0769 55.681 72.2391 55.7773C73.6283 56.6703 75.1906 57.2596 76.8235 57.5066C76.8792 57.5167 76.9401 57.5269 77.0009 57.5319C79.643 57.8413 82.1025 57.0603 84.349 55.7773C84.6279 55.6151 84.9119 55.4477 85.1858 55.2702C86.9406 54.1039 88.5854 52.7799 90.0997 51.3147C90.4952 50.9445 90.8959 50.5693 91.3117 50.1991C91.4993 50.0317 91.687 49.8593 91.8797 49.692C94.8919 47.0448 98.3656 44.6208 102.468 44.6208C102.641 44.6208 102.818 44.6259 102.996 44.636C105.947 44.7781 108.538 46.2081 110.714 48.0236C111.346 48.5479 111.95 49.1048 112.524 49.692C112.55 49.7173 112.57 49.7376 112.595 49.763C112.737 49.905 112.879 50.052 113.011 50.1991C114.634 51.8979 116.13 53.7134 117.895 55.2702C118.087 55.4477 118.285 55.615 118.488 55.7773C119.096 56.2825 119.74 56.7435 120.415 57.1567C120.572 57.253 120.734 57.3443 120.897 57.4305Z" fill="black"/>
</g>
<g opacity="0.1">
<path d="M120.897 49.7668V65.2793C120.897 65.6639 120.862 66.0476 120.79 66.4254C120.765 66.5978 120.724 66.7652 120.684 66.9325C120.638 67.1049 120.582 67.2774 120.527 67.4447C120.491 67.536 120.461 67.6273 120.42 67.7135C120.405 67.7591 120.385 67.7997 120.364 67.8453C120.319 67.9569 120.268 68.0634 120.212 68.1699C120.212 68.175 120.212 68.18 120.207 68.18C120.177 68.2409 120.146 68.3018 120.116 68.3575C120.055 68.4691 119.989 68.5807 119.923 68.6871C119.842 68.819 119.761 68.9407 119.67 69.0624C119.618 69.1384 119.562 69.2112 119.502 69.2805C119.451 69.3464 119.396 69.4123 119.345 69.4782C119.29 69.5461 119.231 69.6104 119.167 69.6709C119.13 69.7174 119.089 69.7614 119.046 69.8028C118.965 69.8839 118.883 69.9651 118.797 70.0411C118.768 70.0725 118.735 70.1013 118.701 70.1273C118.645 70.178 118.584 70.2288 118.523 70.2795C118.493 70.3048 118.458 70.3353 118.422 70.3606C118.397 70.3809 118.371 70.4012 118.341 70.4266H118.336C118.225 70.5139 118.11 70.5951 117.991 70.67C117.991 70.6706 117.991 70.6713 117.991 70.6719C117.99 70.6725 117.99 70.6731 117.99 70.6736C117.989 70.6741 117.988 70.6744 117.988 70.6747C117.987 70.6749 117.987 70.6751 117.986 70.675C117.981 70.675 117.981 70.6801 117.976 70.6852C117.905 70.7359 117.829 70.7815 117.753 70.8272C117.712 70.8525 117.671 70.8728 117.631 70.8931C117.622 70.9016 117.612 70.9084 117.6 70.9134C117.555 70.9387 117.514 70.9641 117.469 70.9844C117.352 71.0452 117.235 71.1061 117.114 71.1618C116.973 71.2284 116.829 71.2876 116.683 71.3393C116.68 71.3424 116.677 71.3449 116.674 71.3467C116.67 71.3484 116.666 71.3494 116.662 71.3495C116.629 71.3636 116.595 71.3754 116.561 71.385C116.495 71.4103 116.424 71.4357 116.358 71.456C116.307 71.4712 116.262 71.4813 116.211 71.4965C116.104 71.532 115.993 71.5574 115.881 71.5827C115.852 71.5919 115.821 71.5987 115.79 71.603C115.734 71.6182 115.679 71.6284 115.623 71.6385C115.62 71.6382 115.617 71.6384 115.615 71.6393C115.612 71.6402 115.61 71.6417 115.608 71.6436C115.59 71.6425 115.573 71.646 115.557 71.6537C115.545 71.6529 115.533 71.6547 115.521 71.6588C115.435 71.674 115.344 71.6842 115.253 71.6994C115.202 71.7044 115.146 71.7095 115.09 71.7146C115.082 71.7187 115.074 71.7205 115.065 71.7197C115.04 71.7197 115.009 71.7247 114.984 71.7247C114.959 71.7289 114.933 71.7306 114.908 71.7298C114.886 71.7342 114.864 71.7359 114.842 71.7348H114.816C114.791 71.7399 114.761 71.7399 114.73 71.745C114.629 71.7501 114.527 71.7501 114.426 71.7501H34.0587C32.631 71.7469 31.2442 71.2733 30.1129 70.4023C28.9817 69.5314 28.169 68.3119 27.8009 66.9325C27.7603 66.7651 27.7198 66.5978 27.6944 66.4254C27.6229 66.0476 27.5872 65.6638 27.5879 65.2793V56.2477C27.7654 56.0955 27.9378 55.9383 28.1102 55.7761C28.2877 55.6087 28.4601 55.4413 28.6326 55.2689C30.1431 53.6968 31.5188 52.0004 32.7452 50.1978C32.7858 50.142 32.8264 50.0913 32.8619 50.0355C32.943 49.9189 33.0241 49.8073 33.1104 49.6907C34.3402 47.8907 35.7158 46.1946 37.223 44.6196C37.3955 44.4471 37.5679 44.2798 37.7454 44.1125C39.6318 42.3376 41.782 41.014 44.3176 40.6996C47.8116 40.2635 51.0622 41.8811 53.9375 44.1125C54.1505 44.2798 54.3584 44.4471 54.5663 44.6196C55.5501 45.4208 56.4832 46.293 57.3656 47.1602C57.5988 47.3935 57.8372 47.6268 58.0755 47.86C58.6892 48.4736 59.318 49.0872 59.9519 49.6907C60.1344 49.8631 60.3119 50.0305 60.4945 50.1978C63.03 52.5458 65.7735 54.6097 69.0342 55.2689C69.2574 55.3146 69.4856 55.3551 69.7138 55.3856C70.9458 55.5496 72.1964 55.5102 73.4157 55.2689C73.6186 55.2335 73.8163 55.1878 74.0192 55.1371C77.072 54.3815 79.9017 52.4798 82.4626 50.1978C82.6452 50.0305 82.8328 49.8631 83.0154 49.6907C84.3237 48.4787 85.5662 47.1805 86.7274 45.9026C87.1128 45.4766 87.5084 45.0455 87.9039 44.6196C88.0662 44.4522 88.2234 44.2849 88.3806 44.1125C90.0778 42.2629 91.9342 40.566 93.9284 39.0413C94.1668 38.8638 94.4051 38.6965 94.6435 38.5342C97.3261 36.7035 100.257 35.527 103.477 35.7147C106.135 35.8668 108.564 36.9621 110.749 38.5342C110.973 38.6965 111.196 38.8638 111.419 39.0413C113.082 40.3775 114.6 41.8852 115.947 43.5394C116.104 43.727 116.262 43.9198 116.419 44.1125C116.5 44.2088 116.576 44.3102 116.657 44.4066L116.825 44.6196C118.168 46.2981 119.462 48.0426 120.836 49.6907L120.897 49.7668Z" fill="black"/>
</g>
<g opacity="0.1">
<path d="M120.897 43.363V65.2805C120.897 65.665 120.862 66.0487 120.79 66.4266C120.765 66.599 120.724 66.7663 120.684 66.9337C120.638 67.1061 120.582 67.2785 120.526 67.4459C120.491 67.5371 120.461 67.6284 120.42 67.7146C120.405 67.7603 120.384 67.8008 120.364 67.8465C120.319 67.958 120.268 68.0645 120.212 68.171C120.212 68.1761 120.212 68.1812 120.207 68.1812C120.177 68.242 120.146 68.3029 120.116 68.3587C120.055 68.4702 119.989 68.5818 119.923 68.6883C119.842 68.8201 119.761 68.9418 119.669 69.0636C119.618 69.1396 119.562 69.2124 119.502 69.2816C119.451 69.3475 119.396 69.4135 119.345 69.4794C119.29 69.5472 119.231 69.6116 119.167 69.6721C119.13 69.7185 119.089 69.7626 119.046 69.8039C118.965 69.8851 118.883 69.9662 118.797 70.0423C118.768 70.0736 118.735 70.1025 118.701 70.1285C118.645 70.1792 118.584 70.2299 118.523 70.2806C118.493 70.306 118.457 70.3364 118.422 70.3618C118.397 70.382 118.371 70.4023 118.341 70.4277H118.336C118.225 70.515 118.11 70.5963 117.991 70.6711C117.991 70.6718 117.991 70.6724 117.991 70.6731C117.99 70.6737 117.99 70.6742 117.989 70.6747C117.989 70.6752 117.988 70.6756 117.988 70.6758C117.987 70.6761 117.987 70.6762 117.986 70.6762C117.981 70.6762 117.981 70.6813 117.976 70.6863C117.905 70.737 117.829 70.7826 117.753 70.8283C117.712 70.8537 117.671 70.8739 117.631 70.8942C117.622 70.9027 117.612 70.9095 117.6 70.9145C117.555 70.9398 117.514 70.9652 117.469 70.9855C117.352 71.0463 117.235 71.1072 117.114 71.163C116.973 71.2295 116.829 71.2887 116.683 71.3405C116.68 71.3436 116.677 71.3461 116.674 71.3478C116.67 71.3496 116.666 71.3505 116.662 71.3506C116.629 71.3647 116.595 71.3766 116.561 71.3861C116.495 71.4115 116.424 71.4368 116.358 71.4571C116.307 71.4723 116.262 71.4824 116.211 71.4977C116.104 71.5332 115.993 71.5585 115.881 71.5839C115.851 71.593 115.821 71.5998 115.79 71.6041C115.734 71.6194 115.678 71.6295 115.623 71.6396C115.62 71.6393 115.617 71.6396 115.615 71.6405C115.612 71.6413 115.609 71.6428 115.607 71.6447C115.59 71.6436 115.572 71.6471 115.557 71.6549C115.545 71.6541 115.533 71.6558 115.521 71.6599C115.435 71.6751 115.344 71.6853 115.252 71.7005C115.202 71.7056 115.146 71.7106 115.09 71.7157C115.082 71.7198 115.074 71.7216 115.065 71.7208C115.04 71.7208 115.009 71.7259 114.984 71.7259C114.959 71.73 114.933 71.7317 114.908 71.7309C114.905 71.7337 114.901 71.7354 114.897 71.736H114.816C114.69 71.7461 114.558 71.7512 114.426 71.7512H34.0586C32.6309 71.7481 31.2441 71.2744 30.1129 70.4035C28.9816 69.5326 28.169 68.313 27.8008 66.9336C27.7603 66.7663 27.7197 66.5989 27.6943 66.4265C27.6228 66.0487 27.5871 65.665 27.5878 65.2804V52.1868C28.1 51.5225 28.6139 50.8599 29.1295 50.1989C29.2613 50.0265 29.3932 49.8592 29.525 49.6918C30.2198 48.7993 30.9196 47.9169 31.6397 47.0548C32.3293 46.2282 33.0545 45.4118 33.8101 44.6207C33.9724 44.4533 34.1347 44.2809 34.302 44.1136C36.2258 42.1093 38.4354 40.4005 40.859 39.0425C41.1886 38.8599 41.5233 38.6926 41.8631 38.5354C43.6623 37.6763 45.609 37.1686 47.5986 37.0394C50.2085 36.909 52.8103 37.4228 55.1748 38.5354C55.5298 38.6875 55.8797 38.8599 56.2245 39.0425C58.7043 40.3204 61.032 42.1105 63.2125 44.1136C63.4002 44.2759 63.5777 44.4483 63.7602 44.6207C65.4895 46.2435 67.1274 47.9829 68.6894 49.6918C68.806 49.8186 68.9226 49.9505 69.0393 50.0772C69.0748 50.1178 69.1154 50.1584 69.1509 50.1989C70.6722 51.8724 72.2949 53.5662 74.0191 55.1382C74.0648 55.1838 74.1155 55.2244 74.1662 55.2701C74.3538 55.4425 74.5415 55.6098 74.7341 55.7772C75.4137 56.3807 76.1135 56.9587 76.8235 57.5064C78.506 58.8316 80.3393 59.9534 82.2851 60.8483C82.6958 61.036 83.1117 61.2033 83.5326 61.3554C85.8512 62.241 88.3534 62.5372 90.8147 62.2175C91.9452 62.061 93.0533 61.7716 94.116 61.3554C94.5217 61.2033 94.9173 61.0309 95.3077 60.8483C97.8788 59.6312 100.201 57.7904 102.402 55.7772C102.585 55.6098 102.767 55.4425 102.95 55.2701C104.202 54.0936 105.42 52.8714 106.621 51.6899C107.129 51.1929 107.646 50.6908 108.178 50.1989C108.361 50.0316 108.548 49.8642 108.736 49.6918C109.375 49.1188 110.034 48.5559 110.714 48.0234C112.375 46.6641 114.202 45.5207 116.15 44.6207C116.317 44.5446 116.49 44.4736 116.657 44.4077C116.916 44.3012 117.174 44.2049 117.433 44.1136C118.55 43.7134 119.714 43.4611 120.897 43.363Z" fill="black"/>
</g>
<path d="M47.6184 40.0549C48.4587 40.0549 49.1398 39.3738 49.1398 38.5335C49.1398 37.6933 48.4587 37.0122 47.6184 37.0122C46.7782 37.0122 46.0971 37.6933 46.0971 38.5335C46.0971 39.3738 46.7782 40.0549 47.6184 40.0549Z" fill="white"/>
<path d="M70.9466 56.7919C71.7868 56.7919 72.468 56.1108 72.468 55.2706C72.468 54.4304 71.7868 53.7493 70.9466 53.7493C70.1064 53.7493 69.4253 54.4304 69.4253 55.2706C69.4253 56.1108 70.1064 56.7919 70.9466 56.7919Z" fill="white"/>
<path d="M102.387 45.6345C103.228 45.6345 103.909 44.9533 103.909 44.1131C103.909 43.2729 103.228 42.5918 102.387 42.5918C101.547 42.5918 100.866 43.2729 100.866 44.1131C100.866 44.9533 101.547 45.6345 102.387 45.6345Z" fill="white"/>
<path d="M171.588 57.094H135.715C135.545 57.0937 135.377 57.127 135.219 57.192C135.062 57.2569 134.919 57.3522 134.799 57.4724C134.678 57.5927 134.583 57.7354 134.518 57.8926C134.452 58.0498 134.419 58.2182 134.419 58.3884C134.419 58.5585 134.452 58.727 134.518 58.8842C134.583 59.0413 134.678 59.1841 134.799 59.3043C134.919 59.4245 135.062 59.5198 135.219 59.5848C135.377 59.6497 135.545 59.683 135.715 59.6827H171.588C171.931 59.6827 172.26 59.5464 172.503 59.3036C172.746 59.0609 172.882 58.7317 172.882 58.3884C172.882 58.0451 172.746 57.7159 172.503 57.4731C172.26 57.2304 171.931 57.094 171.588 57.094Z" fill="#E6E6E6"/>
<path d="M171.588 76.6943H135.715C135.372 76.6943 135.043 76.8307 134.8 77.0734C134.557 77.3162 134.421 77.6454 134.421 77.9887C134.421 78.332 134.557 78.6612 134.8 78.904C135.043 79.1467 135.372 79.2831 135.715 79.2831H171.588C171.931 79.2831 172.26 79.1467 172.503 78.904C172.746 78.6612 172.882 78.332 172.882 77.9887C172.882 77.6454 172.746 77.3162 172.503 77.0734C172.26 76.8307 171.931 76.6943 171.588 76.6943Z" fill="#E6E6E6"/>
<path d="M171.588 96.2944H135.715C135.372 96.2944 135.043 96.4308 134.8 96.6735C134.557 96.9163 134.421 97.2455 134.421 97.5888C134.421 97.9321 134.557 98.2613 134.8 98.5041C135.043 98.7468 135.372 98.8832 135.715 98.8832H171.588C171.931 98.8832 172.26 98.7468 172.503 98.5041C172.746 98.2613 172.882 97.9321 172.882 97.5888C172.882 97.2455 172.746 96.9163 172.503 96.6735C172.26 96.4308 171.931 96.2944 171.588 96.2944Z" fill="#E6E6E6"/>
<path d="M193.325 61.7181C195.11 61.7181 196.557 60.2709 196.557 58.4856C196.557 56.7004 195.11 55.2532 193.325 55.2532C191.539 55.2532 190.092 56.7004 190.092 58.4856C190.092 60.2709 191.539 61.7181 193.325 61.7181Z" fill="#F2F2F2"/>
<path d="M192.884 60.1677C192.828 60.1677 192.773 60.1547 192.723 60.1298C192.673 60.1048 192.63 60.0685 192.596 60.0239L191.714 58.848C191.686 58.8103 191.665 58.7673 191.653 58.7215C191.642 58.6757 191.639 58.6281 191.646 58.5813C191.652 58.5345 191.668 58.4895 191.692 58.4488C191.716 58.4082 191.748 58.3726 191.786 58.3443C191.824 58.3159 191.867 58.2953 191.912 58.2836C191.958 58.2719 192.006 58.2693 192.053 58.276C192.099 58.2828 192.144 58.2986 192.185 58.3227C192.226 58.3469 192.261 58.3787 192.29 58.4166L192.866 59.1858L194.348 56.9631C194.401 56.8837 194.483 56.8287 194.577 56.81C194.67 56.7913 194.768 56.8105 194.847 56.8634C194.926 56.9163 194.981 56.9985 195 57.092C195.019 57.1855 195 57.2827 194.947 57.362L193.183 60.0076C193.151 60.0554 193.108 60.0949 193.058 60.1228C193.007 60.1506 192.951 60.166 192.894 60.1676L192.884 60.1677Z" fill="white"/>
<path d="M193.325 81.3172C195.11 81.3172 196.557 79.87 196.557 78.0848C196.557 76.2995 195.11 74.8523 193.325 74.8523C191.539 74.8523 190.092 76.2995 190.092 78.0848C190.092 79.87 191.539 81.3172 193.325 81.3172Z" fill="#F2F2F2"/>
<path d="M192.884 79.7681C192.828 79.7681 192.773 79.7551 192.723 79.7301C192.673 79.7051 192.63 79.6689 192.596 79.6242L191.714 78.4484C191.686 78.4106 191.665 78.3676 191.653 78.3218C191.642 78.2761 191.639 78.2284 191.646 78.1816C191.652 78.1349 191.668 78.0899 191.692 78.0492C191.716 78.0085 191.748 77.973 191.786 77.9446C191.824 77.9163 191.867 77.8957 191.912 77.8839C191.958 77.8722 192.006 77.8697 192.053 77.8764C192.099 77.8831 192.144 77.899 192.185 77.9231C192.226 77.9472 192.261 77.9791 192.29 78.0169L192.866 78.7861L194.348 76.5634C194.374 76.5241 194.408 76.4904 194.447 76.4641C194.487 76.4379 194.531 76.4196 194.577 76.4103C194.623 76.401 194.671 76.401 194.717 76.4102C194.764 76.4193 194.808 76.4375 194.847 76.4637C194.886 76.4899 194.92 76.5236 194.946 76.5628C194.972 76.602 194.991 76.6461 195 76.6924C195.009 76.7387 195.009 76.7864 195 76.8327C194.991 76.879 194.973 76.9231 194.947 76.9623L193.183 79.6079C193.151 79.6558 193.108 79.6953 193.058 79.7231C193.007 79.751 192.951 79.7663 192.894 79.7679L192.884 79.7681Z" fill="white"/>
<path d="M193.325 100.919C195.11 100.919 196.557 99.4713 196.557 97.6861C196.557 95.9008 195.11 94.4536 193.325 94.4536C191.539 94.4536 190.092 95.9008 190.092 97.6861C190.092 99.4713 191.539 100.919 193.325 100.919Z" fill="#F2F2F2"/>
<path d="M171.588 37.4919H135.715C135.372 37.4919 135.043 37.6283 134.8 37.8711C134.557 38.1138 134.421 38.443 134.421 38.7863C134.421 39.1296 134.557 39.4588 134.8 39.7016C135.043 39.9443 135.372 40.0807 135.715 40.0807H171.588C171.931 40.0807 172.26 39.9443 172.503 39.7016C172.746 39.4588 172.882 39.1296 172.882 38.7863C172.882 38.443 172.746 38.1138 172.503 37.8711C172.26 37.6283 171.931 37.4919 171.588 37.4919Z" fill="#E6E6E6"/>
<path d="M193.325 42.1158C195.11 42.1158 196.557 40.6686 196.557 38.8833C196.557 37.0981 195.11 35.6509 193.325 35.6509C191.539 35.6509 190.092 37.0981 190.092 38.8833C190.092 40.6686 191.539 42.1158 193.325 42.1158Z" fill="#6C63FF"/>
<path d="M192.884 40.5657C192.828 40.5657 192.773 40.5527 192.723 40.5277C192.673 40.5027 192.63 40.4665 192.596 40.4218L191.714 39.246C191.686 39.2082 191.665 39.1652 191.653 39.1194C191.642 39.0737 191.639 39.026 191.646 38.9792C191.652 38.9325 191.668 38.8875 191.692 38.8468C191.716 38.8061 191.748 38.7706 191.786 38.7422C191.824 38.7139 191.867 38.6933 191.912 38.6816C191.958 38.6698 192.006 38.6673 192.053 38.674C192.099 38.6807 192.144 38.6966 192.185 38.7207C192.226 38.7448 192.261 38.7767 192.29 38.8145L192.866 39.5837L194.348 37.361C194.374 37.3218 194.408 37.288 194.447 37.2617C194.487 37.2355 194.531 37.2172 194.577 37.2079C194.623 37.1986 194.671 37.1986 194.717 37.2078C194.764 37.2169 194.808 37.2351 194.847 37.2613C194.886 37.2875 194.92 37.3212 194.946 37.3604C194.972 37.3997 194.991 37.4437 195 37.49C195.009 37.5363 195.009 37.584 195 37.6303C194.991 37.6766 194.973 37.7207 194.947 37.76L193.183 40.4055C193.151 40.4534 193.108 40.4929 193.058 40.5207C193.007 40.5486 192.951 40.5639 192.894 40.5656L192.884 40.5657Z" fill="white"/>
<path d="M182.601 42.1158C184.386 42.1158 185.833 40.6686 185.833 38.8833C185.833 37.0981 184.386 35.6509 182.601 35.6509C180.815 35.6509 179.368 37.0981 179.368 38.8833C179.368 40.6686 180.815 42.1158 182.601 42.1158Z" fill="#F2F2F2"/>
<path d="M182.601 61.7181C184.386 61.7181 185.833 60.2709 185.833 58.4856C185.833 56.7004 184.386 55.2532 182.601 55.2532C180.815 55.2532 179.368 56.7004 179.368 58.4856C179.368 60.2709 180.815 61.7181 182.601 61.7181Z" fill="#F2F2F2"/>
<path d="M182.601 81.3172C184.386 81.3172 185.833 79.87 185.833 78.0848C185.833 76.2995 184.386 74.8523 182.601 74.8523C180.815 74.8523 179.368 76.2995 179.368 78.0848C179.368 79.87 180.815 81.3172 182.601 81.3172Z" fill="#F2F2F2"/>
<path d="M182.601 100.919C184.386 100.919 185.833 99.4713 185.833 97.6861C185.833 95.9008 184.386 94.4536 182.601 94.4536C180.815 94.4536 179.368 95.9008 179.368 97.6861C179.368 99.4713 180.815 100.919 182.601 100.919Z" fill="#F2F2F2"/>
<path d="M192.883 99.3672C192.828 99.3672 192.773 99.3542 192.723 99.3292C192.673 99.3042 192.629 99.268 192.596 99.2233L191.714 98.0475C191.686 98.0097 191.665 97.9667 191.653 97.921C191.642 97.8752 191.639 97.8277 191.646 97.7809C191.652 97.7342 191.668 97.6892 191.692 97.6486C191.716 97.6079 191.748 97.5724 191.786 97.5441C191.824 97.5158 191.867 97.4952 191.912 97.4835C191.958 97.4717 192.006 97.4691 192.052 97.4758C192.099 97.4825 192.144 97.4983 192.185 97.5224C192.225 97.5464 192.261 97.5783 192.289 97.616L192.866 98.3852L194.348 96.1626C194.401 96.0832 194.483 96.0281 194.577 96.0094C194.67 95.9907 194.767 96.0099 194.847 96.0628C194.926 96.1157 194.981 96.198 195 96.2915C195.018 96.385 194.999 96.4821 194.946 96.5615L193.183 99.2071C193.151 99.2549 193.108 99.2944 193.058 99.3222C193.007 99.3501 192.951 99.3655 192.893 99.3671L192.883 99.3672Z" fill="white"/>
<path d="M188.222 160.829C188.223 160.847 188.219 160.866 188.212 160.883C188.205 160.9 188.194 160.915 188.18 160.927C188.158 160.943 188.132 160.954 188.104 160.957C188.076 160.963 188.047 160.958 188.023 160.943C188 160.928 187.982 160.904 187.976 160.876C187.59 159.579 186.645 158.584 185.751 157.609C184.946 156.734 184.155 155.812 183.75 154.674C183.574 154.222 183.496 153.738 183.521 153.254C183.546 152.77 183.674 152.297 183.895 151.865C184.034 151.607 184.196 151.362 184.378 151.133C184.778 150.624 185.253 150.172 185.681 149.691C185.726 149.641 185.77 149.587 185.812 149.537C185.871 149.473 185.924 149.406 185.974 149.339C186.507 148.679 186.878 147.904 187.056 147.075C187.247 146.064 187.276 145.029 187.143 144.009C187.087 143.466 187.009 142.928 186.911 142.393C186.905 142.368 186.902 142.346 186.897 142.323C186.465 140.03 185.681 137.817 184.571 135.764C184.529 135.688 184.49 135.613 184.448 135.54C184.269 135.216 184.085 134.897 183.889 134.584C183.956 134.537 184.029 134.492 184.102 134.45C184.743 135.488 185.301 136.575 185.77 137.7C186.378 139.145 186.834 140.648 187.132 142.186C187.151 142.27 187.165 142.357 187.179 142.441C187.296 143.086 187.383 143.74 187.436 144.392C187.541 145.413 187.471 146.445 187.229 147.444C187.01 148.236 186.622 148.971 186.092 149.599C185.997 149.719 185.896 149.836 185.79 149.951C185.365 150.415 184.896 150.865 184.513 151.371C184.317 151.625 184.151 151.901 184.018 152.192C183.568 153.199 183.78 154.3 184.278 155.244C185.178 156.963 186.894 158.134 187.808 159.82C187.977 160.13 188.113 160.457 188.216 160.795C188.219 160.806 188.221 160.817 188.222 160.829Z" fill="white"/>
<path d="M187.065 142.471C187.85 142.274 188.539 141.804 189.01 141.146C189.48 140.488 189.701 139.684 189.633 138.877C189.619 138.714 189.365 138.729 189.379 138.892C189.444 139.643 189.238 140.392 188.798 141.004C188.359 141.616 187.715 142.051 186.983 142.23C186.824 142.269 186.907 142.51 187.065 142.471Z" fill="white"/>
<path d="M186.045 149.378C184.618 148.542 183.559 147.198 183.079 145.615C183.031 145.458 182.79 145.54 182.838 145.697C183.34 147.343 184.445 148.739 185.932 149.607C186.074 149.689 186.186 149.461 186.045 149.378Z" fill="white"/>
<path d="M184.602 135.749C184.591 135.755 184.582 135.757 184.571 135.763C184.068 135.993 183.495 136.02 182.972 135.838C182.995 135.756 183.024 135.676 183.059 135.598C183.513 135.754 184.009 135.733 184.448 135.539C184.473 135.531 184.495 135.52 184.521 135.509C184.553 135.498 184.587 135.5 184.618 135.514C184.648 135.529 184.671 135.555 184.683 135.587C184.692 135.619 184.689 135.654 184.674 135.684C184.659 135.714 184.633 135.737 184.602 135.749Z" fill="white"/>
<path d="M170.671 92.9212C170.915 92.6269 171.092 92.2826 171.189 91.9126C171.286 91.5425 171.301 91.1557 171.232 90.7794C171.163 90.4031 171.013 90.0464 170.791 89.7345C170.57 89.4226 170.283 89.163 169.95 88.9741L171.638 79.8296L167.188 81.7135L166.267 90.1084C165.987 90.6883 165.929 91.3508 166.105 91.9705C166.28 92.5902 166.677 93.124 167.22 93.4707C167.763 93.8174 168.414 93.953 169.05 93.8517C169.686 93.7505 170.263 93.4194 170.671 92.9212Z" fill="#FFB6B6"/>
<path d="M173.387 65.8556L171.973 61.1014L162 45.5418C161.446 44.894 160.783 44.3473 160.041 43.9263C158.567 43.0839 156.849 42.772 155.173 43.0428C153.497 43.3136 151.964 44.1506 150.831 45.4144C149.697 46.6781 149.031 48.2923 148.943 49.9878C148.855 51.6832 149.351 53.3575 150.348 54.7317C150.553 55.0188 150.78 55.2898 151.027 55.5422L163.943 68.863L164.678 69.6232L165.84 72.5635L166.299 85.9709L166.71 86.0688L170.329 86.9212L170.835 87.0414L171.682 82.6617L172.213 80.5683C172.665 78.783 172.893 76.9485 172.892 75.1069C172.892 74.5396 172.873 73.9694 172.828 73.402L173.387 65.8556Z" fill="#3F3D56"/>
<path d="M159.678 158.31H156.215L154.568 144.953L159.678 144.953L159.678 158.31Z" fill="#FFB6B6"/>
<path d="M159.584 157.179L155.889 155.678L155.78 155.634L153.74 157.179C152.62 157.179 151.544 157.611 150.735 158.386C149.926 159.16 149.448 160.217 149.399 161.335C149.394 161.397 149.394 161.461 149.394 161.525V161.668H160.56V157.179H159.584Z" fill="#2F2E41"/>
<path d="M153.084 151.401L150.099 153.157L141.905 142.481L146.31 139.889L153.084 151.401Z" fill="#FFB6B6"/>
<path d="M155.145 153.163L154.739 152.472L153.272 149.979L152.509 150.429L152.431 150.474L148.484 151.055L148.367 151.072L147.394 153.439C146.902 153.729 146.472 154.112 146.128 154.568C145.784 155.024 145.533 155.542 145.39 156.095C145.247 156.648 145.214 157.223 145.293 157.788C145.372 158.354 145.562 158.898 145.851 159.39L145.924 159.51L155.547 153.847L155.145 153.163Z" fill="#2F2E41"/>
<path d="M164.063 76.6519C165.687 81.5486 165.515 86.8638 163.673 92.5685L163.192 112.179L161.647 124.549C162.579 126.973 163.057 129.548 163.057 132.144C163.05 138.951 162.593 148.62 160.272 153.162H154.782L153.542 132.934L152.063 122.764L151.881 111.866L151.722 102.36L145.751 111.091L139.95 119.574L145.716 129.301L150.747 144.953L145.437 149.425L139.412 138.003L136.493 134.611L128.523 117.358L129.239 114.956C130.714 110.008 132.856 105.285 135.607 100.917L143.534 82.5172L164.063 76.6519Z" fill="#2F2E41"/>
<path d="M164.767 75.0189L163.862 73.2078L163.943 68.8644L164.214 54.1797C164.247 52.2776 163.894 50.3887 163.176 48.6267C162.459 46.8648 161.393 45.2663 160.041 43.9278C159.239 43.1285 158.341 42.431 157.369 41.8511L155.424 40.6884L154.44 38.1897L145.367 38.4105L145.348 40.8337L145.339 41.6862L142.089 46.868L142.092 46.8904L142.159 56.3206L142.293 75.0916L143.19 78.0011L141.835 81.3886L142.556 83.5463L143.131 83.4541L162.523 80.3545C163.404 80.0717 164.152 79.4775 164.627 78.6831C164.723 78.5278 164.806 78.3652 164.876 78.1968C165.088 77.6904 165.187 77.1444 165.169 76.5959C165.15 76.0475 165.013 75.5096 164.767 75.0189Z" fill="#3F3D56"/>
<path d="M149.073 35.0792C153.626 35.0792 157.317 31.3883 157.317 26.8353C157.317 22.2823 153.626 18.5913 149.073 18.5913C144.52 18.5913 140.829 22.2823 140.829 26.8353C140.829 31.3883 144.52 35.0792 149.073 35.0792Z" fill="#FFB6B6"/>
<path d="M154.2 33.6678C155.07 33.0552 155.952 31.8889 156.539 31.0159C157.318 29.8681 157.846 28.5697 158.091 27.2046C158.335 25.8395 158.29 24.4383 157.958 23.0918C157.851 22.553 157.599 22.0538 157.229 21.6479C157.04 21.4497 156.793 21.3165 156.523 21.2673C156.254 21.2181 155.975 21.2554 155.729 21.3739C155.853 21.0258 155.905 20.6559 155.881 20.287C155.857 19.9181 155.758 19.558 155.589 19.229C155.247 18.5721 154.756 18.004 154.156 17.5697C153.008 16.7109 151.649 16.1788 150.224 16.03C148.798 15.8812 147.358 16.1211 146.058 16.7244C145.546 16.9701 146.367 15.1157 145.83 15.3008C145.298 15.5156 144.702 15.5133 144.171 15.2946C143.661 15.0465 142.002 16.5857 142.189 16.0499C141.806 16.2299 141.476 16.5037 141.228 16.8458C140.98 17.1879 140.823 17.5871 140.771 18.0064C140.718 18.4257 140.773 18.8513 140.93 19.2437C141.087 19.6361 141.34 19.9824 141.667 20.2504C142.097 20.6037 142.631 20.8031 143.101 21.1016C143.925 21.6644 144.515 22.5096 144.758 23.4774C145.002 24.4452 144.883 25.4687 144.423 26.3546C144.909 26.0329 145.444 25.7918 146.006 25.6405C146.289 25.5675 146.584 25.5629 146.869 25.6272C147.153 25.6914 147.418 25.8227 147.642 26.01C147.829 26.2186 147.972 26.4634 148.061 26.7292C148.151 26.995 148.185 27.2763 148.162 27.5558C148.151 28.1155 148.025 28.6684 148.018 29.2281C147.997 30.8705 147.161 34.0038 148.446 34.8589C149.46 35.5336 153.011 34.5043 154.2 33.6678Z" fill="#2F2E41"/>
<path d="M103.274 46.8896C103.469 47.2187 103.734 47.501 104.05 47.7167C104.366 47.9323 104.725 48.0761 105.103 48.1378C105.48 48.1996 105.867 48.1778 106.235 48.074C106.603 47.9702 106.944 47.7869 107.234 47.5371L115.279 52.1996L115 47.3755L107.403 43.6875C106.951 43.2286 106.347 42.9514 105.704 42.9084C105.061 42.8655 104.425 43.0598 103.916 43.4545C103.407 43.8492 103.061 44.4169 102.942 45.05C102.824 45.6831 102.942 46.3377 103.274 46.8896Z" fill="#FFB6B6"/>
<path d="M155.229 45.4449C154.917 44.4694 154.406 43.5689 153.73 42.8002C153.053 42.0314 152.224 41.411 151.296 40.9779C150.368 40.5448 149.36 40.3083 148.336 40.2834C147.312 40.2586 146.294 40.4457 145.346 40.8333C145.257 40.8696 145.167 40.9087 145.078 40.9479L127.229 49.0728L120.281 48.2483L111.287 45.1068L111.058 45.4617L109.037 48.5837L108.754 49.0197L118.403 54.7242L119.426 54.9366C120.316 55.1209 121.162 55.4792 121.914 55.991C122.666 56.5027 123.31 57.1579 123.808 57.9189L127.548 59.1486L142.157 56.3201L150.346 54.7326L150.81 54.6432C152.214 54.1031 153.42 53.1507 154.272 51.9115C155.124 50.6722 155.58 49.2041 155.581 47.7005C155.582 46.9349 155.463 46.1739 155.229 45.4449Z" fill="#3F3D56"/>
<path d="M196.763 162H99.5014C99.4132 162 99.3285 161.965 99.2661 161.902C99.2037 161.84 99.1686 161.755 99.1686 161.667C99.1686 161.579 99.2037 161.494 99.2661 161.432C99.3285 161.369 99.4132 161.334 99.5014 161.334H196.763C196.851 161.334 196.936 161.369 196.998 161.432C197.06 161.494 197.096 161.579 197.096 161.667C197.096 161.755 197.06 161.84 196.998 161.902C196.936 161.965 196.851 162 196.763 162Z" fill="#CCCCCC"/>
<path d="M92.0811 84.2407H33.0103C32.6673 84.2412 32.3386 84.3778 32.0963 84.6205C31.854 84.8632 31.7178 85.1921 31.7178 85.5351C31.7178 85.8781 31.854 86.207 32.0963 86.4497C32.3386 86.6924 32.6673 86.829 33.0103 86.8295H92.0812C92.2513 86.8297 92.4198 86.7964 92.5771 86.7315C92.7343 86.6666 92.8772 86.5713 92.9976 86.451C93.118 86.3308 93.2136 86.188 93.2787 86.0309C93.3439 85.8737 93.3774 85.7052 93.3774 85.5351C93.3774 85.365 93.3439 85.1965 93.2787 85.0393C93.2136 84.8822 93.118 84.7394 92.9976 84.6192C92.8772 84.4989 92.7343 84.4036 92.5771 84.3387C92.4198 84.2738 92.2513 84.2405 92.0812 84.2407H92.0811Z" fill="#E6E6E6"/>
<path d="M113.815 88.8646C115.6 88.8646 117.047 87.4173 117.047 85.6321C117.047 83.8469 115.6 82.3997 113.815 82.3997C112.03 82.3997 110.583 83.8469 110.583 85.6321C110.583 87.4173 112.03 88.8646 113.815 88.8646Z" fill="#6C63FF"/>
<path d="M113.376 87.3145C113.32 87.3145 113.265 87.3015 113.215 87.2765C113.165 87.2515 113.122 87.2153 113.088 87.1706L112.206 85.9948C112.178 85.957 112.157 85.914 112.146 85.8683C112.134 85.8225 112.131 85.7749 112.138 85.7282C112.145 85.6814 112.161 85.6365 112.185 85.5958C112.209 85.5552 112.241 85.5197 112.278 85.4914C112.316 85.463 112.359 85.4424 112.405 85.4307C112.451 85.419 112.498 85.4164 112.545 85.4231C112.592 85.4298 112.637 85.4456 112.677 85.4697C112.718 85.4937 112.753 85.5255 112.782 85.5633L113.359 86.3325L114.84 84.1098C114.867 84.0705 114.9 84.0368 114.94 84.0105C114.979 83.9842 115.023 83.9659 115.069 83.9567C115.115 83.9474 115.163 83.9474 115.209 83.9565C115.256 83.9657 115.3 83.9839 115.339 84.0101C115.378 84.0363 115.412 84.07 115.438 84.1092C115.465 84.1484 115.483 84.1925 115.492 84.2388C115.502 84.2851 115.502 84.3327 115.492 84.3791C115.483 84.4254 115.465 84.4694 115.439 84.5087L113.675 87.1543C113.643 87.2022 113.6 87.2417 113.55 87.2695C113.5 87.2974 113.443 87.3127 113.386 87.3143L113.376 87.3145Z" fill="white"/>
<path d="M103.093 88.8646C104.878 88.8646 106.325 87.4173 106.325 85.6321C106.325 83.8469 104.878 82.3997 103.093 82.3997C101.308 82.3997 99.8605 83.8469 99.8605 85.6321C99.8605 87.4173 101.308 88.8646 103.093 88.8646Z" fill="#F2F2F2"/>
<path d="M91.802 99.8936H32.7312C32.3882 99.8941 32.0595 100.031 31.8172 100.273C31.5748 100.516 31.4387 100.845 31.4387 101.188C31.4387 101.531 31.5748 101.86 31.8172 102.103C32.0595 102.345 32.3882 102.482 32.7312 102.482H91.8021C92.1453 102.482 92.4746 102.346 92.7173 102.103C92.9601 101.86 93.0964 101.531 93.0964 101.188C93.0964 100.845 92.9601 100.515 92.7173 100.273C92.4746 100.03 92.1453 99.8936 91.8021 99.8936H91.802Z" fill="#E6E6E6"/>
<path d="M113.537 104.518C115.322 104.518 116.769 103.07 116.769 101.285C116.769 99.4999 115.322 98.0527 113.537 98.0527C111.752 98.0527 110.304 99.4999 110.304 101.285C110.304 103.07 111.752 104.518 113.537 104.518Z" fill="#F2F2F2"/>
<path d="M113.096 102.968C113.04 102.968 112.985 102.955 112.935 102.93C112.885 102.905 112.842 102.868 112.808 102.824L111.926 101.648C111.869 101.572 111.844 101.476 111.858 101.381C111.871 101.287 111.922 101.202 111.998 101.144C112.075 101.087 112.17 101.063 112.265 101.076C112.359 101.09 112.444 101.14 112.502 101.216L113.079 101.986L114.56 99.7629C114.587 99.7236 114.62 99.6899 114.659 99.6636C114.699 99.6373 114.743 99.619 114.789 99.6098C114.835 99.6005 114.883 99.6005 114.929 99.6096C114.976 99.6188 115.02 99.637 115.059 99.6632C115.098 99.6894 115.132 99.723 115.158 99.7623C115.185 99.8015 115.203 99.8455 115.212 99.8918C115.221 99.9381 115.221 99.9858 115.212 100.032C115.203 100.078 115.185 100.123 115.159 100.162L113.395 102.807C113.363 102.855 113.32 102.895 113.27 102.923C113.22 102.95 113.163 102.966 113.106 102.967L113.096 102.968Z" fill="white"/>
<path d="M102.812 104.518C104.597 104.518 106.044 103.07 106.044 101.285C106.044 99.4999 104.597 98.0527 102.812 98.0527C101.027 98.0527 99.5795 99.4999 99.5795 101.285C99.5795 103.07 101.027 104.518 102.812 104.518Z" fill="#F2F2F2"/>
</svg>
