<svg width="224" height="201" viewBox="0 0 224 201" fill="none" xmlns="http://www.w3.org/2000/svg">
<path d="M221.445 77.442C221.365 77.442 221.287 77.4176 221.222 77.3719L113.123 2.08845C112.794 1.86041 112.403 1.73854 112.002 1.73923C111.602 1.73991 111.212 1.86311 110.883 2.09226L3.56271 77.3712C3.47782 77.4307 3.37277 77.4541 3.27064 77.4362C3.16852 77.4182 3.07769 77.3605 3.01815 77.2756C2.95861 77.1907 2.93523 77.0857 2.95315 76.9835C2.97108 76.8814 3.02883 76.7906 3.11372 76.731L110.435 1.45213C110.894 1.13136 111.441 0.958932 112.001 0.958012C112.561 0.957091 113.109 1.12772 113.569 1.44698L221.669 76.7303C221.737 76.7779 221.788 76.846 221.815 76.9248C221.842 77.0035 221.843 77.0888 221.818 77.1682C221.793 77.2477 221.743 77.317 221.676 77.3662C221.609 77.4155 221.528 77.442 221.445 77.442L221.445 77.442Z" fill="#3F3D56"/>
<path d="M9.69336 80.1108L112.107 4.20996L215.297 85.5115L117.384 143.556L64.2248 131.439L9.69336 80.1108Z" fill="#E6E6E6"/>
<path d="M68.7115 179.406H18.1168C17.8061 179.407 17.4984 179.346 17.2113 179.227C16.9242 179.109 16.6632 178.934 16.4434 178.715C16.2236 178.495 16.0492 178.235 15.9302 177.948C15.8112 177.661 15.75 177.353 15.75 177.042C15.75 176.732 15.8112 176.424 15.9302 176.137C16.0492 175.85 16.2236 175.59 16.4434 175.37C16.6632 175.15 16.9242 174.976 17.2113 174.858C17.4984 174.739 17.8061 174.678 18.1168 174.679H68.7115C69.0222 174.678 69.3299 174.739 69.617 174.858C69.9041 174.976 70.1651 175.15 70.3849 175.37C70.6047 175.59 70.7791 175.85 70.8981 176.137C71.017 176.424 71.0783 176.732 71.0783 177.042C71.0783 177.353 71.017 177.661 70.8981 177.948C70.7791 178.235 70.6047 178.495 70.3849 178.715C70.1651 178.934 69.9041 179.109 69.617 179.227C69.3299 179.346 69.0222 179.407 68.7115 179.406Z" fill="#6C63FF"/>
<path d="M36.269 169.246H18.1168C17.8061 169.246 17.4984 169.186 17.2113 169.067C16.9242 168.948 16.6632 168.774 16.4434 168.555C16.2236 168.335 16.0492 168.075 15.9302 167.788C15.8112 167.501 15.75 167.193 15.75 166.882C15.75 166.572 15.8112 166.264 15.9302 165.977C16.0492 165.69 16.2236 165.429 16.4434 165.21C16.6632 164.99 16.9242 164.816 17.2113 164.698C17.4984 164.579 17.8061 164.518 18.1168 164.519H36.269C36.5797 164.518 36.8874 164.579 37.1746 164.698C37.4617 164.816 37.7226 164.99 37.9424 165.21C38.1623 165.429 38.3366 165.69 38.4556 165.977C38.5746 166.264 38.6358 166.572 38.6358 166.882C38.6358 167.193 38.5746 167.501 38.4556 167.788C38.3366 168.075 38.1623 168.335 37.9424 168.555C37.7226 168.774 37.4617 168.948 37.1746 169.067C36.8874 169.186 36.5797 169.246 36.269 169.246Z" fill="#6C63FF"/>
<path d="M113.547 122.386C113.162 122.386 112.781 122.312 112.425 122.166L49.2637 95.9586V13.9246C49.2645 13.1992 49.553 12.5037 50.066 11.9908C50.5789 11.4779 51.2744 11.1893 51.9998 11.1885H173.17C173.896 11.1893 174.591 11.4779 175.104 11.9908C175.617 12.5037 175.906 13.1992 175.906 13.9246V96.0159L175.788 96.0667L114.702 122.153C114.336 122.307 113.943 122.386 113.547 122.386Z" fill="white"/>
<path d="M113.547 122.58C113.137 122.581 112.73 122.501 112.351 122.346L49.0684 96.0883V13.9237C49.0692 13.1465 49.3784 12.4014 49.928 11.8518C50.4775 11.3022 51.2227 10.9931 51.9999 10.9922H173.17C173.948 10.9931 174.693 11.3022 175.242 11.8518C175.792 12.4014 176.101 13.1465 176.102 13.9237V96.1441L114.779 122.332C114.389 122.496 113.97 122.581 113.547 122.58ZM49.8501 95.5662L112.649 121.624C113.235 121.861 113.891 121.857 114.474 121.613L175.32 95.628V13.9237C175.32 13.3538 175.093 12.8074 174.69 12.4043C174.287 12.0013 173.74 11.7746 173.17 11.7739H51.9999C51.43 11.7746 50.8835 12.0013 50.4805 12.4043C50.0775 12.8074 49.8508 13.3538 49.8501 13.9237L49.8501 95.5662Z" fill="#3F3D56"/>
<path d="M220.663 76.6602H220.585L175.713 95.8208L114.318 122.037C114.078 122.138 113.821 122.19 113.561 122.191C113.3 122.193 113.042 122.143 112.802 122.044L49.4607 95.766L3.48616 76.6914L3.41592 76.6602H3.33767C2.61226 76.661 1.91678 76.9495 1.40384 77.4624C0.890891 77.9754 0.602367 78.6709 0.601562 79.3963V198.222C0.602368 198.947 0.890892 199.642 1.40384 200.155C1.91678 200.668 2.61226 200.957 3.33767 200.958H220.663C221.388 200.957 222.084 200.668 222.597 200.155C223.11 199.642 223.398 198.947 223.399 198.222V79.3963C223.398 78.6709 223.11 77.9754 222.597 77.4624C222.084 76.9495 221.388 76.661 220.663 76.6602ZM222.617 198.222C222.617 198.74 222.411 199.237 222.045 199.603C221.678 199.97 221.181 200.176 220.663 200.176H3.33767C2.81941 200.176 2.32243 199.97 1.95596 199.603C1.58949 199.237 1.38352 198.74 1.38331 198.222V79.3963C1.38402 78.8909 1.58006 78.4053 1.93044 78.0411C2.28083 77.6769 2.75844 77.4622 3.26343 77.4419L49.4607 96.6103L112.501 122.768C113.183 123.045 113.948 123.041 114.627 122.756L175.713 96.6689L220.741 77.4419C221.245 77.4637 221.722 77.679 222.071 78.043C222.421 78.407 222.616 78.8917 222.617 79.3963V198.222Z" fill="#3F3D56"/>
<path d="M112.915 99.1242C110.583 99.1286 108.313 98.3746 106.447 96.976L106.332 96.8891L81.9759 78.2416C80.8479 77.3773 79.9012 76.2994 79.1898 75.0692C78.4785 73.8391 78.0164 72.4809 77.8299 71.0722C77.6434 69.6635 77.7363 68.2319 78.1031 66.8591C78.4699 65.4862 79.1035 64.1991 79.9677 63.0711C80.832 61.9432 81.9099 60.9965 83.14 60.2851C84.3701 59.5738 85.7283 59.1117 87.137 58.9252C88.5457 58.7387 89.9774 58.8315 91.3502 59.1983C92.723 59.5651 94.0102 60.1988 95.1381 61.063L110.914 73.1596L148.195 24.5403C149.059 23.4126 150.137 22.4663 151.368 21.7553C152.598 21.0444 153.957 20.5827 155.365 20.3968C156.774 20.2108 158.206 20.3042 159.578 20.6715C160.951 21.0388 162.238 21.6729 163.366 22.5376L163.134 22.8523L163.372 22.5422C165.646 24.2904 167.135 26.8695 167.51 29.7136C167.885 32.5578 167.117 35.4348 165.374 37.7133L121.523 94.9014C120.509 96.2192 119.205 97.2856 117.712 98.018C116.219 98.7503 114.577 99.1289 112.915 99.1242Z" fill="#6C63FF"/>
</svg>
