<svg width="224" height="200" viewBox="0 0 224 200" fill="none" xmlns="http://www.w3.org/2000/svg">
<path d="M221.443 76.484C221.363 76.484 221.285 76.4596 221.22 76.4139L113.121 1.13044C112.792 0.902402 112.401 0.780536 112 0.781219C111.6 0.781901 111.21 0.905099 110.881 1.13425L3.56076 76.4132C3.47587 76.4727 3.37081 76.4961 3.26869 76.4782C3.16656 76.4602 3.07574 76.4025 3.0162 76.3176C2.95666 76.2327 2.93328 76.1276 2.9512 76.0255C2.96912 75.9234 3.02688 75.8326 3.11177 75.773L110.433 0.494124C110.892 0.173354 111.439 0.000924657 111.999 3.70844e-06C112.56 -0.00091724 113.107 0.169713 113.567 0.488971L221.667 75.7723C221.735 75.8198 221.786 75.888 221.813 75.9668C221.84 76.0455 221.841 76.1308 221.816 76.2102C221.791 76.2896 221.742 76.359 221.674 76.4082C221.607 76.4575 221.526 76.484 221.443 76.484L221.443 76.484Z" fill="white"/>
<path d="M9.69531 79.1533L112.109 3.25244L215.299 84.554L117.385 142.599L64.2268 130.482L9.69531 79.1533Z" fill="#5B5B5B"/>
<path d="M113.549 121.428C113.164 121.428 112.783 121.354 112.427 121.208L49.2656 95.0006V12.9666C49.2665 12.2412 49.555 11.5457 50.0679 11.0328C50.5809 10.5199 51.2763 10.2313 52.0017 10.2305H173.172C173.898 10.2313 174.593 10.5199 175.106 11.0328C175.619 11.5457 175.908 12.2412 175.908 12.9666V95.0579L175.79 95.1087L114.704 121.195C114.338 121.349 113.945 121.428 113.549 121.428Z" fill="white"/>
<path d="M113.549 121.622C113.139 121.623 112.732 121.543 112.353 121.388L49.0703 95.1303V12.9657C49.0712 12.1885 49.3803 11.4434 49.9299 10.8938C50.4795 10.3442 51.2246 10.0351 52.0019 10.0342H173.172C173.95 10.0351 174.695 10.3442 175.244 10.8938C175.794 11.4434 176.103 12.1885 176.104 12.9657V95.1861L114.781 121.374C114.391 121.538 113.972 121.623 113.549 121.622ZM49.852 94.6082L112.651 120.666C113.237 120.903 113.893 120.899 114.475 120.655L175.322 94.67V12.9657C175.322 12.3958 175.095 11.8494 174.692 11.4463C174.289 11.0433 173.742 10.8166 173.172 10.8159H52.0019C51.4319 10.8166 50.8855 11.0433 50.4825 11.4463C50.0795 11.8494 49.8527 12.3958 49.8521 12.9657L49.852 94.6082Z" fill="white"/>
<mask id="path-5-inside-1_805_20401" fill="white">
<path d="M220.663 75.7021H220.585L175.713 94.8627L114.318 121.079C114.078 121.18 113.821 121.232 113.561 121.233C113.3 121.235 113.042 121.185 112.802 121.086L49.4607 94.808L3.48616 75.7334L3.41592 75.7021H3.33767C2.61226 75.703 1.91678 75.9915 1.40384 76.5044C0.890891 77.0174 0.602367 77.7128 0.601562 78.4383V197.264C0.602368 197.989 0.890892 198.684 1.40384 199.197C1.91678 199.71 2.61226 199.999 3.33767 200H220.663C221.388 199.999 222.084 199.71 222.597 199.197C223.11 198.684 223.398 197.989 223.399 197.264V78.4383C223.398 77.7128 223.11 77.0174 222.597 76.5044C222.084 75.9915 221.388 75.703 220.663 75.7021ZM222.617 197.264C222.617 197.782 222.411 198.279 222.045 198.645C221.678 199.012 221.181 199.218 220.663 199.218H3.33767C2.81941 199.218 2.32243 199.012 1.95596 198.645C1.58949 198.279 1.38352 197.782 1.38331 197.264V78.4383C1.38402 77.9329 1.58006 77.4473 1.93044 77.0831C2.28083 76.7189 2.75844 76.5042 3.26343 76.4839L49.4607 95.6523L112.501 121.81C113.183 122.087 113.948 122.083 114.627 121.798L175.713 95.7109L220.741 76.4839C221.245 76.5057 221.722 76.7209 222.071 77.085C222.421 77.449 222.616 77.9337 222.617 78.4383V197.264Z"/>
<path d="M222.617 197.264C222.617 197.782 222.411 198.279 222.045 198.645C221.678 199.012 221.181 199.218 220.663 199.218H3.33767C2.81941 199.218 2.32243 199.012 1.95596 198.645C1.58949 198.279 1.38352 197.782 1.38331 197.264V78.4383C1.38402 77.9329 1.58006 77.4473 1.93044 77.0831C2.28083 76.7189 2.75844 76.5042 3.26343 76.4839L49.4607 95.6523L112.501 121.81C113.183 122.087 113.948 122.083 114.627 121.798L175.713 95.7109L220.741 76.4839C221.245 76.5057 221.722 76.7209 222.071 77.085C222.421 77.449 222.616 77.9337 222.617 78.4383V197.264Z"/>
</mask>
<path d="M220.663 75.7021H220.585L175.713 94.8627L114.318 121.079C114.078 121.18 113.821 121.232 113.561 121.233C113.3 121.235 113.042 121.185 112.802 121.086L49.4607 94.808L3.48616 75.7334L3.41592 75.7021H3.33767C2.61226 75.703 1.91678 75.9915 1.40384 76.5044C0.890891 77.0174 0.602367 77.7128 0.601562 78.4383V197.264C0.602368 197.989 0.890892 198.684 1.40384 199.197C1.91678 199.71 2.61226 199.999 3.33767 200H220.663C221.388 199.999 222.084 199.71 222.597 199.197C223.11 198.684 223.398 197.989 223.399 197.264V78.4383C223.398 77.7128 223.11 77.0174 222.597 76.5044C222.084 75.9915 221.388 75.703 220.663 75.7021ZM222.617 197.264C222.617 197.782 222.411 198.279 222.045 198.645C221.678 199.012 221.181 199.218 220.663 199.218H3.33767C2.81941 199.218 2.32243 199.012 1.95596 198.645C1.58949 198.279 1.38352 197.782 1.38331 197.264V78.4383C1.38402 77.9329 1.58006 77.4473 1.93044 77.0831C2.28083 76.7189 2.75844 76.5042 3.26343 76.4839L49.4607 95.6523L112.501 121.81C113.183 122.087 113.948 122.083 114.627 121.798L175.713 95.7109L220.741 76.4839C221.245 76.5057 221.722 76.7209 222.071 77.085C222.421 77.449 222.616 77.9337 222.617 78.4383V197.264Z" fill="#EBEBEB"/>
<path d="M222.617 197.264C222.617 197.782 222.411 198.279 222.045 198.645C221.678 199.012 221.181 199.218 220.663 199.218H3.33767C2.81941 199.218 2.32243 199.012 1.95596 198.645C1.58949 198.279 1.38352 197.782 1.38331 197.264V78.4383C1.38402 77.9329 1.58006 77.4473 1.93044 77.0831C2.28083 76.7189 2.75844 76.5042 3.26343 76.4839L49.4607 95.6523L112.501 121.81C113.183 122.087 113.948 122.083 114.627 121.798L175.713 95.7109L220.741 76.4839C221.245 76.5057 221.722 76.7209 222.071 77.085C222.421 77.449 222.616 77.9337 222.617 78.4383V197.264Z" fill="#EBEBEB"/>
<path d="M222.617 197.264L223.117 197.264V197.264H222.617ZM220.663 199.218V199.718H220.663L220.663 199.218ZM3.33767 199.218L3.33747 199.718H3.33767V199.218ZM1.38331 197.264H0.883308L0.883308 197.264L1.38331 197.264ZM1.38331 78.4383L0.883308 78.4376V78.4383H1.38331ZM3.26343 76.4839L3.45505 76.0221L3.35337 75.9799L3.24337 75.9843L3.26343 76.4839ZM49.4607 95.6523L49.6523 95.1905V95.1905L49.4607 95.6523ZM112.501 121.81L112.309 122.271L112.312 122.273L112.501 121.81ZM114.627 121.798L114.821 122.259L114.823 122.258L114.627 121.798ZM175.713 95.7109L175.516 95.2511L175.516 95.2511L175.713 95.7109ZM220.741 76.4839L220.763 75.9844L220.649 75.9795L220.545 76.0241L220.741 76.4839ZM222.617 78.4383H223.117V78.4371L222.617 78.4383ZM222.117 197.263C222.117 197.649 221.964 198.019 221.691 198.292L222.398 198.999C222.858 198.539 223.117 197.915 223.117 197.264L222.117 197.263ZM221.691 198.292C221.418 198.565 221.049 198.718 220.663 198.718L220.663 199.718C221.314 199.718 221.938 199.459 222.398 198.999L221.691 198.292ZM220.663 198.718H3.33767V199.718H220.663V198.718ZM3.33787 198.718C2.95214 198.718 2.58226 198.565 2.30951 198.292L1.60241 198.999C2.0626 199.459 2.68667 199.718 3.33747 199.718L3.33787 198.718ZM2.30951 198.292C2.03676 198.019 1.88346 197.649 1.88331 197.263L0.883308 197.264C0.883568 197.915 1.14222 198.539 1.60241 198.999L2.30951 198.292ZM1.88331 197.264V78.4383H0.883308V197.264H1.88331ZM1.88331 78.439C1.88384 78.0626 2.02983 77.701 2.29078 77.4297L1.57011 76.7364C1.13028 77.1936 0.884198 77.8031 0.883309 78.4376L1.88331 78.439ZM2.29078 77.4297C2.55172 77.1585 2.9074 76.9986 3.28348 76.9835L3.24337 75.9843C2.60947 76.0097 2.00994 76.2792 1.57011 76.7364L2.29078 77.4297ZM3.07181 76.9457L49.269 96.1141L49.6523 95.1905L3.45505 76.0221L3.07181 76.9457ZM49.269 96.1141L112.309 122.271L112.692 121.348L49.6523 95.1905L49.269 96.1141ZM112.312 122.273C113.117 122.6 114.019 122.595 114.821 122.259L114.434 121.337C113.876 121.571 113.249 121.574 112.689 121.346L112.312 122.273ZM114.823 122.258L175.909 96.1708L175.516 95.2511L114.431 121.338L114.823 122.258ZM175.909 96.1708L220.938 76.9437L220.545 76.0241L175.516 95.2511L175.909 96.1708ZM220.72 76.9834C221.095 76.9996 221.45 77.16 221.71 77.4312L222.432 76.7387C221.993 76.2819 221.395 76.0117 220.763 75.9844L220.72 76.9834ZM221.71 77.4312C221.971 77.7024 222.116 78.0635 222.117 78.4394L223.117 78.4371C223.116 77.8038 222.87 77.1955 222.432 76.7387L221.71 77.4312ZM222.117 78.4383V197.264H223.117V78.4383H222.117ZM220.663 75.7021L220.664 74.7021H220.663V75.7021ZM220.585 75.7021V74.7021H220.38L220.192 74.7825L220.585 75.7021ZM175.713 94.8627L175.32 93.9431V93.9431L175.713 94.8627ZM114.318 121.079L114.706 122L114.711 121.998L114.318 121.079ZM112.802 121.086L112.418 122.01L112.423 122.012L112.802 121.086ZM49.4607 94.808L49.0774 95.7317L49.0775 95.7317L49.4607 94.808ZM3.48616 75.7334L3.07936 76.6469L3.09108 76.6522L3.10294 76.6571L3.48616 75.7334ZM3.41592 75.7021L3.82273 74.7886L3.62852 74.7021H3.41592V75.7021ZM3.33767 75.7021V74.7021L3.33656 74.7021L3.33767 75.7021ZM0.601562 78.4383L-0.398438 78.4371V78.4383H0.601562ZM0.601562 197.264H-0.398438L-0.398437 197.265L0.601562 197.264ZM3.33767 200L3.33656 201H3.33767V200ZM220.663 200V201H220.664L220.663 200ZM223.399 197.264L224.399 197.265V197.264H223.399ZM223.399 78.4383H224.399V78.4371L223.399 78.4383ZM220.663 74.7021H220.585V76.7021H220.663V74.7021ZM220.192 74.7825L175.32 93.9431L176.105 95.7824L220.977 76.6218L220.192 74.7825ZM175.32 93.9431L113.926 120.159L114.711 121.998L176.105 95.7824L175.32 93.9431ZM113.931 120.157C113.812 120.207 113.684 120.233 113.556 120.233L113.566 122.233C113.958 122.231 114.345 122.152 114.706 122L113.931 120.157ZM113.556 120.233C113.427 120.234 113.299 120.209 113.18 120.161L112.423 122.012C112.786 122.16 113.174 122.235 113.566 122.233L113.556 120.233ZM113.185 120.163L49.8439 93.8844L49.0775 95.7317L112.418 122.01L113.185 120.163ZM49.8439 93.8844L3.86938 74.8098L3.10294 76.6571L49.0774 95.7317L49.8439 93.8844ZM3.89296 74.8199L3.82273 74.7886L3.00912 76.6157L3.07936 76.6469L3.89296 74.8199ZM3.41592 74.7021H3.33767V76.7021H3.41592V74.7021ZM3.33656 74.7021C2.34632 74.7032 1.39694 75.0971 0.69673 75.7973L2.11094 77.2115C2.43662 76.8859 2.8782 76.7027 3.33878 76.7021L3.33656 74.7021ZM0.69673 75.7973C-0.00348222 76.4975 -0.397338 77.4469 -0.398437 78.4371L1.60156 78.4394C1.60207 77.9788 1.78526 77.5372 2.11094 77.2115L0.69673 75.7973ZM-0.398438 78.4383V197.264H1.60156V78.4383H-0.398438ZM-0.398437 197.265C-0.397337 198.255 -0.00347924 199.204 0.69673 199.905L2.11094 198.49C1.78526 198.165 1.60207 197.723 1.60156 197.262L-0.398437 197.265ZM0.69673 199.905C1.39694 200.605 2.34631 200.999 3.33656 201L3.33878 199C2.87821 198.999 2.43663 198.816 2.11094 198.49L0.69673 199.905ZM3.33767 201H220.663V199H3.33767V201ZM220.664 201C221.654 200.999 222.604 200.605 223.304 199.905L221.89 198.49C221.564 198.816 221.122 198.999 220.662 199L220.664 201ZM223.304 199.905C224.004 199.204 224.398 198.255 224.399 197.265L222.399 197.262C222.399 197.723 222.215 198.165 221.89 198.49L223.304 199.905ZM224.399 197.264V78.4383H222.399V197.264H224.399ZM224.399 78.4371C224.398 77.4469 224.004 76.4975 223.304 75.7973L221.89 77.2115C222.215 77.5372 222.399 77.9788 222.399 78.4394L224.399 78.4371ZM223.304 75.7973C222.604 75.0971 221.654 74.7032 220.664 74.7021L220.662 76.7021C221.122 76.7027 221.564 76.8859 221.89 77.2115L223.304 75.7973Z" fill="black" mask="url(#path-5-inside-1_805_20401)"/>
<path d="M112.916 98.1667C110.585 98.1711 108.315 97.4171 106.449 96.0184L106.333 95.9316L81.9778 77.284C80.8499 76.4198 79.9032 75.3418 79.1918 74.1117C78.4804 72.8816 78.0183 71.5234 77.8319 70.1147C77.6454 68.706 77.7382 67.2744 78.105 65.9016C78.4718 64.5287 79.1054 63.2416 79.9697 62.1136C80.8339 60.9857 81.9119 60.039 83.142 59.3276C84.3721 58.6162 85.7303 58.1541 87.139 57.9677C88.5477 57.7812 89.9793 57.874 91.3522 58.2408C92.725 58.6076 94.0121 59.2412 95.1401 60.1055L110.916 72.2021L148.196 23.5827C149.061 22.4551 150.139 21.5087 151.37 20.7978C152.6 20.0869 153.958 19.6252 155.367 19.4393C156.776 19.2533 158.208 19.3466 159.58 19.714C160.953 20.0813 162.24 20.7154 163.368 21.5801L163.136 21.8948L163.374 21.5847C165.648 23.3329 167.137 25.912 167.512 28.7561C167.887 31.6003 167.119 34.4772 165.376 36.7558L121.525 93.9438C120.511 95.2617 119.207 96.3281 117.714 97.0605C116.221 97.7928 114.579 98.1713 112.916 98.1667Z" fill="#6C63FF"/>
<path d="M68.7115 178.448H18.1168C17.8061 178.449 17.4984 178.388 17.2113 178.269C16.9242 178.151 16.6632 177.976 16.4434 177.757C16.2236 177.537 16.0492 177.277 15.9302 176.99C15.8112 176.703 15.75 176.395 15.75 176.084C15.75 175.774 15.8112 175.466 15.9302 175.179C16.0492 174.892 16.2236 174.631 16.4434 174.412C16.6632 174.192 16.9242 174.018 17.2113 173.9C17.4984 173.781 17.8061 173.72 18.1168 173.721H68.7115C69.0222 173.72 69.3299 173.781 69.617 173.9C69.9041 174.018 70.1651 174.192 70.3849 174.412C70.6047 174.631 70.7791 174.892 70.8981 175.179C71.017 175.466 71.0783 175.774 71.0783 176.084C71.0783 176.395 71.017 176.703 70.8981 176.99C70.7791 177.277 70.6047 177.537 70.3849 177.757C70.1651 177.976 69.9041 178.151 69.617 178.269C69.3299 178.388 69.0222 178.449 68.7115 178.448Z" fill="#727272"/>
<path d="M36.269 168.288H18.1168C17.8061 168.288 17.4984 168.228 17.2113 168.109C16.9242 167.99 16.6632 167.816 16.4434 167.597C16.2236 167.377 16.0492 167.117 15.9302 166.83C15.8112 166.543 15.75 166.235 15.75 165.924C15.75 165.614 15.8112 165.306 15.9302 165.019C16.0492 164.732 16.2236 164.471 16.4434 164.252C16.6632 164.032 16.9242 163.858 17.2113 163.74C17.4984 163.621 17.8061 163.56 18.1168 163.561H36.269C36.5797 163.56 36.8874 163.621 37.1746 163.74C37.4617 163.858 37.7226 164.032 37.9424 164.252C38.1623 164.471 38.3366 164.732 38.4556 165.019C38.5746 165.306 38.6358 165.614 38.6358 165.924C38.6358 166.235 38.5746 166.543 38.4556 166.83C38.3366 167.117 38.1623 167.377 37.9424 167.597C37.7226 167.816 37.4617 167.99 37.1746 168.109C36.8874 168.228 36.5797 168.288 36.269 168.288Z" fill="#727272"/>
</svg>
