<svg width="116" height="48" viewBox="0 0 116 48" fill="none" xmlns="http://www.w3.org/2000/svg">
<path d="M28.6881 21.4118V2.59575H37.2954C39.6803 2.59575 41.5094 3.23192 42.7826 4.50424C43.8585 5.57945 44.3964 7.03097 44.3964 8.85882C44.3964 11.744 43.0515 13.6883 40.3618 14.6918L44.9613 21.4118H40.1197L36.0312 15.3907H32.8304V21.4118H28.6881ZM32.8304 11.735H37.0264C38.0306 11.735 38.8106 11.4931 39.3665 11.0092C39.9224 10.5075 40.2004 9.84443 40.2004 9.0201C40.2004 8.14202 39.9135 7.47898 39.3396 7.03097C38.7658 6.56505 37.9679 6.33209 36.9457 6.33209H32.8304V11.735Z" fill="#0B1832"/>
<path d="M46.5121 21.4118L54.5814 2.46135H58.4009L66.4703 21.4118H62.1397L60.4183 17.1917H52.4565L50.7351 21.4118H46.5121ZM53.9359 13.536H58.9389L56.4374 7.43418L53.9359 13.536Z" fill="#0B1832"/>
<path d="M77.5323 21.7344C74.6094 21.7344 72.2245 20.8205 70.3775 18.9926C68.5484 17.1648 67.6339 14.8352 67.6339 12.0038C67.6339 9.29786 68.5753 7.00409 70.4582 5.12249C72.341 3.22296 74.6901 2.27319 77.5054 2.27319C79.1372 2.27319 80.518 2.48823 81.6477 2.91832C82.7774 3.33048 83.8622 3.9756 84.9023 4.85368L82.2932 7.99866C81.5042 7.33562 80.7421 6.85177 80.0069 6.54713C79.2717 6.24249 78.393 6.09017 77.3709 6.09017C75.8646 6.09017 74.5825 6.67257 73.5245 7.83738C72.4845 8.98426 71.9645 10.3731 71.9645 12.0038C71.9645 13.7241 72.4934 15.1488 73.5514 16.2777C74.6273 17.4067 75.9991 17.9712 77.6668 17.9712C79.2089 17.9712 80.509 17.5949 81.567 16.8422V14.1542H77.3978V10.5792H85.5747V18.7507C83.2257 20.7398 80.5448 21.7344 77.5323 21.7344Z" fill="#0B1832"/>
<path d="M21.8654 5.27605C21.8654 2.3623 19.5033 0.000244141 16.5896 0.000244141H5.57066C2.65691 0.000244141 0.294853 2.3623 0.294853 5.27605V21.5707H16.5896C19.5033 21.5707 21.8654 19.2087 21.8654 16.2949V5.27605Z" fill="#2768C4"/>
<path d="M50.0959 47.7827L50.0417 28.7898H46.433L39.4328 40.5925L32.324 28.7898H28.6882V47.7827H32.8124V36.6312L38.3746 45.7749H40.3553L45.9446 36.387L45.9718 47.7827H50.0959Z" fill="#0B1832"/>
<path d="M56.42 31.1504C57.9937 31.1504 59.0518 30.1193 59.0518 28.7084C59.0518 27.406 57.9937 26.4293 56.42 26.4293C54.8463 26.4293 53.7881 27.4603 53.7881 28.7898C53.7881 30.1193 54.8463 31.1504 56.42 31.1504ZM54.3036 47.7827H58.5363V33.1853H54.3036V47.7827Z" fill="#0B1832"/>
<path d="M66.5074 35.1117V33.1853H62.4646V47.7827H66.6973V40.891C66.6973 38.0963 68.2439 36.8211 70.5773 36.8211C70.9029 36.8211 71.1742 36.8482 71.527 36.8754V32.9682C69.2749 32.9682 67.5384 33.7008 66.5074 35.1117Z" fill="#0B1832"/>
<path d="M79.0077 47.9998C83.3761 47.9998 85.8994 46.0733 85.8994 43.3601C85.8994 37.6079 77.0813 40.0227 77.0813 37.5265C77.0813 36.7668 77.8953 36.1699 79.7946 36.1699C81.1241 36.1699 82.5621 36.4412 84.0002 37.2552L85.4111 34.2435C84.0273 33.4295 81.8024 32.9682 79.7946 32.9682C75.5348 32.9682 73.0385 34.9218 73.0385 37.6893C73.0385 43.5229 81.8567 41.0809 81.8567 43.4686C81.8567 44.2826 81.1241 44.7981 79.1705 44.7981C77.3798 44.7981 75.3991 44.2283 74.0967 43.3872L72.6858 46.4261C74.0425 47.3214 76.5387 47.9998 79.0077 47.9998Z" fill="#0B1832"/>
<path d="M95.4569 47.9998C100.097 47.9998 103.461 44.8795 103.461 40.484C103.461 36.0885 100.097 32.9682 95.4569 32.9682C90.8172 32.9682 87.4257 36.0885 87.4257 40.484C87.4257 44.8795 90.8172 47.9998 95.4569 47.9998ZM95.4569 44.5268C93.3406 44.5268 91.7126 43.0073 91.7126 40.484C91.7126 37.9607 93.3406 36.4412 95.4569 36.4412C97.5733 36.4412 99.1741 37.9607 99.1741 40.484C99.1741 43.0073 97.5733 44.5268 95.4569 44.5268Z" fill="#0B1832"/>
<path d="M114.566 44.0927C114.105 44.4454 113.48 44.6353 112.856 44.6353C111.717 44.6353 111.039 43.957 111.039 42.7089V36.7668H114.674V33.5109H111.039V29.9565H106.806V33.5109H104.554V36.7668H106.806V42.7632C106.806 46.2361 108.814 47.9998 112.259 47.9998C113.562 47.9998 114.837 47.7013 115.705 47.0773L114.566 44.0927Z" fill="#0B1832"/>
<path d="M0.297729 31.5561C0.297729 28.6424 2.65979 26.2803 5.57353 26.2803H16.5924C19.5062 26.2803 21.8682 28.6424 21.8682 31.5561V47.8508H5.57353C2.65979 47.8508 0.297729 45.4888 0.297729 42.575V31.5561Z" fill="#2768C4"/>
</svg>
