<svg width="170" height="28" viewBox="0 0 170 28" fill="none" xmlns="http://www.w3.org/2000/svg">
<path d="M22.5307 28L14.8587 20.3653L17.6773 17.5467L25.312 25.1813L22.5307 28ZM12.8613 28C10.1733 28 7.87111 27.4151 5.95467 26.2453C4.03822 25.0631 2.56356 23.4204 1.53067 21.3173C0.510222 19.2142 0 16.7751 0 14C0 11.2249 0.510222 8.78578 1.53067 6.68266C2.56356 4.57955 4.03822 2.94311 5.95467 1.77333C7.87111 0.59111 10.1733 0 12.8613 0C15.5493 0 17.8516 0.59111 19.768 1.77333C21.6969 2.94311 23.1716 4.57955 24.192 6.68266C25.2249 8.78578 25.7413 11.2249 25.7413 14C25.7413 16.7751 25.2249 19.2142 24.192 21.3173C23.1716 23.4204 21.6969 25.0631 19.768 26.2453C17.8516 27.4151 15.5493 28 12.8613 28ZM12.8613 23.7627C14.6658 23.7751 16.1653 23.3769 17.36 22.568C18.5671 21.7591 19.4693 20.6204 20.0667 19.152C20.6765 17.6836 20.9813 15.9662 20.9813 14C20.9813 12.0338 20.6765 10.3289 20.0667 8.88533C19.4693 7.42933 18.5671 6.29689 17.36 5.488C16.1653 4.67911 14.6658 4.26222 12.8613 4.23733C11.0569 4.22489 9.55734 4.62311 8.36267 5.432C7.168 6.24089 6.26578 7.37955 5.656 8.848C5.05867 10.3164 4.76 12.0338 4.76 14C4.76 15.9662 5.05867 17.6773 5.656 19.1333C6.25334 20.5769 7.14934 21.7031 8.344 22.512C9.55111 23.3209 11.0569 23.7378 12.8613 23.7627Z" fill="#181818"/>
<path d="M29.4569 27.44V0.559999H40.5636C40.8249 0.559999 41.1609 0.572443 41.5716 0.597332C41.9822 0.609777 42.3618 0.647111 42.7102 0.709333C44.2658 0.945776 45.5476 1.46222 46.5556 2.25866C47.576 3.05511 48.3289 4.06311 48.8142 5.28267C49.312 6.48978 49.5609 7.83378 49.5609 9.31466C49.5609 11.5049 49.0071 13.3902 47.8996 14.9707C46.792 16.5387 45.0933 17.5093 42.8036 17.8827L40.8809 18.0507H33.9556V27.44H29.4569ZM44.8942 27.44L39.5929 16.5013L44.1662 15.4933L49.9902 27.44H44.8942ZM33.9556 13.8507H40.3769C40.6258 13.8507 40.9058 13.8382 41.2169 13.8133C41.528 13.7884 41.8142 13.7387 42.0756 13.664C42.8222 13.4773 43.4071 13.1476 43.8302 12.6747C44.2658 12.2018 44.5707 11.6667 44.7449 11.0693C44.9316 10.472 45.0249 9.88711 45.0249 9.31466C45.0249 8.74222 44.9316 8.15733 44.7449 7.56C44.5707 6.95022 44.2658 6.40889 43.8302 5.936C43.4071 5.46311 42.8222 5.13333 42.0756 4.94667C41.8142 4.872 41.528 4.82844 41.2169 4.816C40.9058 4.79111 40.6258 4.77867 40.3769 4.77867H33.9556V13.8507Z" fill="#181818"/>
<path d="M72.9447 28C70.2567 28 67.9545 27.4151 66.038 26.2453C64.1216 25.0631 62.6469 23.4204 61.614 21.3173C60.5936 19.2142 60.0834 16.7751 60.0834 14C60.0834 11.2249 60.5936 8.78578 61.614 6.68266C62.6469 4.57955 64.1216 2.94311 66.038 1.77333C67.9545 0.59111 70.2567 0 72.9447 0C76.0434 0 78.6256 0.777778 80.6914 2.33333C82.7571 3.87644 84.2069 5.96089 85.0407 8.58667L80.5047 9.83733C79.982 8.08267 79.0922 6.71378 77.8354 5.73066C76.5785 4.73511 74.9482 4.23733 72.9447 4.23733C71.1402 4.23733 69.6345 4.64178 68.4274 5.45066C67.2327 6.25955 66.3305 7.39822 65.7207 8.86667C65.1234 10.3227 64.8185 12.0338 64.806 14C64.806 15.9662 65.1047 17.6836 65.702 19.152C66.3118 20.608 67.2202 21.7404 68.4274 22.5493C69.6345 23.3582 71.1402 23.7627 72.9447 23.7627C74.9482 23.7627 76.5785 23.2649 77.8354 22.2693C79.0922 21.2738 79.982 19.9049 80.5047 18.1627L85.0407 19.4133C84.2069 22.0391 82.7571 24.1298 80.6914 25.6853C78.6256 27.2284 76.0434 28 72.9447 28Z" fill="#181818"/>
<path d="M98.0432 28C96.0272 28 94.2663 27.5458 92.7605 26.6373C91.2548 25.7289 90.085 24.4782 89.2512 22.8853C88.4299 21.28 88.0192 19.4382 88.0192 17.36C88.0192 15.2444 88.4423 13.3902 89.2885 11.7973C90.1348 10.2044 91.3108 8.96 92.8165 8.064C94.3223 7.168 96.0645 6.72 98.0432 6.72C100.072 6.72 101.839 7.17422 103.345 8.08267C104.85 8.99111 106.02 10.248 106.854 11.8533C107.688 13.4462 108.105 15.2818 108.105 17.36C108.105 19.4507 107.681 21.2987 106.835 22.904C106.001 24.4969 104.832 25.7476 103.326 26.656C101.82 27.552 100.059 28 98.0432 28ZM98.0432 23.7813C99.8352 23.7813 101.167 23.184 102.038 21.9893C102.909 20.7947 103.345 19.2516 103.345 17.36C103.345 15.4062 102.903 13.8507 102.019 12.6933C101.136 11.5236 99.8103 10.9387 98.0432 10.9387C96.8361 10.9387 95.8405 11.2124 95.0565 11.76C94.285 12.2951 93.7125 13.048 93.3392 14.0187C92.9659 14.9769 92.7792 16.0907 92.7792 17.36C92.7792 19.3138 93.221 20.8756 94.1045 22.0453C95.0005 23.2027 96.3134 23.7813 98.0432 23.7813Z" fill="#181818"/>
<path d="M120.3 28C118.446 28 116.828 27.5333 115.447 26.6C114.065 25.6667 112.995 24.3973 112.236 22.792C111.477 21.1867 111.097 19.376 111.097 17.36C111.097 15.3191 111.477 13.5022 112.236 11.9093C113.008 10.304 114.096 9.04089 115.503 8.12C116.909 7.18667 118.564 6.72 120.468 6.72C122.384 6.72 123.99 7.18667 125.284 8.12C126.591 9.04089 127.58 10.304 128.252 11.9093C128.924 13.5147 129.26 15.3316 129.26 17.36C129.26 19.3636 128.924 21.1742 128.252 22.792C127.58 24.3973 126.578 25.6667 125.247 26.6C123.915 27.5333 122.266 28 120.3 28ZM120.991 23.968C122.198 23.968 123.168 23.6942 123.903 23.1467C124.649 22.5867 125.191 21.8089 125.527 20.8133C125.875 19.8178 126.049 18.6667 126.049 17.36C126.049 16.0409 125.875 14.8898 125.527 13.9067C125.191 12.9111 124.662 12.1396 123.94 11.592C123.218 11.032 122.285 10.752 121.14 10.752C119.933 10.752 118.937 11.0507 118.153 11.648C117.369 12.2329 116.791 13.0293 116.417 14.0373C116.044 15.0329 115.857 16.1404 115.857 17.36C115.857 18.592 116.038 19.712 116.399 20.72C116.772 21.7156 117.338 22.5058 118.097 23.0907C118.856 23.6756 119.821 23.968 120.991 23.968ZM126.049 27.44V13.2907H125.489V0.559999H130.025V27.44H126.049Z" fill="#181818"/>
<path d="M144.424 28C142.383 28 140.591 27.5582 139.048 26.6747C137.505 25.7911 136.298 24.5653 135.427 22.9973C134.568 21.4293 134.139 19.6249 134.139 17.584C134.139 15.3813 134.562 13.4711 135.408 11.8533C136.255 10.2231 137.431 8.96 138.936 8.064C140.442 7.168 142.184 6.72 144.163 6.72C146.254 6.72 148.027 7.21156 149.483 8.19467C150.951 9.16533 152.04 10.5404 152.75 12.32C153.459 14.0996 153.727 16.1964 153.552 18.6107H149.091V16.968C149.079 14.7778 148.693 13.1787 147.934 12.1707C147.175 11.1627 145.98 10.6587 144.35 10.6587C142.508 10.6587 141.139 11.2311 140.243 12.376C139.347 13.5084 138.899 15.1698 138.899 17.36C138.899 19.4009 139.347 20.9813 140.243 22.1013C141.139 23.2213 142.446 23.7813 144.163 23.7813C145.271 23.7813 146.223 23.5387 147.019 23.0533C147.828 22.5556 148.45 21.84 148.886 20.9067L153.328 22.2507C152.557 24.0676 151.362 25.48 149.744 26.488C148.139 27.496 146.366 28 144.424 28ZM137.48 18.6107V15.2133H151.35V18.6107H137.48Z" fill="#181818"/>
<path d="M157.717 27.44V7.28H161.693V12.1893L161.208 11.5547C161.457 10.8827 161.787 10.2729 162.197 9.72533C162.62 9.16533 163.124 8.70489 163.709 8.344C164.207 8.008 164.755 7.74667 165.352 7.56C165.962 7.36089 166.584 7.24266 167.219 7.20533C167.853 7.15555 168.469 7.18044 169.067 7.28V11.48C168.469 11.3058 167.779 11.2498 166.995 11.312C166.223 11.3742 165.526 11.592 164.904 11.9653C164.282 12.3013 163.772 12.7307 163.373 13.2533C162.988 13.776 162.701 14.3733 162.515 15.0453C162.328 15.7049 162.235 16.4204 162.235 17.192V27.44H157.717Z" fill="#181818"/>
</svg>
