<svg width="190" height="80" viewBox="0 0 190 80" fill="none" xmlns="http://www.w3.org/2000/svg">
<g clip-path="url(#clip0_728_37205)">
<path d="M0 52.5841C0 47.7267 3.92249 43.7891 8.76113 43.7891H27.0594C31.898 43.7891 35.8205 47.7267 35.8205 52.5841V79.748H8.76112C3.92249 79.748 0 75.8104 0 70.953V52.5841Z" fill="#1C6BDB"/>
<path d="M81.3314 79.6381L81.2413 47.9761H75.2487L63.6239 67.6518L51.8189 47.9761H45.7812V79.6381H52.6299V61.048L61.8667 76.291H65.1559L74.4377 60.6409L74.4827 79.6381H81.3314Z" fill="#0B1832"/>
<path d="M91.8333 51.9113C94.4466 51.9113 96.2038 50.1925 96.2038 47.8405C96.2038 45.6693 94.4466 44.041 91.8333 44.041C89.2199 44.041 87.4627 45.7598 87.4627 47.9761C87.4627 50.1925 89.2199 51.9113 91.8333 51.9113ZM88.3188 79.6381H95.3477V55.3036H88.3188V79.6381Z" fill="#0B1832"/>
<path d="M108.585 58.5151V55.3036H101.871V79.6381H108.9V68.1494C108.9 63.4905 111.468 61.3646 115.343 61.3646C115.884 61.3646 116.335 61.4099 116.92 61.4551V54.9418C113.181 54.9418 110.297 56.163 108.585 58.5151Z" fill="#0B1832"/>
<path d="M129.343 80C136.597 80 140.788 76.7886 140.788 72.2654C140.788 62.6764 126.144 66.702 126.144 62.5407C126.144 61.2742 127.496 60.2791 130.65 60.2791C132.858 60.2791 135.246 60.7314 137.634 62.0884L139.977 57.0677C137.679 55.7107 133.984 54.9418 130.65 54.9418C123.576 54.9418 119.43 58.1984 119.43 62.8121C119.43 72.5368 134.074 68.466 134.074 72.4463C134.074 73.8033 132.858 74.6627 129.613 74.6627C126.64 74.6627 123.35 73.7128 121.188 72.3106L118.845 77.3766C121.098 78.8692 125.243 80 129.343 80Z" fill="#0B1832"/>
<path d="M156.659 80C164.364 80 169.951 74.7984 169.951 67.4709C169.951 60.1434 164.364 54.9418 156.659 54.9418C148.954 54.9418 143.322 60.1434 143.322 67.4709C143.322 74.7984 148.954 80 156.659 80ZM156.659 74.2104C153.145 74.2104 150.441 71.6774 150.441 67.4709C150.441 63.2644 153.145 60.7314 156.659 60.7314C160.173 60.7314 162.832 63.2644 162.832 67.4709C162.832 71.6774 160.173 74.2104 156.659 74.2104Z" fill="#0B1832"/>
<path d="M188.392 73.4867C187.626 74.0747 186.589 74.3913 185.553 74.3913C183.661 74.3913 182.534 73.2605 182.534 71.1799V61.2742H188.572V55.8464H182.534V49.9211H175.505V55.8464H171.765V61.2742H175.505V71.2703C175.505 77.0599 178.839 80 184.562 80C186.724 80 188.842 79.5024 190.284 78.4621L188.392 73.4867Z" fill="#0B1832"/>
<path d="M35.8203 8.79499C35.8203 3.93765 31.8978 0 27.0592 0H8.76094C3.9223 0 -0.000179291 3.93765 -0.000179291 8.795V35.959H27.0592C31.8978 35.959 35.8203 32.0213 35.8203 27.164V8.79499Z" fill="#1C6BDB"/>
<path d="M45.7812 35.6735V4.30628H60.0747C64.0352 4.30628 67.0726 5.36679 69.1868 7.48781C70.9735 9.28023 71.8668 11.7 71.8668 14.7471C71.8668 19.5567 69.6335 22.798 65.1668 24.4709L72.8049 35.6735H64.7648L57.9754 25.636H52.66V35.6735H45.7812ZM52.66 19.5418H59.6281C61.2956 19.5418 62.591 19.1385 63.5141 18.3319C64.4372 17.4955 64.8988 16.3901 64.8988 15.0159C64.8988 13.5521 64.4223 12.4468 63.4694 11.7C62.5165 10.9233 61.1914 10.5349 59.4941 10.5349H52.66V19.5418Z" fill="#0B1832"/>
<path d="M75.3802 35.6735L88.7803 4.08223H95.1231L108.523 35.6735H101.332L98.4731 28.6383H85.2516L82.3929 35.6735H75.3802ZM87.7083 22.5441H96.0164L91.8624 12.3721L87.7083 22.5441Z" fill="#0B1832"/>
<path d="M126.893 36.2112C122.039 36.2112 118.079 34.6877 115.012 31.6406C111.974 28.5935 110.456 24.7099 110.456 19.9899C110.456 15.479 112.019 11.6552 115.146 8.51845C118.272 5.35185 122.173 3.76855 126.848 3.76855C129.558 3.76855 131.851 4.12704 133.727 4.844C135.603 5.53109 137.405 6.60654 139.132 8.07034L134.799 13.3132C133.489 12.2078 132.223 11.4012 131.002 10.8934C129.782 10.3855 128.322 10.1316 126.625 10.1316C124.124 10.1316 121.995 11.1025 120.238 13.0443C118.511 14.9562 117.647 17.2714 117.647 19.9899C117.647 22.8578 118.525 25.2327 120.282 27.1147C122.069 28.9968 124.347 29.9378 127.116 29.9378C129.677 29.9378 131.836 29.3104 133.593 28.0558V23.5747H126.67V17.6149H140.249V31.2373C136.348 34.5533 131.896 36.2112 126.893 36.2112Z" fill="#0B1832"/>
</g>
<defs>
<clipPath id="clip0_728_37205">
<rect width="189.268" height="80" fill="white"/>
</clipPath>
</defs>
</svg>
